/* XPM */
static char *result[] = {
/* columns rows colors chars-per-pixel */
"100 100 4 1 ",
"  c #3A3F5E",
". c #4C6885",
"X c #A3A7C2",
"o c None",
/* pixels */
"oooooooooooooooooooooooooooooooooooooooooooooooooooooooooooooooooooooooooooooooooooooooooooooooooooo",
"oooooooooooooooooooooooooooooooooooooooooooooooooooooooooooooooooooooooooooooooooooooooooooooooooooo",
"oooooooooooooooooooooooooooooooooooooooooooooooooooooooooooooooooooooooooooooooooooooooooooooooooooo",
"oooooooooooooooooooooooooooooooooooooooooooooooooooooooooooooooooooooooooooooooooooooooooooooooooooo",
"oooooooooooooooooooooooooooooooooooooooooooooooooooooooooooooooooooooooooooooooooooooooooooooooooooo",
"oooooooooooooooooooooooooooooooooooooooooooooooooooooooooooooooooooooooooooooooooooooooooooooooooooo",
"oooooooooooooooooooooooooooooooooooooooooooooooooooooooooooooooooooooooooooooooooooooooooooooooooooo",
"oooooooooooooooooooooooooooooooooooooooooooooooooooooooooooooooooooooooooooooooooooooooooooooooooooo",
"oooooooooooooooooooooooooooooooooooooooooooooooooooooooooooooooooooooooooooooooooooooooooooooooooooo",
"oooooooooooooooooooooooooooooooooooooooooooooooooooooooooooooooooooooooooooooooooooooooooooooooooooo",
"oooooooooooooooooooooooooooooooooooooooooooooooooooooooooooooooooooooooooooooooooooooooooooooooooooo",
"oooooooooooooooooooooooooooooooooooooooooooooooooooooooooooooooooooooooooooooooooooooooooooooooooooo",
"oooooooooooooooooooooooooooooooooooooooooooooooooooooooooooooooooooooooooooooooooooooooooooooooooooo",
"oooooooooooooooooooooooooooooooooooooooooooooooooooooooooooooooooooooooooooooooooooooooooooooooooooo",
"oooooooooooooooooooooooooooooooooooooooooooooooooooooooooooooooooooooooooooooooooooooooooooooooooooo",
"ooooooooooooooooooooooooooooooooooooooXooooooooooooooooooooooooooooooooooooooooooooooooooooooooooooo",
"oooooooooooooooooooooooooooooooooooooXXooooooooooooooooooooooooooooooooooooooooooooooooooooooooooooo",
"ooooooooooooooooooooooooooooooooooooooXooooooooooooooooooooooooooooooooooooooooooooooooooooooooooooo",
"oooooooooooooooooooooooooooooooooooooooooooooooooooooooooooooooooooooooooooooooooooooooooooooooooooo",
"oooooooooooooooooooooooooooooooooooooooooooooooooooooooooooooooooooooooooooooooooooooooooooooooooooo",
"oooooooooooooooooooooooooooooooooooooooooooooooooooooooooooooooooooooooooooooooooooooooooooooooooooo",
"oooooooooooooooooooooooooooooooooooooooooooooooooooooooooooooooooooooooooooooooooooooooooooooooooooo",
"oooooooooooooooooooooooooooooooooooooooooooooooooooooooooooooooooooooooooooooooooooooooooooooooooooo",
"oooooooooooooooooooooooooooooooooooooooooooooooooooooooooooooooooooooooooooooooooooooooooooooooooooo",
"oooooooooooooooooooooooooooooooooooooooooooooooooooooooooooooooooooooooooooooooooooooooooooooooooooo",
"ooooooooooooooooooooooooooooooooooooooooooooo..ooooooooooooooooooooooooooooooooooooooooooooooooooooo",
"oooooooooooooooooooooooooooooooooooooooooooo...ooooooooooooooooooooooooooooooooooooooooooooooooooooo",
"oooooooooooooooooooooooooooooooooooooooooooo...ooooooooooooooooooooooooooooooooooooooooooooooooooooo",
"oooooooooooooooooooooooooooooooooooooooooooXX...oooooooooooooooooooooooooooooooooooooooooooooooooooo",
"oooooooooooooooooooooooooooooooooooooooooooX... oooooooooooooooooooooooooooooooooooooooooooooooooooo",
"ooooooooooooooooooooooooooooooooooooooooooo.....oooooooooooooooooooooooooooooooooooooooooooooooooooo",
"ooooooooooooooooooooooooooooooooooooooooooo.... oooooooooooooooooooooooooooooooooooooooooooooooooooo",
"oooooooooooooooooooooooooooooooooooooooooo......oooooooooooooooooooooooooooooooooooooooooooooooooooo",
"oooooooooooooooooooooooooooooooooooooooooo..... ..oooooooooooooooooooooooooooooooooooooooooooooooooo",
"ooooooooooooooooooooooooooooooooooooooooo....  .......oooooooooooooooooooooooooooooooooooooooooooooo",
"oooooooooooooooooooooooooooooooooooooooXX....  ..........XXXXXXXoooooooooooooooooooooooooooooooooooo",
"ooooooooooooooooooooooooooooooooooooooXX....X     .......XXXXXXXXXoooooooooooooooooooooooooooooooooo",
"ooooooooooooooooooooooooooooooooooooXXXX.X.X.X     ......XXXXXXXXXoooooooooooooooooooooooooooooooooo",
"oooooooooooooooooooooooooooooooooooXXXX.X.XXXXXX    ....XXXXXXXXXXXooooooooooooooooooooooooooooooooo",
"oooooooooooooooooooooooooooooooooooXXXXX.XXXXXXXX       XXXXXXXXXXXooooooooooooooooooooooooooooooooo",
"ooooooooooooooooooooooooooooooooooXXXXXXXXXXXXXXXXX   XXXXXXXXX.....oooooooooooooooooooooooooooooooo",
"ooooooooooooooooooooooooooooooooooXXXXXXXXXXXXXXXX.X.X.XXXXX.X......oooooooooooooooooooooooooooooooo",
"ooooooooooooooooooooooooooooooooooXXXXXXXXXXXXXXXXX.X.X.X.X.X.......oooooooooooooooooooooooooooooooo",
"oooooooooooooooooooooooooooooooooXXXXXXX.XXXXXXXXX................ .oooooooooooooooooooooooooooooooo",
"oooooooooooooooooooooooooooooooooXXXXXX.X.XXXXXXX................  .oooooooooooooooooooooooooooooooo",
"oooooooooooooooooooooooooooooooooXXXXXXX.X.XXXXX.................  .oooooooooooooooooooooooooooooooo",
"oooooooooooooooooooooooooooooooooXXXXXX.X.X.X..... . . . .......    oooooooooooooooooooooooooooooooo",
"oooooooooooooooooooooooooooooooooXXXXXXX.........         . . . .   oooooooooooooooooooooooooooooooo",
"ooooooooooooooooooooooooooooooooXXXXXXX.X.......                    oooooooooooooooooooooooooooooooo",
"ooooooooooooooooooooooooooooooooXXXXXXXX.......                     oooooooooooooooooooooooooooooooo",
"ooooooooooooooooooooooooooooooooXXXXXXXXX.....      .               oooooooooooooooooooooooooooooooo",
"ooooooooooooooooooooooooooooooooXXXXXXXX.....     .....       . . . oooooooooooooooooooooooooooooooo",
"ooooooooooooooooooooooooooooooooXXXXXXXXX.....    ......   . ..... .oooooooooooooooooooooooooooooooo",
"oooooooooooooooooooooooooooooooXXXXXXXXX..... .   ....... ......... oooooooooooooooooooooooooooooooo",
"oooooooooooooooooooooooooooooooXXXXXXXXXX..... .  ................. oooooooooooooooooooooooooooooooo",
"oooooooooooooooooooooooooooooooXXXXXXXXX........  ................ .oooooooooooooooooooooooooooooooo",
"oooooooooooooooooooooooooooooooXXXXXXXXXX.......   .......X.X.X.X.  oooooooooooooooooooooooooooooooo",
"ooooooooooooooooooooooooooooooXXXXXXXXXX........     .. XXXXXXXX..  oooooooooooooooooooooooooooooooo",
"ooooooooooooooooooooooooooooooXXXXXXXXX.X.....X.X       XXXXXXXXX.  oooooooooooooooooooooooooooooooo",
"ooooooooooooooooooooooooooooooXXXXXXXXXX.....XXXXXX   XXXXXXXXXX..  oooooooooooooooooooooooooooooooo",
"ooooooooooooooooooooooooooooooXXXXXXXXX.....XXXXXXXXXXXXXXXXXXX.....oooooooooooooooooooooooooooooooo",
"ooooooooooooooooooooooooooooooXXXXXXXX.....XXXXXXXXXXX.X.XXXXX......oooooooooooooooooooooooooooooooo",
"ooooooooooooooooooooooooooooooXXXXXXXXX...X.XXXXXXX.X.....X.X.......oooooooooooooooooooooooooooooooo",
"ooooooooooooooooooooooooooooooXXXXXXXX.....XXXXX.X.................ooooooooooooooooooooooooooooooooo",
"ooooooooooooooooooooooooooooooXXXXXXX.......X.X.................   ooooooooooooooooooooooooooooooooo",
"ooooooooooooooooooooooooooooooXXXXXX...............     . ... .  ooooooooooooooooooooooooooooooooooo",
"ooooooooooooooooooooooooooooooXXXXX............. ....      .    oooooooooooooooooooooooooooooooooooo",
"ooooooooooooooooooooooooooooooXXXX.............  .....         ooooooooooooooooooooooooooooooooooooo",
"oooooooooooooooooooooooooooooooXXXX... . . .     ......      ooooooooooooooooooooooooooooooooooooooo",
"ooooooooooooooooooooooooooooooooXXX..            ......     oooooooooooooooooooooooooooooooooooooooo",
"oooooooooooooooooooooooooooooooooooooooo         oo....   oooooooooooooooooooooooooooooooooooooooooo",
"oooooooooooooooooooooooooooooooooooooooooooooooooooooooooooooooooooooooooooooooooooooooooooooooooooo",
"oooooooooooooooooooooooooooooooooooooooooooooooooooooooooooooooooooooooooooooooooooooooooooooooooooo",
"oooooooooooooooooooooooooooooooooooooooooooooooooooooooooooooooooooooooooooooooooooooooooooooooooooo",
"oooooooooooooooooooooooooooooooooooooooooooooooooooooooooooooooooooooooooooooooooooooooooooooooooooo",
"oooooooooooooooooooooooooooooooooooooooooooooooooooooooooooooooooooooooooooooooooooooooooooooooooooo",
"oooooooooooooooooooXXXXooooooooooooooooooooooooooooooooooooooooooooooooooooooooooooooooooooooooooooo",
"ooooooooooooooooooXXXXXXoooooooooooooooooooooooooooooooooooooooooooooooooooooooooooooooooooooooooooo",
"oooooooooooooooooXXXXXXXoooooooooooooooooooooooooooooooooooooooooooooooooooooooooooooooooooooooooooo",
"oooooooooooooooooXXXXXXXXooooooooooooooooooooooooooooooooooooooooooooooooooooooooooooooooooooooooooo",
"oooooooooooooooooXXXXXXX.ooooooooooooooooooooooooooooooooooooooooooooooooooooooooooooooooooooooooooo",
"oooooooooooooooooXXXXXX..ooooooooooooooooooooooooooooooooooooooooooooooooooooooooooooooooooooooooooo",
"oooooooooooooooooXXXXX..oooooooooooooooooooooooooooooooooooooooooooooooooooooooooooooooooooooooooooo",
"ooooooooooooooooooXXXXoooooooooooooooooooooooooooooooooooooooooooooooooooooooooooooooooooooooooooooo",
"oooooooooooooooooooooooooooooooooooooooooooooooooooooooooooooooooooooooooooooooooooooooooooooooooooo",
"oooooooooooooooooooooooooooooooooooooooooooooooooooooooooooooooooooooooooooooooooooooooooooooooooooo",
"oooooooooooooooooooooooooooooooooooooooooooooooooooooooooooooooooooooooooooooooooooooooooooooooooooo",
"oooooooooooooooooooooooooooooooooooooooooooooooooooooooooooooooooooooooooooooooooooooooooooooooooooo",
"oooooooooooooooooooooooooooooooooooooooooooooooooooooooooooooooooooooooooooooooooooooooooooooooooooo",
"oooooooooooooooooooooooooooooooooooooooooooooooooooooooooooooooooooooooooooooooooooooooooooooooooooo",
"oooooooooooooooooooooooooooooooooooooooooooooooooooooooooooooooooooooooooooooooooooooooooooooooooooo",
"oooooooooooooooooooooooooooooooooooooooooooooooooooooooooooooooooooooooooooooooooooooooooooooooooooo",
"oooooooooooooooooooooooooooooooooooooooooooooooooooooooooooooooooooooooooooooooooooooooooooooooooooo",
"oooooooooooooooooooooooooooooooooooooooooooooooooooooooooooooooooooooooooooooooooooooooooooooooooooo",
"oooooooooooooooooooooooooooooooooooooooooooooooooooooooooooooooooooooooooooooooooooooooooooooooooooo",
"oooooooooooooooooooooooooooooooooooooooooooooooooooooooooooooooooooooooooooooooooooooooooooooooooooo",
"oooooooooooooooooooooooooooooooooooooooooooooooooooooooooooooooooooooooooooooooooooooooooooooooooooo",
"oooooooooooooooooooooooooooooooooooooooooooooooooooooooooooooooooooooooooooooooooooooooooooooooooooo",
"oooooooooooooooooooooooooooooooooooooooooooooooooooooooooooooooooooooooooooooooooooooooooooooooooooo",
"oooooooooooooooooooooooooooooooooooooooooooooooooooooooooooooooooooooooooooooooooooooooooooooooooooo"
};
