/* XPM */
static char *result[] = {
/* columns rows colors chars-per-pixel */
"100 100 4 1 ",
"  c #3A3F5E",
". c #4C6885",
"X c #A3A7C2",
"o c None",
/* pixels */
"oooooooooooooooooooooooooooooooooooooooooooooooooooooooooooooooooooooooooooooooooooooooooooooooooooo",
"oooooooooooooooooooooooooooooooooooooooooooooooooooooooooooooooooooooooooooooooooooooooooooooooooooo",
"oooooooooooooooooooooooooooooooooooooooooooooooooooooooooooooooooooooooooooooooooooooooooooooooooooo",
"oooooooooooooooooooooooooooooooooooooooooooooooooooooooooooooooooooooooooooooooooooooooooooooooooooo",
"oooooooooooooooooooooooooooooooooooooooooooooooooooooooooooooooooooooooooooooooooooooooooooooooooooo",
"oooooooooooooooooooooooooooooooooooooooooooooooooooooooooooooooooooooooooooooooooooooooooooooooooooo",
"oooooooooooooooooooooooooooooooooooooooooooooooooooooooooooooooooooooooooooooooooooooooooooooooooooo",
"oooooooooooooooooooooooooooooooooooooooooooooooooooooooooooooooooooooooooooooooooooooooooooooooooooo",
"oooooooooooooooooooooooooooooooooooooooooooooooooooooooooooooooooooooooooooooooooooooooooooooooooooo",
"oooooooooooooooooooooooooooooooooooooooooooooooooooooooooooooooooooooooooooooooooooooooooooooooooooo",
"oooooooooooooooooooooooooooooooooooooooooooooooooooooooooooooooooooooooooooooooooooooooooooooooooooo",
"oooooooooooooooooooooooooooooooooooooooooooooooooooooooooooooooooooooooooooooooooooooooooooooooooooo",
"oooooooooooooooooooooooooooooooooooooooooooooooooooooooooooooooooooooooooooooooooooooooooooooooooooo",
"oooooooooooooooooooooooooooooooooooooooooooooooooooooooooooooooooooooooooooooooooooooooooooooooooooo",
"oooooooooooooooooooooooooooooooooooooooooooooooooooooooooooooooooooooooooooooooooooooooooooooooooooo",
"oooooooooooooooooooooooooooooooooooooooooooooooooooooooooooooooooooooooooooooooooooooooooooooooooooo",
"oooooooooooooooooooooooooooooooooooooooooooooooooooooooooooooooooooooooooooooooooooooooooooooooooooo",
"ooooooooooooooooooXXXXXooooooooooooooooooooooooooooooooooooooooooooooooooooooooooooooooooooooooooooo",
"oooooooooooooooooXXXXXXXoooooooooooooooooooooooooooooooooooooooooooooooooooooooooooooooooooooooooooo",
"oooooooooooooooooXXXXXXXXooooooooooooooooooooooooooooooooooooooooooooooooooooooooooooooooooooooooooo",
"oooooooooooooooooXXXXXX..ooooooooooooooooooooooooooooooooooooooooooooooooooooooooooooooooooooooooooo",
"oooooooooooooooooXXXXX...ooooooooooooooooooooooooooooooooooooooooooooooooooooooooooooooooooooooooooo",
"ooooooooooooooooooXXX..  ooooooooooooooooooooooooooooooooooooooooooooooooooooooooooooooooooooooooooo",
"ooooooooooooooooooXXX.  oooooooooooooooooooooooooooooooooooooooooooooooooooooooooooooooooooooooooooo",
"oooooooooooooooooooX..oooooooooooooooooooooooooooooooooooooooooooooooooooooooooooooooooooooooooooooo",
"oooooooooooooooooooooooooooooooooooooooooooooooooooooooooooooooooooooooooooooooooooooooooooooooooooo",
"oooooooooooooooooooooooooooooooooooooooooooooooooooooooooooooooooooooooooooooooooooooooooooooooooooo",
"oooooooooooooooooooooooooooooooooooooooooooooooooooooooooooooooooooooooooooooooooooooooooooooooooooo",
"oooooooooooooooooooooooooooooooooooooooooooooooooooooooooooooooooooooooooooooooooooooooooooooooooooo",
"oooooooooooooooooooooooooooooooooooooooooooooooooooooooooooooooooooooooooooooooooooooooooooooooooooo",
"ooooooooooooooooooooooooooooooooo...XXXXXXXXoooooooooooooooooooooooooooooooooooooooooooooooooooooooo",
"oooooooooooooooooooooooooooooooo.....XXXXXXXXXXXoooooooooooooooooooooooooooooooooooooooooooooooooooo",
"ooooooooooooooooooooooooooooooo.......XXXXXXXXXXXXXXXooooooooooooooooooooooooooooooooooooooooooooooo",
"oooooooooooooooooooooooooooooooX.....X.XXXXX.XXXXXXXXXXXXXoooooooooooooooooooooooooooooooooooooooooo",
"oooooooooooooooooooooooooooooooX....X.X.XXX.X.XXXXXXXXXXXXXXXooooooooooooooooooooooooooooooooooooooo",
"oooooooooooooooooooooooooooooooXXX.X.X.X.X.X.X.XXXXXXXXXXXXXXXXooooooooooooooooooooooooooooooooooooo",
"oooooooooooooooooooooooooooooooXX.X.X.X.X.X.X.X.X.X.X.X.XXXXXXXXoooooooooooooooooooooooooooooooooooo",
"oooooooooooooooooooooooooooooooXXXXX.X.X...............X.X.X.XXXooooooooooooooooooooXooooooooooooooo",
"oooooooooooooooooooooooooooooooXXXXXX.X..........................ooooooooooooooooooXXXoooooooooooooo",
"oooooooooooooooooooooooooooooooXXXXXXX............................oooooooooooooooooooooooooooooooooo",
"ooooooooooooooooooooooooooooooXXXXXXXXX...........................oooooooooooooooooooooooooooooooooo",
"ooooooooooooooooooooooooooooooXXXXXXXXXX....... . . ...............ooooooooooooooooooooooooooooooooo",
"ooooooooooooooooooooooooooooooXXXXXXXXX.X.....     . ...............Xooooooooooooooooooooooooooooooo",
"ooooooooooooooooooooooooooooooXXXXXXXXXX.....       .......X.........XXXXooooooooooooooooooooooooooo",
"ooooooooooooooooooooooooooooooXXXXXXXXXXX...         ...X.X..........XXXXXXooooooooooooooooooooooooo",
"ooooooooooooooooooooooooooooooXXXXXXXXXX...         ...X.X.X....   ...XXXXXXoooooooooooooooooooooooo",
"ooooooooooooooooooooooooooooooXXXXXXXXXXX...       .....XXX....    ...XXXXXXoooooooooooooooooooooooo",
"oooooooooooooooooooooooooooooo   XXXXXXX...         ...XXX.....  .. ...XXooooooooooooooooooooooooooo",
"oooooooooooooooooooooooooooooo     XXXX...         ...X.X.....   .. oooooooooooooooooooooooooooooooo",
"ooooooooooooooooooooooooooooooo....XXXX..          ....X.X...    ...oooooooooooooooooooooooooooooooo",
"ooooooooooooooooooooooooooooooo....XXXX..    ..... ...X.X...    ...ooooooooooooooooooooooooooooooooo",
"oooooooooooooooooooooooooooooo.....XXX...   .........X.X....   ....ooooooooooooooooooooooooooooooooo",
"oooooooooooooooooooooooooooooo.....XXX..    ..........X.X...  .....ooooooooooooooooooooooooooooooooo",
"oooooooooooooooooooooooooooooo....XXXX...  ..........X.X....  .....ooooooooooooooooooooooooooooooooo",
"oooooooooooooooooooooooooooooo...XXXX...   ....... ...X.X...  ....oooooooooooooooooooooooooooooooooo",
"ooooooooooooooooooooooooooooooXXXXXXXX...   ..... ...XXX..... ....oooooooooooooooooooooooooooooooooo",
"ooooooooooooooooooooooooooooooXXXXXXX...    ....  ....XXX...   ...oooooooooooooooooooooooooooooooooo",
"ooooooooooooooooooooooooooooooXXXXXXXX...         ...XXX.....     oooooooooooooooooooooooooooooooooo",
"oooooooooooooooooooooooooooooooXXXXXX.....       .....XXX.....    oooooooooooooooooooooooooooooooooo",
"oooooooooooooooooooooooooooooooXXXXX.X...         ...XXX.X...     oooooooooooooooooooooooooooooooooo",
"ooooooooooooooooooooooooooooooooXXXXX.....       .....XXX.....    oooooooooooooooooooooooooooooooooo",
"oooooooooooooooooooooooooooooooooX.X.....       .....XXX..... .   oooooooooooooooooooooooooooooooooo",
"oooooooooooooooooooooooooooooooooXX.......       .....X.X.....    oooooooooooooooooooooooooooooooooo",
"ooooooooooooooooooooooooooooooooooX......       .....X.X..... . . oooooooooooooooooooooooooooooooooo",
"oooooooooooooooooooooooooooooooooooX....         ........... . . ooooooooooooooooooooooooooooooooooo",
"ooooooooooooooooooooooooooooooooooooX....       . ....   .... . .ooooooooooooooooooooooooooooooooooo",
"ooooooooooooooooooooooooooooooooooooX...         . ..     .. . ooooooooooooooooooooooooooooooooooooo",
"oooooooooooooooooooooooooooooooooooooo...    .    . .  .... .ooooooooooooooooooooooooooooooooooooooo",
"oooooooooooooooooooooooooooooooooooooooooooooooooooooooooooooooooooooooooooooooooooooooooooooooooooo",
"oooooooooooooooooooooooooooooooooooooooooooooooooooooooooooooooooooooooooooooooooooooooooooooooooooo",
"oooooooooooooooooooooooooooooooooooooooooooooooooooooooooooooooooooooooooooooooooooooooooooooooooooo",
"oooooooooooooooooooooooooooooooooooooooooooooooooooooooooooooooooooooooooooooooooooooooooooooooooooo",
"oooooooooooooooooooooooooooooooooooooooooooooooooooooooooooooooooooooooooooooooooooooooooooooooooooo",
"oooooooooooooooooooooooooooooooooooooooooooooooooooooooooooooooooooooooooooooooooooooooooooooooooooo",
"oooooooooooooooooooooooooooooooooooooooooooooooooooooooooooooooooooooooooooooooooooooooooooooooooooo",
"oooooooooooooooooooooooooooooooooooooooooooooooooooooooooooooooooooooooooooooooooooooooooooooooooooo",
"oooooooooooooooooooooooooooooooooooooooooooooooooooooooooooooooooooooooooooooooooooooooooooooooooooo",
"oooooooooooooooooooooooooooooooooooooooooooooooooooooooooooooooooooooooooooooooooooooooooooooooooooo",
"oooooooooooooooooooooooooooooooooooooooooooooooooooooooooooooooooooooooooooooooooooooooooooooooooooo",
"oooooooooooooooooooooooooooooooooooooooooooooooooooooooooooooooooooooooooooooooooooooooooooooooooooo",
"oooooooooooooooooooooooooooooooooooooooooooooooooooooooooooooooooooooooooooooooooooooooooooooooooooo",
"oooooooooooooooooooooooooooooooooooooooooooooooooooooooooooooooooooooooooooooooooooooooooooooooooooo",
"oooooooooooooooooooooooooooooooooooooooooooooooooooooooooooooooooooooooooooooooooooooooooooooooooooo",
"oooooooooooooooooooooooooooooooooooooooooooooooooooooooooooooooooooooooooooooooooooooooooooooooooooo",
"oooooooooooooooooooooooooooooooooooooooooooooooooooooooooooooooooooooooooooooooooooooooooooooooooooo",
"oooooooooooooooooooooooooooooooooooooooooooooooooooooooooooooooooooooooooooooooooooooooooooooooooooo",
"oooooooooooooooooooooooooooooooooooooooooooooooooooooooooooooooooooooooooooooooooooooooooooooooooooo",
"oooooooooooooooooooooooooooooooooooooooooooooooooooooooooooooooooooooooooooooooooooooooooooooooooooo",
"oooooooooooooooooooooooooooooooooooooooooooooooooooooooooooooooooooooooooooooooooooooooooooooooooooo",
"oooooooooooooooooooooooooooooooooooooooooooooooooooooooooooooooooooooooooooooooooooooooooooooooooooo",
"oooooooooooooooooooooooooooooooooooooooooooooooooooooooooooooooooooooooooooooooooooooooooooooooooooo",
"oooooooooooooooooooooooooooooooooooooooooooooooooooooooooooooooooooooooooooooooooooooooooooooooooooo",
"oooooooooooooooooooooooooooooooooooooooooooooooooooooooooooooooooooooooooooooooooooooooooooooooooooo",
"oooooooooooooooooooooooooooooooooooooooooooooooooooooooooooooooooooooooooooooooooooooooooooooooooooo",
"oooooooooooooooooooooooooooooooooooooooooooooooooooooooooooooooooooooooooooooooooooooooooooooooooooo",
"oooooooooooooooooooooooooooooooooooooooooooooooooooooooooooooooooooooooooooooooooooooooooooooooooooo",
"oooooooooooooooooooooooooooooooooooooooooooooooooooooooooooooooooooooooooooooooooooooooooooooooooooo",
"oooooooooooooooooooooooooooooooooooooooooooooooooooooooooooooooooooooooooooooooooooooooooooooooooooo",
"oooooooooooooooooooooooooooooooooooooooooooooooooooooooooooooooooooooooooooooooooooooooooooooooooooo",
"oooooooooooooooooooooooooooooooooooooooooooooooooooooooooooooooooooooooooooooooooooooooooooooooooooo"
};
