/* XPM */
static char *result[] = {
/* columns rows colors chars-per-pixel */
"100 100 4 1 ",
"  c #3A3F5E",
". c #4C6885",
"X c #A3A7C2",
"o c None",
/* pixels */
"oooooooooooooooooooooooooooooooooooooooooooooooooooooooooooooooooooooooooooooooooooooooooooooooooooo",
"oooooooooooooooooooooooooooooooooooooooooooooooooooooooooooooooooooooooooooooooooooooooooooooooooooo",
"oooooooooooooooooooooooooooooooooooooooooooooooooooooooooooooooooooooooooooooooooooooooooooooooooooo",
"oooooooooooooooooooooooooooooooooooooooooooooooooooooooooooooooooooooooooooooooooooooooooooooooooooo",
"oooooooooooooooooooooooooooooooooooooooooooooooooooooooooooooooooooooooooooooooooooooooooooooooooooo",
"oooooooooooooooooooooooooooooooooooooooooooooooooooooooooooooooooooooooooooooooooooooooooooooooooooo",
"oooooooooooooooooooooooooooooooooooooooooooooooooooooooooooooooooooooooooooooooooooooooooooooooooooo",
"oooooooooooooooooooooooooooooooooooooooooooooooooooooooooooooooooooooooooooooooooooooooooooooooooooo",
"oooooooooooooooooooooooooooooooooooooooooooooooooooooooooooooooooooooooooooooooooooooooooooooooooooo",
"oooooooooooooooooooooooooooooooooooooooooooooooooooooooooooooooooooooooooooooooooooooooooooooooooooo",
"oooooooooooooooooooooooooooooooooooooooooooooooooooooooooooooooooooooooooooooooooooooooooooooooooooo",
"oooooooooooooooooooooooooooooooooooooooooooooooooooooooooooooooooooooooooooooooooooooooooooooooooooo",
"oooooooooooooooooooooooooooooooooooooooooooooooooooooooooooooooooooooooooooooooooooooooooooooooooooo",
"oooooooooooooooooooooooooooooooooooooooooooooooooooooooooooooooooooooooooooooooooooooooooooooooooooo",
"oooooooooooooooooooooooooooooooooooooooooooooooooooooooooooooooooooooooooooooooooooooooooooooooooooo",
"oooooooooooooooooooooooooooooooooooooooooooooooooooooooooooooooooooooooooooooooooooooooooooooooooooo",
"oooooooooooooooooooooooooooooooooooooooooooooooooooooooooooooooooooooooooooooooooooooooooooooooooooo",
"oooooooooooooooooooooooooooooooooooooooooooooooooooooooooooooooooooooooooooooooooooooooooooooooooooo",
"oooooooooooooooooooooooooooooooooooooooooooooooooooooooooooooooooooooooooooooooooooooooooooooooooooo",
"oooooooooooooooooooooooooooooooooooooooooooooooooooooooooooooooooooooooooooooooooooooooooooooooooooo",
"oooooooooooooooooooooooooooooooooooooooooooooooooooooooooooooooooooooooooooooooooooooooooooooooooooo",
"oooooooooooooooooooooooooooooooooooooooooooooooooooooooooooooooooooooooooooooooooooooooooooooooooooo",
"oooooooooooooooooooooooooooooooooooooooooooooooooooooooooooooooooooooooooooooooooooooooooooooooooooo",
"oooooooooooooooooooooooooooooooooooooooooooooooooooooooooooooooooooooooooooooooooooooooooooooooooooo",
"oooooooooooooooooooooooooooooooooooooooooooooooooooooooooooooooooooooooooooooooooooooooooooooooooooo",
"oooooooooooooooooooooooooooooooooooooooooooooooooooooooooooooooooooooooooooooooooooooooooooooooooooo",
"oooooooooooooooooooooooooooooooooooooooooooooooooooooooooooooooooooooooooooooooooooooooooooooooooooo",
"oooooooooooooooooooooooooooooooooooooooooooooooooooooooooooooooooooooooooooooooooooooooooooooooooooo",
"oooooooooooooooooooooooooooooooooooooooooooooooooooooooooooooooooooooooooooooooooooooooooooooooooooo",
"oooooooooooooooooooooooooooooooooooooooooooooooooooooooooooooooooooooooooooooooooooooooooooooooooooo",
"oooooooooooooooooooooooooooooooooooooooooooooooooXXXXXoooooooooooooooooooooooooooooooooooooooooooooo",
"ooooooooooooooooooooooooooooooooooooooooooooooooXXXXXXXXoooooooooooooooooooooooooooooooooooooooooooo",
"oooooooooooooooooooooooooooooooooooooooooooooooXXXXXXXXXXooooooooooooooooooooooooooooooooooooooooooo",
"ooooooooooooooooooooooooooooooooooooooooooooooXXXXXX.X.. ..ooooooooooooooooooooooooooooooooooooooooo",
"oooooooooooooooooXXooooooooooooooooooooooooooXXXXXXXX...  ..oooooooooooooooooooooooooooooooooooooooo",
"oooooooooooooooooX.oooooooooooooooooooooooo.XXXXXXXX.X..    oooooooooooooooooooooooooooooooooooooooo",
"oooooooooooooooooooooooooooooXXXoooooooooo...XXXXXXXX....    ooooooooooooooooooooooooooooooooooooooo",
"oooooooooooooooooooooooooooooXXXXoooooooo.....XXXXXXXX........oooooooooooooooooooooooooooooooooooooo",
"oooooooooooooooooooooooooooooXX... oooo.......XXXXXXX..........ooooooooooooooooooooooooooooooooooooo",
"oooooooooooooooooooooooooooooo... . ......... XXXXXX............oooooooooooooooooooooooooooooooooooo",
"oooooooooooooooooooooooooooooo.. . . .......  XXXXXXX............ooooooooooooooooooooooooooooooooooo",
"ooooooooooooooooooooooooooooooo . . ...       XXXXXX..... . ..... oooooooooooooooooooooooooooooooooo",
"oooooooooooooooooooooooooooooooo . .         XXXXXX.....   . .... .ooooooooooooooooooooooooooooooooo",
"oooooooooooooooooooooooooooooooo. ..   X   XXXXXXX.....     .....   oooooooooooooooooooooooooooooooo",
"oooooooooooooooooooooooooooooooo .... XXXXXXXXXXX.....       .....   ooooooooooooooooooooooooooooooo",
"oooooooooooooooooooooooooooooooo.......XXXXXXXXX.....       ........ Xoooooooooooooooooooooooooooooo",
"oooooooooooooooooooooooooooooooo......XXXXXXXXX.....       .....X.X...Xooooooooooooooooooooooooooooo",
"oooooooooooooooooooooooooooooooo.....XXXXXXXXX.....       .....X.X.X...ooooooooooooooooooooooooooooo",
"oooooooooooooooooooooooooooooooo....XXXXXXXXX....    .........XXXXX....Xoooooooooooooooooooooooooooo",
"oooooooooooooooooooooooooooooooo.....XXXXXXX....   ..........XXXXXXX....oooooooooooooooooooooooooooo",
"oooooooooooooooooooooooooooooooX....XXXXXXX....    .........XXXXXXX.....oooooooooooooooooooooooooooo",
"oooooooooooooooooooooooooooooooXX..X.XXXXX....     ........ XXXXXXXX...ooooooooooooooooooooooooooooo",
"oooooooooooooooooooooooooooooooXX.X.X.X.X.....     ........ XXXXXXX....ooooooooooooooooooooooooooooo",
"ooooooooooooooooooooooooooooooooXX.X.X.X.....       ......  XXXXXX.....ooooooooooooooooooooooooooooo",
"ooooooooooooooooooooooooooooooooXXX.X.......               XXXXXXXX... ooooooooooooooooooooooooooooo",
"ooooooooooooooooooooooooooooooooXX.X.........              XXXXXXX...  ooooooooooooooooooooooooooooo",
"oooooooooooooooooooooooooooooooooX............     ..    XXXXXXXX...   ooooooooooooooooooooooooooooo",
"oooooooooooooooooooooooooooooooooXX..................XXXXXXXXXXX.....  ooooooooooooooooooooooooooooo",
"ooooooooooooooooooooooooooooooooooX.................XXXXXXXXXXX.....  oooooooooooooooooooooooooooooo",
"oooooooooooooooooooooooooooooooooooX.....X.X.......XXXXXXXXXXX...     oooooooooooooooooooooooooooooo",
"oooooooooooooooooooooooooooooooooooo......X.X.X.X.XXXXXXXXXXX.....   ooooooooooooooooooooooooooooooo",
"ooooooooooooooooooooooooooooooooooooX....X.X.X.X.XXXXXXXXXXX....... oooooooooooooooooooooooooooooooo",
"oooooooooooooooooooooooooooooooooooooX..X.X.X.X.X.XXXXXXXXX........ooooooooooooooooooooooooooooooooo",
"oooooooooooooooooooooooooooooooooooooXXX.X.X.X.X.X.XXXXXXX.. .....oooooooooooooooooooooooooooooooooo",
"ooooooooooooooooooooooooooooooooooooooXXX.X.X.X...X.XXXXX...  ...ooooooooooooooooooooooooooooooooooo",
"oooooooooooooooooooooooooooooooooooooooX.X.X.X.......X.....     oooooooooooooooooooooooooooooooooooo",
"oooooooooooooooooooooooooooooooooooooooXX.X.X.............     ooooooooooooooooooooooooooooooooooooo",
"ooooooooooooooooooooooooooooooooooooooooXX.X.X...........     oooooooooooooooooooooooooooooooooooooo",
"oooooooooooooooooooooooooooooooooooooooooXX.X...........     ooooooooooooooooooooooooooooooooooooooo",
"oooooooooooooooooooooooooooooooooooooooooXXX.X.........     oooooooooooooooooooooooooooooooooooooooo",
"ooooooooooooooooooooooooooooooooooooooooooXXX.X.......     ooooooooooooooooooooooooooooooooooooooooo",
"oooooooooooooooooooooooooooooooooooooooooooXXX.......     oooooooooooooooooooooooooooooooooooooooooo",
"oooooooooooooooooooooooooooooooooooooooooooXXXX..... .   ooooooooooooooooooooooooooooooooooooooooooo",
"ooooooooooooooooooooooooooooooooooooooooooooXXX......  ooooooooooooooooooooooooooooooooooooooooooooo",
"ooooooooooooooooooooooooooooooooooooooooooooooX.....  oooooooooooooooooooooooooooooooooooooooooooooo",
"oooooooooooooooooooooooooooooooooooooooooooooooX.....ooooooooooooooooooooooooooooooooooooooooooooooo",
"ooooooooooooooooooooooooooooooooooooooooooooooooX...oooooooooooooooooooooooooooooooooooooooooooooooo",
"oooooooooooooooooooooooooooooooooooooooooooooooooooooooooooooooooooooooooooooooooooooooooooooooooooo",
"oooooooooooooooooooooooooooooooooooooooooooooooooooooooooooooooooooooooooooooooooooooooooooooooooooo",
"oooooooooooooooooooooooooooooooooooooooooooooooooooooooooooooooooooooooooooooooooooooooooooooooooooo",
"oooooooooooooooooooooooooooooooooooooooooooooooooooooooooooooooooooooooooooooooooooooooooooooooooooo",
"oooooooooooooooooooooooooooooooooooooooooooooooooooooooooooooooooooooooooooooooooooooooooooooooooooo",
"oooooooooooooooooooooooooooooooooooooooooooooooooooooooooooooooooooooooooooooooooooooooooooooooooooo",
"oooooooooooooooooooooooooooooooooooooooooooooooooooooooooooooooooooooooooooooooooooooooooooooooooooo",
"oooooooooooooooooooooooooooooooooooooooooooooooooooooooooooooooooooooooooooooooooooooooooooooooooooo",
"oooooooooooooooooooooooooooooooooooooooooooooooooooooooooooooooooooooooooooooooooooooooooooooooooooo",
"oooooooooooooooooooooooooooooooooooooooooooooooooooooooooooooooooooooooooooooooooooooooooooooooooooo",
"oooooooooooooooooooooooooooooooooooooooooooooooooooooooooooooooooooooooooooooooooooooooooooooooooooo",
"ooooooooooooooooooooooooooooooooooooooooooooooooXXXooooooooooooooooooooooooooooooooooooooooooooooooo",
"oooooooooooooooooooooooooooooooooooooooooooooooXXXXXXooooooooooooooooooooooooooooooooooooooooooooooo",
"ooooooooooooooooooooooooooooooooooooooooooooooXXXXXXXXoooooooooooooooooooooooooooooooooooooooooooooo",
"ooooooooooooooooooooooooooooooooooooooooooooooXXXXXXXXoooooooooooooooooooooooooooooooooooooooooooooo",
"ooooooooooooooooooooooooooooooooooooooooooooooXXXXXXXXoooooooooooooooooooooooooooooooooooooooooooooo",
"oooooooooooooooooooooooooooooooooooooooooooooooXXXXXXXoooooooooooooooooooooooooooooooooooooooooooooo",
"oooooooooooooooooooooooooooooooooooooooooooooooXXXXXXXoooooooooooooooooooooooooooooooooooooooooooooo",
"ooooooooooooooooooooooooooooooooooooooooooooooooXXXXXooooooooooooooooooooooooooooooooooooooooooooooo",
"oooooooooooooooooooooooooooooooooooooooooooooooooXXooooooooooooooooooooooooooooooooooooooooooooooooo",
"oooooooooooooooooooooooooooooooooooooooooooooooooooooooooooooooooooooooooooooooooooooooooooooooooooo",
"oooooooooooooooooooooooooooooooooooooooooooooooooooooooooooooooooooooooooooooooooooooooooooooooooooo",
"oooooooooooooooooooooooooooooooooooooooooooooooooooooooooooooooooooooooooooooooooooooooooooooooooooo"
};
