/* XPM */
static char *result[] = {
/* columns rows colors chars-per-pixel */
"100 100 4 1 ",
"  c #3A3F5E",
". c #4C6885",
"X c #A3A7C2",
"o c None",
/* pixels */
"oooooooooooooooooooooooooooooooooooooooooooooooooooooooooooooooooooooooooooooooooooooooooooooooooooo",
"oooooooooooooooooooooooooooooooooooooooooooooooooooooooooooooooooooooooooooooooooooooooooooooooooooo",
"oooooooooooooooooooooooooooooooooooooooooooooooooooooooooooooooooooooooooooooooooooooooooooooooooooo",
"oooooooooooooooooooooooooooooooooooooooooooooooooooooooooooooooooooooooooooooooooooooooooooooooooooo",
"oooooooooooooooooooooooooooooooooooooooooooooooooooooooooooooooooooooooooooooooooooooooooooooooooooo",
"oooooooooooooooooooooooooooooooooooooooooooooooooooooooooooooooooooooooooooooooooooooooooooooooooooo",
"oooooooooooooooooooooooooooooooooooooooooooooooooooooooooooooooooooooooooooooooooooooooooooooooooooo",
"oooooooooooooooooooooooooooooooooooooooooooooooooooooooooooooooooooooooooooooooooooooooooooooooooooo",
"oooooooooooooooooooooooooooooooooooooooooooooooooooooooooooooooooooooooooooooooooooooooooooooooooooo",
"oooooooooooooooooooooooooooooooooooooooooooooooooooooooooooooooooooooooooooooooooooooooooooooooooooo",
"oooooooooooooooooooooooooooooooooooooooooooooooooooooooooooooooooooooooooooooooooooooooooooooooooooo",
"oooooooooooooooooooooooooooooooooooooooooooooooooooooooooooooooooooooooooooooooooooooooooooooooooooo",
"oooooooooooooooooooooooooooooooooooooooooooooooooooooooooooooooooooooooooooooooooooooooooooooooooooo",
"oooooooooooooooooooooooooooooooooooooooooooooooooooooooooooooooooooooooooooooooooooooooooooooooooooo",
"oooooooooooooooooooooooooooooooooooooooooooooooooooooooooooooooooooooooooooooooooooooooooooooooooooo",
"oooooooooooooooooooooooooooooooooooooooooooooooooooooooooooooooooooooooooooooooooooooooooooooooooooo",
"oooooooooooooooooooooooooooooooooooooooooooooooooooooooooooooooooooooooooooooooooooooooooooooooooooo",
"oooooooooooooooooooooooooooooooooooooooooooooooooooooooooooooooooooooooooooooooooooooooooooooooooooo",
"oooooooooooooooooooooooooooooooooooooooooooooooooooooooooooooooooooooooooooooooooooooooooooooooooooo",
"oooooooooooooooooooooooooooooooooooooooooooooooooooooooooooooooooooooooooooooooooooooooooooooooooooo",
"oooooooooooooooooooooooooooooooooooooooooooooooooooooooooooooooooooooooooooooooooooooooooooooooooooo",
"oooooooooooooooooooooooooooooooooooooooooooooooooooooooooooooooooooooooooooooooooooooooooooooooooooo",
"oooooooooooooooooooooooooooooooooooooooooooooooooooooooooooooooooooooooooooooooooooooooooooooooooooo",
"oooooooooooooooooooooooooooooooooooooooooooooooooooooooooooooooooooooooooooooooooooooooooooooooooooo",
"oooooooooooooooooooooooooooooooooooooooooooooooooooooooooooooooooooooooooooooooooooooooooooooooooooo",
"oooooooooooooooooooooooooooooooooooooooooooooooooooooooooooooooooooooooooooooooooooooooooooooooooooo",
"oooooooooooooooooooooooooooooooooooooooooooooooooooooooooooooooooooooooooooooooooooooooooooooooooooo",
"oooooooooooooooooooooooooooooooooooooooooooooooooooooooooooooooooooooooooooooooooooooooooooooooooooo",
"oooooooooooooooooooooooooooooooooooooooooooooooooooooooooooooooooooooooooooooooooooooooooooooooooooo",
"oooooooooooooooooooooooooooooooooooooooooooooooooooooooooooooooooooooooooooooooooooooooooooooooooooo",
"oooooooooooooooooooooooooooooooooooooooooooooooooooooooooooooooooooooooooooooooooooooooooooooooooooo",
"oooooooooooooooooooooooooooooooooooooooooooooooooooooooooooooooooooooooooooooooooooooooooooooooooooo",
"oooooooooooooooooooooooooooooooooooooooooooooooooooooooooooooooooooooooooooooooooooooooooooooooooooo",
"ooooooooooooooooooooooooooooooooooooooooXX....  XXXXXX .    XXXooooooooooooooooooooooooooooooooooooo",
"ooooooooooooooooooooooooooooooooooooooXXXXX     XXXXXXX     XXXXXooooooooooooooooooooooooooooooooooo",
"ooooooooooooooooooooooooooooooooooooXXXXXXXX   X...XXXXXXXXXXXXXXooooooooooooooooooooooooooooooooooo",
"ooooooooooooooooooooooooooooooooooooXXXXX.X.X.X.....X.XXXXXXXXXXXXoooooooooooooooooooooooooooooooooo",
"oooooooooooooooooooooooooooooooooooXXXXX.X.X.X.........XXXXXXXXXXXXooooooooooooooooooooooooooooooooo",
"oooooooooooooooooooooooooooooooooooXXXX.X.X.X...........XXXXXXXXX...oooooooooooooooooooooooooooooooo",
"oooooooooooooooooooooooooooooooooooXXX.X.X.X.............XXXXXXX....oooooooooooooooooooooooooooooooo",
"oooooooooooooooooooooooooooooooooooXX.X.X.X.X.............XXXXXXX....ooooooooooooooooooooooooooooooo",
"oooooooooooooooooooooooooooooooooooXX..X.X.X....... .....X.XXXXX......oooooooooooooooooooooooooooooo",
"oooooooooooooooooooooooooooooooooooXX.X.X.X....... . .....XXXXX.X.....oooooooooooooooooooooooooooooo",
"oooooooooooooooooooooooooooooooooooXXX.X.X.X.....   . ...X.XXXXX..... .ooooooooooooooooooooooooooooo",
"ooooooooooooooooooooooooooooooooooo...X.X.X.....     .....XXXXX..... . ooooooooooooooooooooooooooooo",
"ooooooooooooooooooooooooooooooooooo.... XX.X.....   .....  XXXXX.....  ooooooooooooooooooooooooooooo",
"ooooooooooooooooooooooooooooooooooo.... XXX.....   ....... XXXX........ooooooooooooooooooooooooooooo",
"oooooooooooooooooooooooooooooooooo.....  XXX.....  .......  XXXX.......ooooooooooooooooooooooooooooo",
"oooooooooooooooooooooooooooooooooo.....  XXXX...  .......   XXXXX......ooooooooooooooooooooooooooooo",
"oooooooooooooooooooooooooooooooooo....   XXX.....  ......   XXXXX......ooooooooooooooooooooooooooooo",
"oooooooooooooooooooooooooooooooooo...   XXXXX...   .....   XXXXXX.....oooooooooooooooooooooooooooooo",
"ooooooooooooooooooooooooooooooooo...    XXXXXX...          XXXXXX.....oooooooooooooooooooooooooooooo",
"oooooooooooooooooooooooooooooooooX..   XXXXXX...          XXXXXXX.     ooooooooooooooooooooooooooooo",
"ooooooooooooooooooooooooooooXXXXXX..  XXXXXXXX...   ...XXXXXXXXXX..    ooooooooooooooooooooooooooooo",
"oooooooooooooooooooooooooXXXXXXXXX    XXXXXXX...     ...XXXXXXXXX..    ooooooooooooooooooooooooooooo",
"oooooooooooooooooooooooooXXXXXXXXX   XXXXXXX.....   ...XXXXXXXXX...    ooooooooooooooooooooooooooooo",
"ooooooooooooooooooooooooooXXXXXX....XXXXXXXXX...   ....XXXXXXXXX..     ooooooooooooooooooooooooooooo",
"ooooooooooooooooooooooooooooX........XXXXX.....     ...XXXXXXXXX..     ooooooooooooooooooooooooooooo",
"oooooooooooooooooooooooooooooooo .....X.X.....     ...XXXXXXXXX...     ooooooooooooooooooooooooooooo",
"oooooooooooooooooooooooooooooooooo...........     .....XXXXXXX...      ooooooooooooooooooooooooooooo",
"ooooooooooooooooooooooooooooooooooo...........     ...XXXXXXX...       ooooooooooooooooooooooooooooo",
"ooooooooooooooooooooooooooooooooooo.......... . . .....XXXXX.....     oooooooooooooooooooooooooooooo",
"oooooooooooooooXXXoooooooooooooooooo.......... . .....XXXXX.....      oooooooooooooooooooooooooooooo",
"ooooooooooooooooXoooooooooooooooooooo..................X.X.......     oooooooooooooooooooooooooooooo",
"oooooooooooooooooooooooooooooooooooooX............................    oooooooooooooooooooooooooooooo",
"ooooooooooooooooooooooooooooooooooooooX............................   oooooooooooooooooooooooooooooo",
"ooooooooooooooooooooooooooooooooooooooooX......................... .  oooooooooooooooooooooooooooooo",
"ooooooooooooooooooooooooooooooooooooooooooo.. . ................. .   oooooooooooooooooooooooooooooo",
"oooooooooooooooooooooooooooooooooooooooooooooooo . . . . . . . . . .  oooooooooooooooooooooooooooooo",
"ooooooooooooooooooooooooooooooooooooooooooooooooooooo       . . . . .ooooooooooooooooooooooooooooooo",
"ooooooooooooooooooooooooooooooooooooooooooooooooooooooooo           oooooooooooooooooooooooooooooooo",
"oooooooooooooooooooooooooooooooooooooooooooooooooooooooooooooooooooooooooooooooooooooooooooooooooooo",
"oooooooooooooooooooooooooooooooooooooooooooooooooooooooooooooooooooooooooooooooooooooooooooooooooooo",
"oooooooooooooooooooooooooooooooooooooooooooooooooooooooooooooooooooooooooooooooooooooooooooooooooooo",
"oooooooooooooooooooooooooooooooooooooooooooooooooooooooooooooooooooooooooooooooooooooooooooooooooooo",
"oooooooooooooooooooooooooooooooooooooooooooooooooooooooooooooooooooooooooooooooooooooooooooooooooooo",
"oooooooooooooooooooooooooooooooooooooooooooooooooooooooooooooooooooooooooooooooXXXoooooooooooooooooo",
"oooooooooooooooooooooooooooooooooooooooooooooooooooooooooooooooooooooooooooooXXXXXXooooooooooooooooo",
"ooooooooooooooooooooooooooooooooooooooooooooooooooooooooooooooooooooooooooooXXXXXXXooooooooooooooooo",
"ooooooooooooooooooooooooooooooooooooooooooooooooooooooooooooooooooooooooooooXXXXXXXXoooooooooooooooo",
"ooooooooooooooooooooooooooooooooooooooooooooooooooooooooooooooooooooooooooooXXXXXXXXoooooooooooooooo",
"ooooooooooooooooooooooooooooooooooooooooooooooooooooooooooooooooooooooooooooXXXXXXXXoooooooooooooooo",
"oooooooooooooooooooooooooooooooooooooooooooooooooooooooooooooooooooooooooooooXXXXXXXoooooooooooooooo",
"ooooooooooooooooooooooooooooooooooooooooooooooooooooooooooooooooooooooooooooooXXXXXooooooooooooooooo",
"oooooooooooooooooooooooooooooooooooooooooooooooooooooooooooooooooooooooooooooooooooooooooooooooooooo",
"oooooooooooooooooooooooooooooooooooooooooooooooooooooooooooooooooooooooooooooooooooooooooooooooooooo",
"oooooooooooooooooooooooooooooooooooooooooooooooooooooooooooooooooooooooooooooooooooooooooooooooooooo",
"oooooooooooooooooooooooooooooooooooooooooooooooooooooooooooooooooooooooooooooooooooooooooooooooooooo",
"oooooooooooooooooooooooooooooooooooooooooooooooooooooooooooooooooooooooooooooooooooooooooooooooooooo",
"oooooooooooooooooooooooooooooooooooooooooooooooooooooooooooooooooooooooooooooooooooooooooooooooooooo",
"oooooooooooooooooooooooooooooooooooooooooooooooooooooooooooooooooooooooooooooooooooooooooooooooooooo",
"oooooooooooooooooooooooooooooooooooooooooooooooooooooooooooooooooooooooooooooooooooooooooooooooooooo",
"oooooooooooooooooooooooooooooooooooooooooooooooooooooooooooooooooooooooooooooooooooooooooooooooooooo",
"oooooooooooooooooooooooooooooooooooooooooooooooooooooooooooooooooooooooooooooooooooooooooooooooooooo",
"oooooooooooooooooooooooooooooooooooooooooooooooooooooooooooooooooooooooooooooooooooooooooooooooooooo",
"oooooooooooooooooooooooooooooooooooooooooooooooooooooooooooooooooooooooooooooooooooooooooooooooooooo",
"oooooooooooooooooooooooooooooooooooooooooooooooooooooooooooooooooooooooooooooooooooooooooooooooooooo",
"oooooooooooooooooooooooooooooooooooooooooooooooooooooooooooooooooooooooooooooooooooooooooooooooooooo",
"oooooooooooooooooooooooooooooooooooooooooooooooooooooooooooooooooooooooooooooooooooooooooooooooooooo",
"oooooooooooooooooooooooooooooooooooooooooooooooooooooooooooooooooooooooooooooooooooooooooooooooooooo"
};
