/* XPM */
static char *result[] = {
/* columns rows colors chars-per-pixel */
"64 64 75 1 ",
"  c #363455",
". c #383857",
"X c #373858",
"o c #393C5C",
"O c #3C3E60",
"+ c #3B405F",
"@ c #1D4565",
"# c #3D4563",
"$ c #3E4967",
"% c #3F4D6A",
"& c #2F5A78",
"* c #325376",
"= c #3F5270",
"- c #315A79",
"; c #3A5D7B",
": c #3D607E",
"> c #414664",
", c #404768",
"< c #404C6B",
"1 c #42516E",
"2 c #4D516D",
"3 c #435572",
"4 c #455975",
"5 c #465C79",
"6 c #485D7B",
"7 c #45617E",
"8 c #4A617E",
"9 c #3F6483",
"0 c #456482",
"q c #4A6683",
"w c #466886",
"e c #4D6986",
"r c #4E6B89",
"t c #506A87",
"y c #536D8B",
"u c #586F8B",
"i c #54718F",
"p c #5C728E",
"a c #547292",
"s c #5F7592",
"d c #627692",
"f c #667995",
"g c #697A96",
"h c #6E7E9A",
"j c #707F9B",
"k c #6F819E",
"l c #74839E",
"z c #7584A0",
"x c #7986A1",
"c c #7D89A4",
"v c #7F8DAA",
"b c #808CA7",
"n c #888AA4",
"m c #838EA9",
"M c #8691AC",
"N c #8A93AE",
"B c #8F97B1",
"V c #9097B2",
"C c #939AB5",
"Z c #979DB8",
"A c #999EBA",
"S c #9CA1BC",
"D c #A0A4BF",
"F c #9FA5C1",
"G c #A3A7C2",
"H c #A5A9C4",
"J c #A9ACC7",
"K c #AAAECA",
"L c #ADB1CD",
"P c #AFB3D0",
"I c #B1B6D3",
"U c #B5B9D7",
"Y c #B7BBDA",
"T c #BBBEDC",
"R c None",
/* pixels */
"RRRRRRRRRRRRRRRRRRRRRRRRRRRRRRRRRRRRRRRRRRRRRRRRRRRRRRRRRRRRRRRR",
"RRRRRRRRRRRRRRRRRRRRRRRRRRRRRRRRRRRRRRRRRRRRRRRRRRRRRRRRRRRRRRRR",
"RRRRRRRRRRRRRRRRRRRRRRRRRRRRRRRRRRRRRRRRRRRRRRRRRRRRRRRRRRRRRRRR",
"RRRRRRRRRRRRRRRRRRRRRRRRRRRRRRRRRRRRRRRRRRRRRRRRRRRRRRRRRRRRRRRR",
"RRRRRRRRRRRRRRRRRRRRRRRRRRRRRRRRRRRRRRRRRRRRRRRRRRRRRRRRRRRRRRRR",
"RRRRRRRRRRRRRRRRRRRRRRRRRRRRRRRRRRRRRRRRRRRRRRRRRRRRRRRRRRRRRRRR",
"RRRRRRRRRRRRRRRRRRRRRRRRRRRRRRRRRRRRRRRRRRRRRRRRRRRRRRRRRRRRRRRR",
"RRRRRRRRRRRRRRRRRRRRRRRRRRRRRRRRRRRRRRRRRRRRRRRRRRRRRRRRRRRRRRRR",
"RRRRRRRRRRRRRRRRRRRRRRRRRRRRRRRRRRRRRRRRRRRRRRRRRRRRRRRRRRRRRRRR",
"RRRRRRRRRRRRRRRRRRRRRRRRRRRRRRRRRRRRRRRRRRRRRRRRRRRRRRRRRRRRRRRR",
"RRRRRRRRRRRRRRRRRRRRRRRRRRRRRRRRRRRRRRRRRRRRRRRRRRRRRRRRRRRRRRRR",
"RRRRRRRRRRRGLJGRRRRRRRRRRRRRRRRRRRRRRRRRRRRRRRRRRRRRRRRRRRRRRRRR",
"RRRRRRRRRRRPGHKZRRRRRRRRRRRRRRRRRRRRRRRRRRRRRRRRRRRRRRRRRRRRRRRR",
"RRRRRRRRRRRGGHz:RRRRRRRRRRRRRRRRRRRRRRRRRRRRRRRRRRRRRRRRRRRRRRRR",
"RRRRRRRRRRRGTm*>RRRRRRRRRRRRRRRRRRRRRRRRRRRRRRRRRRRRRRRRRRRRRRRR",
"RRRRRRRRRRRRSpRRRRRRRRRRRRRRRRRRRRRRRRRRRRRRRRRRRRRRRRRRRRRRRRRR",
"RRRRRRRRRRRRRRRRRRRRRRRRRRRRRRRRRRRRRRRRRRRRRRRRRRRRRRRRRRRRRRRR",
"RRRRRRRRRRRRRRRRRRRRRRRRRRRRRRRRRRRRRRRRRRRRRRRRRRRRRRRRRRRRRRRR",
"RRRRRRRRRRRRRRRRRRRRRRRRRRRRRRRRRRRRRRRRRRRRRRRRRRRRRRRRRRRRRRRR",
"RRRRRRRRRRRRRRRRRRRRReqSHGHGRRRRRRRRRRRRRRRRRRRRRRRRRRRRRRRRRRRR",
"RRRRRRRRRRRRRRRRRRRRearsHLJLJPHRGRRRRRRRRRRRRRRRRRRRRRRRRRRRRRRR",
"RRRRRRRRRRRRRRRRRRRRv-wzcAJScSJIILGHGRRRRRRRRRRRRRRRRRRRRRRRRRRR",
"RRRRRRRRRRRRRRRRRRRRSlhMbcZbmbGHHHJJJLLGRRRRRRRRRRRRRRRRRRRRRRRR",
"RRRRRRRRRRRRRRRRRRRRKVNcmmhllllllzzMSSAYJRRRRRRRRRRRRRRRRRRRRRRR",
"RRRRRRRRRRRRRRRRRRRRJHHBcf90q070000dppigzRRRRRRRRRRRRHGRRRRRRRRR",
"RRRRRRRRRRRRRRRRRRRRJGHHm9qeeereeeeqqqq00aRRRRRRRRRRRRRRRRRRRRRR",
"RRRRRRRRRRRRRRRRRRRGKHGGHceqeq3455eeeq0tetqRRRRRRRRRRRRRRRRRRRRR",
"RRRRRRRRRRRRRRRRRRRHKGGGDMdqe$oX$4qq7df0erwkGRRRRRRRRRRRRRRRRRRR",
"RRRRRRRRRRRRRRRRRRRGJHGGHAy0,X+#.17llmg0t8q:SUHGRRRRRRRRRRRRRRRR",
"RRRRRRRRRRRRRRRRRRRHLHHGHAp7#++o$q0lSBpq6X#qfLHYGRRRRRRRRRRRRRRR",
"RRRRRRRRRRRRRRRRRRR22nSHGme3o++o#7pNDp0r#<03wBJRRRRRRRRRRRRRRRRR",
"RRRRRRRRRRRRRRRRRRRR6@mJDq3Xo++o1wfmbiq% 3iRRRRRRRRRRRRRRRRRRRRR",
"RRRRRRRRRRRRRRRRRRRRi0MJNe$.1eqq4ycmle1.=eeRRRRRRRRRRRRRRRRRRRRR",
"RRRRRRRRRRRRRRRRRRRei;NLl;>+qeqeqybmf01#ereRRRRRRRRRRRRRRRRRRRRR",
"RRRRRRRRRRRRRRRRRRR09bHSd7+3tqee7ybbgw1<rreRRRRRRRRRRRRRRRRRRRRR",
"RRRRRRRRRRRRRRRRRRRZFHHSp7#+ere37qZSfq7%eaRRRRRRRRRRRRRRRRRRRRRR",
"RRRRRRRRRRRRRRRRRRRHLGGSp7$o34<+eeCHd78+<6RRRRRRRRRRRRRRRRRRRRRR",
"RRRRRRRRRRRRRRRRRRRRIGGCpw5oXXX1eqCDlte1.ORRRRRRRRRRRRRRRRRRRRRR",
"RRRRRRRRRRRRRRRRRRRRGHGMpq4o+#o3qtCDcie1o>RRRRRRRRRRRRRRRRRRRRRR",
"RRRRRRRRRRRRRRRRRRRRRSMp7y4oOX$qqeCZd7e5$#RRRRRRRRRRRRRRRRRRRRRR",
"RRRRRRRRRRRRRRRRRRRRRRM-tq3o#o#0eicbfw04<<RRRRRRRRRRRRRRRRRRRRRR",
"RRRRRRRRRRRRRRRRRRRRRRRcq0oooo$5eet45y63e4RRRRRRRRRRRRRRRRRRRRRR",
"RRRRRRRRRRRRRRRRRRRRRRRCwy,#,,,50y,>4yq4RRRRRRRRRRRRRRRRRRRRRRRR",
"RRRRRRRRRRRRRRRRRRRRRRRRRr,X14 $44+8t43RRRRRRRRRRRRRRRRRRRRRRRRR",
"RRRRRRRRRRRRRRRRRRRRRRRRRRRRRRRRRRRRRRRRRRRRRRRRRRRRRRRRRRRRRRRR",
"RRRRRRRRRRRRRRRRRRRRRRRRRRRRRRRRRRRRRRRRRRRRRRRRRRRRRRRRRRRRRRRR",
"RRRRRRRRRRRRRRRRRRRRRRRRRRRRRRRRRRRRRRRRRRRRRRRRRRRRRRRRRRRRRRRR",
"RRRRRRRRRRRRRRRRRRRRRRRRRRRRRRRRRRRRRRRRRRRRRRRRRRRRRRRRRRRRRRRR",
"RRRRRRRRRRRRRRRRRRRRRRRRRRRRRRRRRRRRRRRRRRRRRRRRRRRRRRRRRRRRRRRR",
"RRRRRRRRRRRRRRRRRRRRRRRRRRRRRRRRRRRRRRRRRRRRRRRRRRRRRRRRRRRRRRRR",
"RRRRRRRRRRRRRRRRRRRRRRRRRRRRRRRRRRRRRRRRRRRRRRRRRRRRRRRRRRRRRRRR",
"RRRRRRRRRRRRRRRRRRRRRRRRRRRRRRRRRRRRRRRRRRRRRRRRRRRRRRRRRRRRRRRR",
"RRRRRRRRRRRRRRRRRRRRRRRRRRRRRRRRRRRRRRRRRRRRRRRRRRRRRRRRRRRRRRRR",
"RRRRRRRRRRRRRRRRRRRRRRRRRRRRRRRRRRRRRRRRRRRRRRRRRRRRRRRRRRRRRRRR",
"RRRRRRRRRRRRRRRRRRRRRRRRRRRRRRRRRRRRRRRRRRRRRRRRRRRRRRRRRRRRRRRR",
"RRRRRRRRRRRRRRRRRRRRRRRRRRRRRRRRRRRRRRRRRRRRRRRRRRRRRRRRRRRRRRRR",
"RRRRRRRRRRRRRRRRRRRRRRRRRRRRRRRRRRRRRRRRRRRRRRRRRRRRRRRRRRRRRRRR",
"RRRRRRRRRRRRRRRRRRRRRRRRRRRRRRRRRRRRRRRRRRRRRRRRRRRRRRRRRRRRRRRR",
"RRRRRRRRRRRRRRRRRRRRRRRRRRRRRRRRRRRRRRRRRRRRRRRRRRRRRRRRRRRRRRRR",
"RRRRRRRRRRRRRRRRRRRRRRRRRRRRRRRRRRRRRRRRRRRRRRRRRRRRRRRRRRRRRRRR",
"RRRRRRRRRRRRRRRRRRRRRRRRRRRRRRRRRRRRRRRRRRRRRRRRRRRRRRRRRRRRRRRR",
"RRRRRRRRRRRRRRRRRRRRRRRRRRRRRRRRRRRRRRRRRRRRRRRRRRRRRRRRRRRRRRRR",
"RRRRRRRRRRRRRRRRRRRRRRRRRRRRRRRRRRRRRRRRRRRRRRRRRRRRRRRRRRRRRRRR",
"RRRRRRRRRRRRRRRRRRRRRRRRRRRRRRRRRRRRRRRRRRRRRRRRRRRRRRRRRRRRRRRR"
};
