/* XPM */
static char *result[] = {
/* columns rows colors chars-per-pixel */
"100 100 4 1 ",
"  c #3A3F5E",
". c #4C6885",
"X c #A3A7C2",
"o c None",
/* pixels */
"oooooooooooooooooooooooooooooooooooooooooooooooooooooooooooooooooooooooooooooooooooooooooooooooooooo",
"oooooooooooooooooooooooooooooooooooooooooooooooooooooooooooooooooooooooooooooooooooooooooooooooooooo",
"oooooooooooooooooooooooooooooooooooooooooooooooooooooooooooooooooooooooooooooooooooooooooooooooooooo",
"oooooooooooooooooooooooooooooooooooooooooooooooooooooooooooooooooooooooooooooooooooooooooooooooooooo",
"oooooooooooooooooooooooooooooooooooooooooooooooooooooooooooooooooooooooooooooooooooooooooooooooooooo",
"oooooooooooooooooooooooooooooooooooooooooooooooooooooooooooooooooooooooooooooooooooooooooooooooooooo",
"oooooooooooooooooooooooooooooooooooooooooooooooooooooooooooooooooooooooooooooooooooooooooooooooooooo",
"oooooooooooooooooooooooooooooooooooooooooooooooooooooooooooooooooooooooooooooooooooooooooooooooooooo",
"oooooooooooooooooooooooooooooooooooooooooooooooooooooooooooooooooooooooooooooooooooooooooooooooooooo",
"oooooooooooooooooooooooooooooooooooooooooooooooooooooooooooooooooooooooooooooooooooooooooooooooooooo",
"oooooooooooooooooooooooooooooooooooooooooooooooooooooooooooooooooooooooooooooooooooooooooooooooooooo",
"oooooooooooooooooooooooooooooooooooooooooooooooooooooooooooooooooooooooooooooooooooooooooooooooooooo",
"oooooooooooooooooooooooooooooooooooooooooooooooooooooooooooooooooooooooooooooooooooooooooooooooooooo",
"oooooooooooooooooooooooooooooooooooooooooooooooooooooooooooooooooooooooooooooooooooooooooooooooooooo",
"oooooooooooooooooooooooooooooooooooooooooooooooooooooooooooooooooooooooooooooooooooooooooooooooooooo",
"oooooooooooooooooooooooooooooooooooooooooooooooooooooooooooooooooooooooooooooooooooooooooooooooooooo",
"oooooooooooooooooooooooooooooooooooooooooooooooooooooooooooooooooooooooooooooooooooooooooooooooooooo",
"oooooooooooooooooooooooooooooooooooooooooooooooooooooooooooooooooXXooooooooooooooooooooooooooooooooo",
"oooooooooooooooooooooooooooooooooooooooooooooooooooooooooooooooooXXooooooooooooooooooooooooooooooooo",
"oooooooooooooooooooooooooooooooooooooooooooooooooooooooooooooooooooooooooooooooooooooooooooooooooooo",
"oooooooooooooooooooooooooooooooooooooooooooooooooooooooooooooooooooooooooooooooooooooooooooooooooooo",
"oooooooooooooooooooooooooooooooooooooooooooooooooooooooooooooooooooooooooooooooooooooooooooooooooooo",
"oooooooooooooooooooooooooooooooooooooooooooooooooooooooooooooooooooooooooooooooooooooooooooooooooooo",
"oooooooooooooooooooooooooooooooooooooooooooooooooooooooooooooooooooooooooooooooooooooooooooooooooooo",
"oooooooooooooooooooooooooooooooooooooooooooooooooooooooooooooooooooooooooooooooooooooooooooooooooooo",
"oooooooooooooooooooooooooooooooooooooooooooooooooooooooooooooooooooooooooooooooooooooooooooooooooooo",
"oooooooooooooooooooooooooooooooooooooooooooooooooooooooooooooooooooooooooooooooooooooooooooooooooooo",
"oooooooooooooooooooooooooooooooooooooooooooooooooooooooooooooooooooooooooooooooooooooooooooooooooooo",
"oooooooooooooooooooooooooooooooooooooooooooooooooooooooooooooooooooooooooooooooooooooooooooooooooooo",
"ooooooooooooooooooooooooooooooooooooooooooooooooooooooooooooooXXXooooooooooooooooooooooooooooooooooo",
"ooooooooooooooooooooooooooooooooooooooooooooooooooooooooooooXXXXXooooooooooooooooooooooooooooooooooo",
"ooooooooooooooooooooooooooooooooooooooooooooooooXXXooooooooXXXXXXooooooooooooooooooooooooooooooooooo",
"oooooooooooooooooooooooooooooooooooooooooooooXXXXXXXXXXXXXXXXXXXoooooooooooooooooooooooooooooooooooo",
"oooooooooooooooooooooooooooooooooooooooooooXXXXXXXXXXXXXXXXXXXXooooooooooooooooooooooooooooooooooooo",
"ooooooooooooooooooooooooooooooooooooooooooXXXXXXXXX.X.....XXXXXooooooooooooooooooooooooooooooooooooo",
"oooooooooooooooooooooooooooooooooooooooooXXXXXXXXX.X..........oooooooooooooooooooooooooooooooooooooo",
"oooooooooooooooooooooooooooooooooooooooXXXXXXXXXXXX.X.X..  ...oooooooooooooooooooooooooooooooooooooo",
"oooooooooooooooooooooooooooooooooooooXXXXXXXXXXXXX.X.X.X   ...oooooooooooooooooooooooooooooooooooooo",
"ooooooooooooooooooooooooooooooooooooXXXXXXXXXXXXX.X.X.X.X  ...oooooooooooooooooooooooooooooooooooooo",
"ooooooooooooooooooooooooooooooooooXXXXXXXXXXXXXX.XXXXXXX..  ...ooooooooooooooooooooooooooooooooooooo",
"oooooooooooooooooooooooooooooooooXXXXXXXXXXXXXX.XXXXXXX.X   ...ooooooooooooooooooooooooooooooooooooo",
"oooooooooooooooooooooooooooooooXXXXXXXXXXXXXXX.X.XXXXXXX.   ....oooooooooooooooooooooooooooooooooooo",
"ooooooooooooooooooooooooooooooXXXXXXXXXXXXXXX...XXXXXXX..   .....ooooooooooooooooooooooooooooooooooo",
"ooooooooooooooooooooooooooooXXXXXXXXXXXXXXXX.....XXXXX....  ......oooooooooooooooooooooooooooooooooo",
"oooooooooooooooooooooooooooXXXXXXXXXXXXXXXX.......XXX.....   .....oooooooooooooooooooooooooooooooooo",
"oooooooooooooooooooooooooooXXXXXXXXXXXXXXX.........X.......   .....ooooooooooooooooooooooooooooooooo",
"ooooooooXXXoooooooooooooooXXXXXXXXXXXXXXX... . ........... . .......oooooooooooooooooooooooooooooooo",
"ooooooXXXXXXoooooooooooooXXXXXXXXXXXXX.X...     ......... . . ......Xooooooooooooooooooooooooooooooo",
"oooooXXXXXXXXoooooooooooXXXXXXXXXXXXX.X...       ....... . . ........Xoooooooooooooooooooooooooooooo",
"ooooXXXXXXXXXoooooooooooXXXXXXXXXX.X.X.....       . . . . . .........XXooooooooooooooooooooooooooooo",
"ooooXXXXXXX..oooooooooooXXXXXXXXX.X.......         . . . . . .........Xooooooooooooooooooooooooooooo",
"oooooXXXXX..ooooooooooooXXXX.X.X.X.........     ..... . . . ...........ooooooooooooooooooooooooooooo",
"oooooXXXX.. oooooooooooooX....X.....X.X.....   ..... . . ..............ooooooooooooooooooooooooooooo",
"ooooooXX.. ooooooooooooooo.........X.X.X....   ........................ooooooooooooooooooooooooooooo",
"ooooooooooooooooooooooooooo.........XXXXX...   ................. . . .oooooooooooooooooooooooooooooo",
"oooooooooooooooooooooooooooo.......XXXXX....   .................. . . oooooooooooooooooooooooooooooo",
"oooooooooooooooooooooooooooo........XXXXX...   .................     ooooooooooooooooooooooooooooooo",
"ooooooooooooooooooooooooooooo......X.XXX.....  ................    .oooooooooooooooooooooooooooooooo",
"oooooooooooooooooooooooooooooo......X.X.....    ................  ..oooooooooooooooooooooooooooooooo",
"ooooooooooooooooooooooooooooooo............       ..............  .ooooooooooooooooooooooooooooooooo",
"oooooooooooooooooooooooooooooooo....  ....       ............... ooooooooooooooooooooooooooooooooooo",
"ooooooooooooooooooooooooooooooooo..  ....         ............. oooooooooooooooooooooooooooooooooooo",
"oooooooooooooooooooooooooooooooooo  ......       ..............ooooooooooooooooooooooooooooooooooooo",
"ooooooooooooooooooooooooooooooooooo .....       . ............oooooooooooooooooooooooooooooooooooooo",
"oooooooooooooooooooooooooooooooooooo......     . ............ooooooooooooooooooooooooooooooooooooooo",
"ooooooooooooooooooooooooooooooooooooo.... . . . . .......   oooooooooooooooooooooooooooooooooooooooo",
"oooooooooooooooooooooooooooooooooooooo...... . . . . . .  .ooooooooooooooooooooooooooooooooooooooooo",
"ooooooooooooooooooooooooooooooooooooooo...... . . . . .   oooooooooooooooooooooooooooooooooooooooooo",
"oooooooooooooooooooooooooooooooooooooooo...... . . .     ooooooooooooooooooooooooooooooooooooooooooo",
"oooooooooooooooooooooooooooooooooooooooooX... . .       oooooooooooooooooooooooooooooooooooooooooooo",
"ooooooooooooooooooooooooooooooooooooooooooo. .         ooooooooooooooooooooooooooooooooooooooooooooo",
"oooooooooooooooooooooooooooooooooooooooooooooooooo   ooooooooooooooooooooooooooooooooooooooooooooooo",
"oooooooooooooooooooooooooooooooooooooooooooooooooooooooooooooooooooooooooooooooooooooooooooooooooooo",
"oooooooooooooooooooooooooooooooooooooooooooooooooooooooooooooooooooooooooooooooooooooooooooooooooooo",
"oooooooooooooooooooooooooooooooooooooooooooooooooooooooooooooooooooooooooooooooooooooooooooooooooooo",
"oooooooooooooooooooooooooooooooooooooooooooooooooooooooooooooooooooooooooooooooooooooooooooooooooooo",
"oooooooooooooooooooooooooooooooooooooooooooooooooooooooooooooooooooooooooooooooooooooooooooooooooooo",
"oooooooooooooooooooooooooooooooooooooooooooooooooooooooooooooooooooooooooooooooooooooooooooooooooooo",
"oooooooooooooooooooooooooooooooooooooooooooooooooooooooooooooooooooooooooooooooooooooooooooooooooooo",
"oooooooooooooooooooooooooooooooooooooooooooooooooooooooooooooooooooooooooooooooooooooooooooooooooooo",
"oooooooooooooooooooooooooooooooooooooooooooooooooooooooooooooooooooooooooooooooooooooooooooooooooooo",
"oooooooooooooooooooooooooooooooooooooooooooooooooooooooooooooooooooooooooooooooooooooooooooooooooooo",
"oooooooooooooooooooooooooooooooooooooooooooooooooooooooooooooooooooooooooooooooooooooooooooooooooooo",
"oooooooooooooooooooooooooooooooooooooooooooooooooooooooooooooooooooooooooooooooooooooooooooooooooooo",
"oooooooooooooooooooooooooooooooooooooooooooooooooooooooooooooooooooooooooooooooooooooooooooooooooooo",
"oooooooooooooooooooooooooooooooooooooooooooooooooooooooooooooooooooooooooooooooooooooooooooooooooooo",
"oooooooooooooooooooooooooooooooooooooooooooooooooooooooooooooooooooooooooooooooooooooooooooooooooooo",
"oooooooooooooooooooooooooooooooooooooooooooooooooooooooooooooooooooooooooooooooooooooooooooooooooooo",
"oooooooooooooooooooooooooooooooooooooooooooooooooooooooooooooooooooooooooooooooooooooooooooooooooooo",
"oooooooooooooooooooooooooooooooooooooooooooooooooooooooooooooooooooooooooooooooooooooooooooooooooooo",
"oooooooooooooooooooooooooooooooooooooooooooooooooooooooooooooooooooooooooooooooooooooooooooooooooooo",
"oooooooooooooooooooooooooooooooooooooooooooooooooooooooooooooooooooooooooooooooooooooooooooooooooooo",
"oooooooooooooooooooooooooooooooooooooooooooooooooooooooooooooooooooooooooooooooooooooooooooooooooooo",
"oooooooooooooooooooooooooooooooooooooooooooooooooooooooooooooooooooooooooooooooooooooooooooooooooooo",
"oooooooooooooooooooooooooooooooooooooooooooooooooooooooooooooooooooooooooooooooooooooooooooooooooooo",
"oooooooooooooooooooooooooooooooooooooooooooooooooooooooooooooooooooooooooooooooooooooooooooooooooooo",
"oooooooooooooooooooooooooooooooooooooooooooooooooooooooooooooooooooooooooooooooooooooooooooooooooooo",
"oooooooooooooooooooooooooooooooooooooooooooooooooooooooooooooooooooooooooooooooooooooooooooooooooooo",
"oooooooooooooooooooooooooooooooooooooooooooooooooooooooooooooooooooooooooooooooooooooooooooooooooooo",
"oooooooooooooooooooooooooooooooooooooooooooooooooooooooooooooooooooooooooooooooooooooooooooooooooooo"
};
