/* XPM */
static char *result[] = {
/* columns rows colors chars-per-pixel */
"100 100 4 1 ",
"  c #3A3F5E",
". c #4C6885",
"X c #A3A7C2",
"o c None",
/* pixels */
"oooooooooooooooooooooooooooooooooooooooooooooooooooooooooooooooooooooooooooooooooooooooooooooooooooo",
"oooooooooooooooooooooooooooooooooooooooooooooooooooooooooooooooooooooooooooooooooooooooooooooooooooo",
"oooooooooooooooooooooooooooooooooooooooooooooooooooooooooooooooooooooooooooooooooooooooooooooooooooo",
"oooooooooooooooooooooooooooooooooooooooooooooooooooooooooooooooooooooooooooooooooooooooooooooooooooo",
"oooooooooooooooooooooooooooooooooooooooooooooooooooooooooooooooooooooooooooooooooooooooooooooooooooo",
"oooooooooooooooooooooooooooooooooooooooooooooooooooooooooooooooooooooooooooooooooooooooooooooooooooo",
"oooooooooooooooooooooooooooooooooooooooooooooooooooooooooooooooooooooooooooooooooooooooooooooooooooo",
"oooooooooooooooooooooooooooooooooooooooooooooooooooooooooooooooooooooooooooooooooooooooooooooooooooo",
"oooooooooooooooooooooooooooooooooooooooooooooooooooooooooooooooooooooooooooooooooooooooooooooooooooo",
"oooooooooooooooooooooooooooooooooooooooooooooooooooooooooooooooooooooooooooooooooooooooooooooooooooo",
"oooooooooooooooooooooooooooooooooooooooooooooooooooooooooooooooooooooooooooooooooooooooooooooooooooo",
"oooooooooooooooooooooooooooooooooooooooooooooooooooooooooooooooooooooooooooooooooooooooooooooooooooo",
"oooooooooooooooooooooooooooooooooooooooooooooooooooooooooooooooooooooooooooooooooooooooooooooooooooo",
"oooooooooooooooooooooooooooooooooooooooooooooooooooooooooooooooooooooooooooooooooooooooooooooooooooo",
"oooooooooooooooooooooooooooooooooooooooooooooooooooooooooooooooooooooooooooooooooooooooooooooooooooo",
"oooooooooooooooooooooooooooooooooooooooooooooooooooooooooooooooooooooooooooooooooooooooooooooooooooo",
"oooooooooooooooooooooooooooooooooooooooooooooooooooooooooooooooooooooooooooooooooooooooooooooooooooo",
"oooooooooooooooooooooooooooooooooooooooooooooooooooooooooooooooooooooooooooooooXXXXooooooooooooooooo",
"oooooooooooooooooooooooooooooooooooooooooooooooooooooooooooooooooooooooooooooXXXXXXXoooooooooooooooo",
"ooooooooooooooooooooooooooooooooooooooooooooooooooooooooooooooooooooooooooooXXXXXXXXoooooooooooooooo",
"ooooooooooooooooooooooooooooooooooooooooooooooooooooooooooooooooooooooooooooXXXXXXXXoooooooooooooooo",
"ooooooooooooooooooooooooooooooooooooooooooooooooooooooooooooooooooooooooooooXXXXXXXXoooooooooooooooo",
"oooooooooooooooooooooooooooooooooooooooooooooooooooooooooooooooooooooooooooooXXXXXX.oooooooooooooooo",
"oooooooooooooooooooooooooooooooooooooooooooooooooooooooooooooooooooooooooooooXXXXX.ooooooooooooooooo",
"ooooooooooooooooooooooooooooooooooooooooooooooooooooooooooooooooooooooooooooooXXX.oooooooooooooooooo",
"oooooooooooooooooooooooooooooooooooooooooooooooooooooooooooooooooooooooooooooooooooooooooooooooooooo",
"oooooooooooooooooooooooooooooooooooooooooooooooooooooooooooooooooooooooooooooooooooooooooooooooooooo",
"oooooooooooooooooooooooooooooooooooooooooooooooooooooooooooooooooooooooooooooooooooooooooooooooooooo",
"oooooooooooooooooooooooooooooooooooooooooooooooooooooooooooooooooooooooooooooooooooooooooooooooooooo",
"oooooooooooooooooooooooooooooooooooooooooooooooooooooooooooooooooooooooooooooooooooooooooooooooooooo",
"oooooooooooooooooooooooooooooooooooooooooooXXX....oo  XXXXXXXooooooooooooooooooooooooooooooooooooooo",
"oooooooooooooooooooooooooooooooooooooooooXXXXX......  XXXXXXXXXXXXXXXooooooooooooooooooooooooooooooo",
"ooooooooooooooooooooooooooooooooooooooooXXXXXX......  XXXXXXXXXXXXXXXXoooooooooooooooooooooooooooooo",
"ooooooooooooooooooooooooooooooooooooooXXXXXXXXX..... XXXXXXXXXXXXXXXXXXooooooooooooooooooooooooooooo",
"oooooooooooooooooooooooooooooooooooooXXXXXXXXXXX.... XXXXXXXXXXXXXXXXXXooooooooooooooooooooooooooooo",
"ooooooooooooooooooooooooooooooooooooXXXXXXXXXXXXXXXXXXXXXXXXXXXXXXXXXXXooooooooooooooooooooooooooooo",
"ooooooooooooooooooooooooooooooooooXXXXXXXXXXXXXXXXXXXXXXXXXXXXXXX.X....ooooooooooooooooooooooooooooo",
"ooooooooooooooooooooooooooooooooooXXXXXXXXXXXXXXXXXXXXXXXXXX...X.......ooooooooooooooooooooooooooooo",
"oooooooooooooooooooooooooooooooooXXXXXXXXXXXXXXXXXXXXXXXXXX........... ooooooooooooooooooooooooooooo",
"oooooooooooooooooooooooooooooooooXXXXXXXXXXX.X.X.XXXXXXX.............  ooooooooooooooooooooooooooooo",
"oooooooooooooooooooooooooooooooooXXXXXXXX.X.......X.X.X..... .......   ooooooooooooooooooooooooooooo",
"ooooooooooooooooooooooooooooooooo  XXXXX.......   ....... .   . ... .  ooooooooooooooooooooooooooooo",
"ooooooooooooooooooooooooooooooooo  .X.X......       .. .       ... .   ooooooooooooooooooooooooooooo",
"ooooooooooooooooooooooooooooooooo  X.X..... . ..                . .    ooooooooooooooooooooooooooooo",
"ooooooooooooooooooooooooooooooooo  .X.....  ......             . .    oooooooooooooooooooooooooooooo",
"ooooooooooooooooooooooooooooooooo. X.....   .......           . . .   oooooooooooooooooooooooooooooo",
"ooooooooooooooooooooooooooooooooo X..... .  .......          . . .    oooooooooooooooooooooooooooooo",
"oooooooooooooooooooooooooooooooooXXX.....   .......         .....     oooooooooooooooooooooooooooooo",
"oooooooooooooooooooooooooooooooooXX.....     ......    . ....... .   ooooooooooooooooooooooooooooooo",
"oooooooooooooooooooooooooooooooooXXX.....     ..... .............    ooooooooooooooooooooooooooooooo",
"oooooooooooooooooooooooooooooooooXXXX..... . ...................     ooooooooooooooooooooooooooooooo",
"oooooooooooooooooooooooooooooooooXXX.................X.X.X.......    ooooooooooooooooooooooooooooooo",
"oooooooooooooooooooooooooooooooooXXXX...........X.XXXXXXXXX.....     ooooooooooooooooooooooooooooooo",
"ooooooooooooooooooooooooooooooooo  XXX.......X.XXXXXXXXXXXXX.....   oooooooooooooooooooooooooooooooo",
"ooooooooooooooooooooooooooooooooo   XXX.X.X.XXXXXXXXXXXXXXX.....    oooooooooooooooooooooooooooooooo",
"ooooooooooooooooooooooooooooooooo.  XXXX.X.XXXXXXXXXXXXXXX.......   oooooooooooooooooooooooooooooooo",
"ooooooooooooooooooooooooooooooooo.  XXXXX.X.XXXXXXXXXXXXXX...... .  oooooooooooooooooooooooooooooooo",
"ooooooooooooooooooooooooooooooooo. XXXXX.X.X.X.XXXXXXXXXX...... .   oooooooooooooooooooooooooooooooo",
"ooooooooooooooooooooooooooooooooo.XXXXX.X.X.....X.XXXXX..... . . . ooooooooooooooooooooooooooooooooo",
"oooooooooooooooooooooooooooooooooXXX.X.X...................     .  ooooooooooooooooooooooooooooooooo",
"oooooooooooooooooooooooooooooooooXXXX.X........   ........       . ooooooooooooooooooooooooooooooooo",
"ooooooooooooooooooooooooooooooooooXXXX.......       .....         oooooooooooooooooooooooooooooooooo",
"ooooooooooooooooooooooooooooooooooXXX....... ....    . .          oooooooooooooooooooooooooooooooooo",
"oooooooooooooooooooooooooooooooooooXX...... ......               ooooooooooooooooooooooooooooooooooo",
"oooooooooooooooooooooooooooooooooooXXX....  .......            ooooooooooooooooooooooooooooooooooooo",
"oooooooooooooooooooooooooooooooooooooX...   ..........        oooooooooooooooooooooooooooooooooooooo",
"ooooooooooooooooooooooooooooooooooooooooooooooo.......      oooooooooooooooooooooooooooooooooooooooo",
"ooooooooooooooooooooooooooooooooooooooooooooooooooo.. . .  ooooooooooooooooooooooooooooooooooooooooo",
"ooooooooooooooooooooooooooooooooooooooooooooooooooooo..... ooooooooooooooooooooooooooooooooooooooooo",
"oooooooooooooooooooooooooooooooooooooooooooooooooooooXX...oooooooooooooooooooooooooooooooooooooooooo",
"oooooooooooooooooooooooooooooooooooooooooooooooooooooXXXXXoooooooooooooooooooooooooooooooooooooooooo",
"oooooooooooooooooooooooooooooooooooooooooooooooooooooXXXXXoooooooooooooooooooooooooooooooooooooooooo",
"oooooooooooooooooooooooooooooooooooooooooooooooooooooXXXXXoooooooooooooooooooooooooooooooooooooooooo",
"ooooooooooooooooooooooooooooooooooooooooooooooooooooooXXXooooooooooooooooooooooooooooooooooooooooooo",
"ooooooooooooooooooooooooooooooooooooooooooooooooooooooXXXooooooooooooooooooooooooooooooooooooooooooo",
"ooooooooooooooooooooooooooooooooooooooooooooooooooooooXXoooooooooooooooooooooooooooooooooooooooooooo",
"oooooooooooooooooooooooooooooooooooooooooooooooooooooooooooooooooooooooooooooooooooooooooooooooooooo",
"oooooooooooooooooooooooooooooooooooooooooooooooooooooooooooooooooooooooooooooooooooooooooooooooooooo",
"oooooooooooooooooooooooooooooooooooooooooooooooooooooooooooooooooooooooooooooooooooooooooooooooooooo",
"oooooooooooooooooooooooooooooooooooooooooooooooooooooooooooooooooooooooooooooooooooooooooooooooooooo",
"oooooooooooooooooooooooooooooooooooooooooooooooooooooooooooooooooooooooooooooooooooooooooooooooooooo",
"oooooooooooooooooooooooooooooooooooooooooooooooooooooooooooooooooooooooooooooooooooooooooooooooooooo",
"oooooooooooooooooooooooooooooooooooooooooooooooooooooooooooooooooooooooooooooooooooooooooooooooooooo",
"ooooooooooooooooooooooooooooooooooooooooooooooooooooooooooooooXooooooooooooooooooooooooooooooooooooo",
"ooooooooooooooooooooooooooooooooooooooooooooooooooooooooooooooXXoooooooooooooooooooooooooooooooooooo",
"ooooooooooooooooooooooooooooooooooooooooooooooooooooooooooooooXooooooooooooooooooooooooooooooooooooo",
"oooooooooooooooooooooooooooooooooooooooooooooooooooooooooooooooooooooooooooooooooooooooooooooooooooo",
"oooooooooooooooooooooooooooooooooooooooooooooooooooooooooooooooooooooooooooooooooooooooooooooooooooo",
"oooooooooooooooooooooooooooooooooooooooooooooooooooooooooooooooooooooooooooooooooooooooooooooooooooo",
"oooooooooooooooooooooooooooooooooooooooooooooooooooooooooooooooooooooooooooooooooooooooooooooooooooo",
"oooooooooooooooooooooooooooooooooooooooooooooooooooooooooooooooooooooooooooooooooooooooooooooooooooo",
"oooooooooooooooooooooooooooooooooooooooooooooooooooooooooooooooooooooooooooooooooooooooooooooooooooo",
"oooooooooooooooooooooooooooooooooooooooooooooooooooooooooooooooooooooooooooooooooooooooooooooooooooo",
"oooooooooooooooooooooooooooooooooooooooooooooooooooooooooooooooooooooooooooooooooooooooooooooooooooo",
"oooooooooooooooooooooooooooooooooooooooooooooooooooooooooooooooooooooooooooooooooooooooooooooooooooo",
"oooooooooooooooooooooooooooooooooooooooooooooooooooooooooooooooooooooooooooooooooooooooooooooooooooo",
"oooooooooooooooooooooooooooooooooooooooooooooooooooooooooooooooooooooooooooooooooooooooooooooooooooo",
"oooooooooooooooooooooooooooooooooooooooooooooooooooooooooooooooooooooooooooooooooooooooooooooooooooo",
"oooooooooooooooooooooooooooooooooooooooooooooooooooooooooooooooooooooooooooooooooooooooooooooooooooo",
"oooooooooooooooooooooooooooooooooooooooooooooooooooooooooooooooooooooooooooooooooooooooooooooooooooo"
};
