/* XPM */
static char *result[] = {
/* columns rows colors chars-per-pixel */
"100 100 4 1 ",
"  c #3A3F5E",
". c #4C6885",
"X c #A3A7C2",
"o c None",
/* pixels */
"oooooooooooooooooooooooooooooooooooooooooooooooooooooooooooooooooooooooooooooooooooooooooooooooooooo",
"oooooooooooooooooooooooooooooooooooooooooooooooooooooooooooooooooooooooooooooooooooooooooooooooooooo",
"oooooooooooooooooooooooooooooooooooooooooooooooooooooooooooooooooooooooooooooooooooooooooooooooooooo",
"oooooooooooooooooooooooooooooooooooooooooooooooooooooooooooooooooooooooooooooooooooooooooooooooooooo",
"oooooooooooooooooooooooooooooooooooooooooooooooooooooooooooooooooooooooooooooooooooooooooooooooooooo",
"oooooooooooooooooooooooooooooooooooooooooooooooooooooooooooooooooooooooooooooooooooooooooooooooooooo",
"oooooooooooooooooooooooooooooooooooooooooooooooooooooooooooooooooooooooooooooooooooooooooooooooooooo",
"oooooooooooooooooooooooooooooooooooooooooooooooooooooooooooooooooooooooooooooooooooooooooooooooooooo",
"oooooooooooooooooooooooooooooooooooooooooooooooooooooooooooooooooooooooooooooooooooooooooooooooooooo",
"oooooooooooooooooooooooooooooooooooooooooooooooooooooooooooooooooooooooooooooooooooooooooooooooooooo",
"oooooooooooooooooooooooooooooooooooooooooooooooooooooooooooooooooooooooooooooooooooooooooooooooooooo",
"oooooooooooooooooooooooooooooooooooooooooooooooooooooooooooooooooooooooooooooooooooooooooooooooooooo",
"oooooooooooooooooooooooooooooooooooooooooooooooooooooooooooooooooooooooooooooooooooooooooooooooooooo",
"oooooooooooooooooooooooooooooooooooooooooooooooooooooooooooooooooooooooooooooooooooooooooooooooooooo",
"oooooooooooooooooooooooooooooooooooooooooooooooooooooooooooooooooooooooooooooooooooooooooooooooooooo",
"oooooooooooooooooooooooooooooooooooooooooooooooooooooooooooooooooooooooooooooooooooooooooooooooooooo",
"oooooooooooooooooooooooooooooooooooooooooooooooooooooooooooooooooooooooooooooooooooooooooooooooooooo",
"oooooooooooooooooooooooooooooooooooooooooooooooooooooooooooooooooooooooooooooooooooooooooooooooooooo",
"oooooooooooooooooooooooooooooooooooooooooooooooooooooooooooooooooooooooooooooooooooooooooooooooooooo",
"oooooooooooooooooooooooooooooooooooooooooooooooooooooooooooooooooooooooooooooooooooooooooooooooooooo",
"oooooooooooooooooooooooooooooooooooooooooooooooooooooooooooooooooooooooooooooooooooooooooooooooooooo",
"oooooooooooooooooooooooooooooooooooooooooooooooooooooooooooooooooooooooooooooooooooooooooooooooooooo",
"oooooooooooooooooooooooooooooooooooooooooooooooooooooooooooooooooooooooooooooooooooooooooooooooooooo",
"oooooooooooooooooooooooooooooooooooooooooooooooooooooooooooooooooooooooooooooooooooooooooooooooooooo",
"oooooooooooooooooooooooooooooooooooooooooooooooooooooooooooooooooooooooooooooooooooooooooooooooooooo",
"oooooooooooooooooooooooooooooooooooooooooooooooooooooooooooooooooooooooooooooooooooooooooooooooooooo",
"oooooooooooooooooooooooooooooooooooooooooooooooooooooooooooooooooooooooooooooooooooooooooooooooooooo",
"oooooooooooooooooooooooooooooooooooooooooooooooooooooooooooooooooooooooooooooooooooooooooooooooooooo",
"oooooooooooooooooooooooooooooooooooooooooooooooooooooooooooooooooooooooooooooooooooooooooooooooooooo",
"ooooooooooooooooooooooooooooooooooooooooooooooooXXXooooooooooooooooooooooooooooooooooooooooooooooooo",
"ooooooooooooooooooooooooooooooooooooooooooooooXXXXXXXXXXXXoooooooooooooooooooooooooooooooooooooooooo",
"oooooooooooooooooooooooooooooooooooooooooooooXXXXXXXXXXXXXXXoooooooooooooooooooooooooooooooooooooooo",
"oooooooooooooooooooooooooooooooooooooooooooo  XXXXXXXXXXXXXXXooooooooooooooooooooooooooooooooooooooo",
"ooooooooooooooooooooooooooooooooooooooooooo  XXXXXXXXXXXXXXXXXoooooooooooooooooooooooooooooooooooooo",
"oooooooooooooooooooooooooooooooooooooooooo.  XXXXXXXXXXXXXXXX..ooooooooooooooooooooooooooooooooooooo",
"ooooooooooooooooooooooooooooooooooooooooo   XXXXXXXXXXXX.X.X....oooooooooooooooooooooooooooooooooooo",
"ooooooooooooooooooooooooooooooooooooooooXXXXXXXXXXXXXXX.X.X......ooooooooooooooooooooooooooooooooooo",
"oooooooooooooooooooooooooooooooooooooooXXXXXXXXXXX.X.X........... oooooooooooooooooooooooooooooooooo",
"ooooooooooooooooooooooooooooooooooooooXXXXXXXXX.X.X.X............  ooooooooooooooooooooooooooooooooo",
"oooooooooooooooooooooooooooooooooooooXXXXXXX.X.............X....  ..oooooooooooooooooooooooooooooooo",
"oooooooooooooooooooooooooooooooooooo XXXXXX.X.............X.X.X  ....ooooooooooooooooooooooooooooooo",
"oooooooooooooooooooooooooooooooooo.  XXXXX.........   ...X.XXX.X.....Xoooooooooooooooooooooooooooooo",
"ooooooooooooooooooooooooooooooooo..  XXXX.X..........   ..XXXXX.X.....Xooooooooooooooooooooooooooooo",
"ooooooooooooooooooooooooooooooooo.   XXXXX............  .XXXXXXX.......Xoooooooooooooooooooooooooooo",
"ooooooooooooooooooooooooooooooooX   XXXXX.............   .XXXXX.........Xooooooooooooooooooooooooooo",
"oooooooooooooooooooooooooooooooXXXXXXXXX..............   XXXXX...........ooooooooooooooooooooooooooo",
"oooooooooooooooooooooooooooooooXXXXXXXXXX.............   .XXX....... .....oooooooooooooooooooooooooo",
"ooooooooooooooooooooooooooooooXXXXXXXXXX.X............   X.X..... .   .....oooooooooooooooXXXXXooooo",
"ooooooooooooooooooooooooooooooXXXXXXXXX.X.............  ..X.....       ....XoooooooooooooXXXXXXXoooo",
"ooooooooooooooooooooooooooooooXXXX.X.X.X.............  ..X.X.....     . ....XooooooooooooXXXXXXXoooo",
"ooooooooooooooooooooooooooooooXXX.X.X.X.X..........   ....X.....       ......oooooooooooXXXXXXXXXooo",
"ooooooooooooooooooooooooooooooXXX........................X.X.....     . .....oooooooooooXXXXXXXXXooo",
"oooooooooooooooooooooooooooooooXX.......................X.XXX.....   . . ....oooooooooooXXXXXXXXoooo",
"ooooooooooooooooooooooooooooooooX......................X.XXXXX..... . . . . oooooooooooooXXXXXXooooo",
"ooooooooooooooooooooooooooooooooo.....................X.XXXXXXX..... . .   oooooooooooooooXXXooooooo",
"oooooooooooooooooooooooooooooooooo.....   .....X.X.....XXXXXXX..... . .   oooooooooooooooooooooooooo",
"ooooooooooooooooooooooooooooooooooo.....   ...X.X.......XXXXXXX.....      oooooooooooooooooooooooooo",
"ooooooooooooooooooooooooooooooooooo......  ....X.X.......XXXXX.....      ooooooooooooooooooooooooooo",
"oooooooooooooooooooooooooooooooooooo.....   ..X.X.........X.X.....     ooooooooooooooooooooooooooooo",
"ooooooooooooooooooooooooooooooooooooo....   .X...................     oooooooooooooooooooooooooooooo",
"oooooooooooooooooooooooooooooooooooooo...   ........ . .........    oooooooooooooooooooooooooooooooo",
"oooooooooooooooooooooooooooooooooooooo...  ........     .......    ooooooooooooooooooooooooooooooooo",
"ooooooooooooooooooooooooooooooooooooooo...  ......       ... .   ooooooooooooooooooooooooooooooooooo",
"ooooooooooooooooooooooooooooooooooooooo...   ....         . .   oooooooooooooooooooooooooooooooooooo",
"oooooooooooooooooooooooooooooooooooooooXX.  ......            oooooooooooooooooooooooooooooooooooooo",
"oooooooooooooooooooooooooooooooooooooooXXXX......           oooooooooooooooooooooooooooooooooooooooo",
"ooooooooooooooooooooooooooooooooooooooXXXXXX....           ooooooooooooooooooooooooooooooooooooooooo",
"ooooooooooooooooooooooooooooooooooooooXXXXXXX....         oooooooooooooooooooooooooooooooooooooooooo",
"oooooooooooooooooooooooooooooooooooooXXXXXXXX... . . .  oooooooooooooooooooooooooooooooooooooooooooo",
"ooooooooooooooooooooooooooooooooooooXXXXXXoooooooo. .ooooooooooooooooooooooooooooooooooooooooooooooo",
"ooooooooooooooooooooooooooooooooooooXXXXXooooooooooooooooooooooooooooooooooooooooooooooooooooooooooo",
"ooooooooooooooooooooooooooooooooooooXXXooooooooooooooooooooooooooooooooooooooooooooooooooooooooooooo",
"oooooooooooooooooooooooooooooooooooooooooooooooooooooooooooooooooooooooooooooooooooooooooooooooooooo",
"oooooooooooooooooooooooooooooooooooooooooooooooooooooooooooooooooooooooooooooooooooooooooooooooooooo",
"oooooooooooooooooooooooooooooooooooooooooooooooooooooooooooooooooooooooooooooooooooooooooooooooooooo",
"oooooooooooooooooooooooooooooooooooooooooooooooooooooooooooooooooooooooooooooooooooooooooooooooooooo",
"oooooooooooooooooooooooooooooooooooooooooooooooooooooooooooooooooooooooooooooooooooooooooooooooooooo",
"oooooooooooooooooooooooooooooooooooooooooooooooooooooooooooooooooooooooooooooooooooooooooooooooooooo",
"oooooooooooooooooooooooooooooooooooooooooooooooooooooooooooooooooooooooooooooooooooooooooooooooooooo",
"oooooooooooooooooooooooooooooooooooooooooooooooooooooooooooooooooooooooooooooooooooooooooooooooooooo",
"oooooooooooooooooooooooooooooooooooooooooooooooooooooooooooooooooooooooooooooooooooooooooooooooooooo",
"oooooooooooooooooooooooooooooooooooooooooooooooooooooooooooooooooooooooooooooooooooooooooooooooooooo",
"ooooooooooooooooooooooooooooooooooXXoooooooooooooooooooooooooooooooooooooooooooooooooooooooooooooooo",
"ooooooooooooooooooooooooooooooooooXXoooooooooooooooooooooooooooooooooooooooooooooooooooooooooooooooo",
"oooooooooooooooooooooooooooooooooooooooooooooooooooooooooooooooooooooooooooooooooooooooooooooooooooo",
"oooooooooooooooooooooooooooooooooooooooooooooooooooooooooooooooooooooooooooooooooooooooooooooooooooo",
"oooooooooooooooooooooooooooooooooooooooooooooooooooooooooooooooooooooooooooooooooooooooooooooooooooo",
"oooooooooooooooooooooooooooooooooooooooooooooooooooooooooooooooooooooooooooooooooooooooooooooooooooo",
"oooooooooooooooooooooooooooooooooooooooooooooooooooooooooooooooooooooooooooooooooooooooooooooooooooo",
"oooooooooooooooooooooooooooooooooooooooooooooooooooooooooooooooooooooooooooooooooooooooooooooooooooo",
"oooooooooooooooooooooooooooooooooooooooooooooooooooooooooooooooooooooooooooooooooooooooooooooooooooo",
"oooooooooooooooooooooooooooooooooooooooooooooooooooooooooooooooooooooooooooooooooooooooooooooooooooo",
"oooooooooooooooooooooooooooooooooooooooooooooooooooooooooooooooooooooooooooooooooooooooooooooooooooo",
"oooooooooooooooooooooooooooooooooooooooooooooooooooooooooooooooooooooooooooooooooooooooooooooooooooo",
"oooooooooooooooooooooooooooooooooooooooooooooooooooooooooooooooooooooooooooooooooooooooooooooooooooo",
"oooooooooooooooooooooooooooooooooooooooooooooooooooooooooooooooooooooooooooooooooooooooooooooooooooo",
"oooooooooooooooooooooooooooooooooooooooooooooooooooooooooooooooooooooooooooooooooooooooooooooooooooo",
"oooooooooooooooooooooooooooooooooooooooooooooooooooooooooooooooooooooooooooooooooooooooooooooooooooo",
"oooooooooooooooooooooooooooooooooooooooooooooooooooooooooooooooooooooooooooooooooooooooooooooooooooo",
"oooooooooooooooooooooooooooooooooooooooooooooooooooooooooooooooooooooooooooooooooooooooooooooooooooo"
};
