/* XPM */
static char *result[] = {
/* columns rows colors chars-per-pixel */
"100 100 4 1 ",
"  c #3A3F5E",
". c #4C6885",
"X c #A3A7C2",
"o c None",
/* pixels */
"oooooooooooooooooooooooooooooooooooooooooooooooooooooooooooooooooooooooooooooooooooooooooooooooooooo",
"oooooooooooooooooooooooooooooooooooooooooooooooooooooooooooooooooooooooooooooooooooooooooooooooooooo",
"oooooooooooooooooooooooooooooooooooooooooooooooooooooooooooooooooooooooooooooooooooooooooooooooooooo",
"oooooooooooooooooooooooooooooooooooooooooooooooooooooooooooooooooooooooooooooooooooooooooooooooooooo",
"ooooooooooooooooooooooooooooooooooooooooooooooooooXXoooooooooooooooooooooooooooooooooooooooooooooooo",
"ooooooooooooooooooooooooooooooooooooooooooooooooXXXXXooooooooooooooooooooooooooooooooooooooooooooooo",
"oooooooooooooooooooooooooooooooooooooooooooooooXXXXXXXoooooooooooooooooooooooooooooooooooooooooooooo",
"oooooooooooooooooooooooooooooooooooooooooooooooXXXXXXXoooooooooooooooooooooooooooooooooooooooooooooo",
"oooooooooooooooooooooooooooooooooooooooooooooooXXXXXX..ooooooooooooooooooooooooooooooooooooooooooooo",
"oooooooooooooooooooooooooooooooooooooooooooooooXXXXX...ooooooooooooooooooooooooooooooooooooooooooooo",
"oooooooooooooooooooooooooooooooooooooooooooooooXXXX... ooooooooooooooooooooooooooooooooooooooooooooo",
"ooooooooooooooooooooooooooooooooooooooooooooooooXXX.. oooooooooooooooooooooooooooooooooooooooooooooo",
"oooooooooooooooooooooooooooooooooooooooooooooooooo.. ooooooooooooooooooooooooooooooooooooooooooooooo",
"oooooooooooooooooooooooooooooooooooooooooooooooooooooooooooooooooooooooooooooooooooooooooooooooooooo",
"oooooooooooooooooooooooooooooooooooooooooooooooooooooooooooooooooooooooooooooooooooooooooooooooooooo",
"oooooooooooooooooooooooooooooooooooooooooooooooooooooooooooooooooooooooooooooooooooooooooooooooooooo",
"oooooooooooooooooooooooooooooooooooooooooooooooooooooooooooooooooooooooooooooooooooooooooooooooooooo",
"oooooooooooooooooooooooooooooooooooooooooooooooooooooooooooooooooooooooooooooooooooooooooooooooooooo",
"oooooooooooooooooooooooooooooooooooooooooooooooooooooooooooooooooooooooooooooooooooooooooooooooooooo",
"oooooooooooooooooooooooooooooooooooooooooooooooooooooooooooooooooooooooooooooooooooooooooooooooooooo",
"oooooooooooooooooooooooooooooooooooooooooooooooooooooooooooooooooooooooooooooooooooooooooooooooooooo",
"oooooooooooooooooooooooooooooooooooooooooooooooooooooooooooooooooooooooooooooooooooooooooooooooooooo",
"oooooooooooooooooooooooooooooooooooooooooooooooooooooooooooooooooooooooooooooooooooooooooooooooooooo",
"oooooooooooooooooooooooooooooooooooooooooooooooooooooooooooooooooooooooooooooooooooooooooooooooooooo",
"oooooooooooooooooooooooooooooooooooooooooooooooooXXXXooooooooooooooooooooooooooooooooooooooooooooooo",
"ooooooooooooooooooooooooooooooooooooooooooooooooXXXXXXoooooooooooooooooooooooooooooooooooooooooooooo",
"oooooooooooooooooooooooooooooooooooooooooooooooXXXXXX..ooooooooooooooooooooooooooooooooooooooooooooo",
"ooooooooooooooooooooooooooooooooooooooooooooooXXXXXXX....ooooooooooooooooooooooooooooooooooooooooooo",
"ooooooooooooooooooooooooooooooooooooooooooooXXXXXXXXX.....oooooooooooooooooooooooooooooooooooooooooo",
"oooooooooooooooooooooooooooooooooooooooooooXXXXXXXXXXX....oooooooooooooooooooooooooooooooooooooooooo",
"ooooooooooooooooooooooooooooooooooooooooooXXXXXXXXXXX......ooooooooooooooooooooooooooooooooooooooooo",
"oooooooooooooooooooooooooooooooooooooooooXXXXXXXXXXX....... oooooooooooooooooooooooooooooooooooooooo",
"ooooooooooooooooooooooooooooooooooooooooXXXXXXXXXXXXX..... .oooooooooooooooooooooooooooooooooooooooo",
"oooooooooooooooooooooooooooooooooooooooXXXXXXXXXXXXX.......  ooooooooooooooooooooooooooooooooooooooo",
"oooooooooooooooooooooooooooooooooooooo XXXXXXXXXXXX....... .  oooooooooooooooooooooooooooooooooooooo",
"ooooooooooooooooooooooooooooooooooooo   XXXXXXXXXX.........   oooooooooooooooooooooooooooooooooooooo",
"oooooooooooooooooooooooooooooooooooo...  XXXXXXXX...........   ooooooooooooooooooooooooooooooooooooo",
"ooooooooooooooooooooooooooooooooooo..... XXXXXXXXX......... .   oooooooooooooooooooooooooooooooooooo",
"oooooooooooooooooooooooooooooooooo......XXXXXXXXX...........    oooooooooooooooooooooooooooooooooooo",
"oooooooooooooooooooooooooooooooooX......XXXXXXXX........... .    ooooooooooooooooooooooooooooooooooo",
"ooooooooooooooooooooooooooooooooXXX....XXXXXXXX...   . ... .     ooooooooooooooooooooooooooooooooooo",
"oooooooooooooooooooooooooooooooXXXXXXXXXXXXXXX...       . .       oooooooooooooooooooooooooooooooooo",
"oooooooooooooooooooooooooooooooXXXXXXXXXXXXXX..          . .     . ooooooooooooooooooooooooooooooooo",
"ooooooooooooooooooooooooooooooXXXXXXXXXXXXXX..            .       . oooooooooooooooooooooooooooooooo",
"ooooooooooooooooooooooooooooooXXXXXXXXXXXX..             .       . .oooooooooooooooooooooooooooooooo",
"ooooooooooooooooooooooooooooooXXXXXXXXXX..              . . .   . ...ooooooooooooooooooooooooooooooo",
"ooooooooooooooooooooooooooooooXXXXXXXXX...             ..... . . ....ooooooooooooooooooooooooooooooo",
"ooooooooooooooooooooooooooooooXXXXXXXX...  ......     ......... .....ooooooooooooooooooooooooooooooo",
"ooooooooooooooooooooooooooooooXXXXXXX.... ........   .................oooooooooooooooooooooooooooooo",
"ooooooooooooooooooooooooooooooXXXXXX..... ........  ...XXX.X....... . oooooooooooooooooooooooooooooo",
"oooooooooooooooooooooooooooooXXXXXXX....  ........ ...XXXXXXX..... . .oooooooooooooooooooooooooooooo",
"oooooooooooooooooooooooooooooXXXXXXX...   ...........XXXXXXX..... . .ooooooooooooooooooooooooooooooo",
"oooooooooooooooooooooooooooooXXXXXX...      .... ...XXXXXXXXX... . . ooooooooooooooooooooooooooooooo",
"ooooooooooooooooooooooooooooooXXXX...           ...XXXXXXXXX... .    ooooooooooooooooooooooooooooooo",
"ooooooooooooooooooooooooooooooXXX.....         ...XXXXXXXXX...       ooooooooooooooooooooooooooooooo",
"oooooooooooooooooooooooooooooooX ....         ...XXXXXXXXX...        ooooooooooooooooooooooooooooooo",
"oooooooooooooooooooooooooooooooo   ...       ...XXXXXXXXX...         ooooooooooooooooooooooooooooooo",
"ooooooooooooooooooooooooooooooooo   . .     ....XXXXXXXX..           ooooooooooooooooooooooooooooooo",
"oooooooooooooooooooooooooooooooooo. .. .   .....XXXXXXX.             ooooooooooooooooooooooooooooooo",
"ooooooooooooooooooooooooooooooooooo . . . .....XXXXXXX.       ...   ..oooooooooooooooooooooooooooooo",
"oooooooooooooooooooooooooooooooooooo.. . .....XXXXXXX..  .......   ...Xooooooooooooooooooooooooooooo",
"ooooooooooooooooooooooooooooooooooooo........X.XXXXX... ........    ..Xooooooooooooooooooooooooooooo",
"oooooooooooooooooooooooooooooooooooooo........XXX.X...........oooo ..XXXoooooooooooooooooooooooooooo",
"ooooooooooooooooooooooooooooooooooooooo........X.X..........ooooooooXXXXoooooooooooooooooooooooooooo",
"oooooooooooooooooooooooooooooooooooooooo    ..........  ...ooooooooooXXXoooooooooooooooooooooooooooo",
"ooooooooooooooooooooooooooooooooooooooooo    ........    .ooooooooooooooooooooooooXXoooooooooooooooo",
"ooooooooooooooooooooooooooooooooooooooooo..  .......    ooooooooooooooooooooooooooXXoooooooooooooooo",
"oooooooooooooooooooooooooooooooooooooooooo.. ...... .  ooooooooooooooooooooooooooooooooooooooooooooo",
"ooooooooooooooooooooooooooooooooooooooooooooX.......  oooooooooooooooooooooooooooooooooooooooooooooo",
"oooooooooooooooooooooooooooooooooooooooooooooX..... .ooooooooooooooooooooooooooooooooooooooooooooooo",
"ooooooooooooooooooooooooooooooooooooooooooooooo.....oooooooooooooooooooooooooooooooooooooooooooooooo",
"oooooooooooooooooooooooooooooooooooooooooooooooooooooooooooooooooooooooooooooooooooooooooooooooooooo",
"oooooooooooooooooooooooooooooooooooooooooooooooooooooooooooooooooooooooooooooooooooooooooooooooooooo",
"oooooooooooooooooooooooooooooooooooooooooooooooooooooooooooooooooooooooooooooooooooooooooooooooooooo",
"oooooooooooooooooooooooooooooooooooooooooooooooooooooooooooooooooooooooooooooooooooooooooooooooooooo",
"oooooooooooooooooooooooooooooooooooooooooooooooooooooooooooooooooooooooooooooooooooooooooooooooooooo",
"oooooooooooooooooooooooooooooooooooooooooooooooooooooooooooooooooooooooooooooooooooooooooooooooooooo",
"oooooooooooooooooooooooooooooooooooooooooooooooooooooooooooooooooooooooooooooooooooooooooooooooooooo",
"oooooooooooooooooooooooooooooooooooooooooooooooooooooooooooooooooooooooooooooooooooooooooooooooooooo",
"oooooooooooooooooooooooooooooooooooooooooooooooooooooooooooooooooooooooooooooooooooooooooooooooooooo",
"oooooooooooooooooooooooooooooooooooooooooooooooooooooooooooooooooooooooooooooooooooooooooooooooooooo",
"oooooooooooooooooooooooooooooooooooooooooooooooooooooooooooooooooooooooooooooooooooooooooooooooooooo",
"oooooooooooooooooooooooooooooooooooooooooooooooooooooooooooooooooooooooooooooooooooooooooooooooooooo",
"oooooooooooooooooooooooooooooooooooooooooooooooooooooooooooooooooooooooooooooooooooooooooooooooooooo",
"oooooooooooooooooooooooooooooooooooooooooooooooooooooooooooooooooooooooooooooooooooooooooooooooooooo",
"oooooooooooooooooooooooooooooooooooooooooooooooooooooooooooooooooooooooooooooooooooooooooooooooooooo",
"oooooooooooooooooooooooooooooooooooooooooooooooooooooooooooooooooooooooooooooooooooooooooooooooooooo",
"oooooooooooooooooooooooooooooooooooooooooooooooooooooooooooooooooooooooooooooooooooooooooooooooooooo",
"oooooooooooooooooooooooooooooooooooooooooooooooooooooooooooooooooooooooooooooooooooooooooooooooooooo",
"oooooooooooooooooooooooooooooooooooooooooooooooooooooooooooooooooooooooooooooooooooooooooooooooooooo",
"oooooooooooooooooooooooooooooooooooooooooooooooooooooooooooooooooooooooooooooooooooooooooooooooooooo",
"oooooooooooooooooooooooooooooooooooooooooooooooooooooooooooooooooooooooooooooooooooooooooooooooooooo",
"oooooooooooooooooooooooooooooooooooooooooooooooooooooooooooooooooooooooooooooooooooooooooooooooooooo",
"oooooooooooooooooooooooooooooooooooooooooooooooooooooooooooooooooooooooooooooooooooooooooooooooooooo",
"oooooooooooooooooooooooooooooooooooooooooooooooooooooooooooooooooooooooooooooooooooooooooooooooooooo",
"oooooooooooooooooooooooooooooooooooooooooooooooooooooooooooooooooooooooooooooooooooooooooooooooooooo",
"oooooooooooooooooooooooooooooooooooooooooooooooooooooooooooooooooooooooooooooooooooooooooooooooooooo",
"oooooooooooooooooooooooooooooooooooooooooooooooooooooooooooooooooooooooooooooooooooooooooooooooooooo",
"oooooooooooooooooooooooooooooooooooooooooooooooooooooooooooooooooooooooooooooooooooooooooooooooooooo",
"oooooooooooooooooooooooooooooooooooooooooooooooooooooooooooooooooooooooooooooooooooooooooooooooooooo"
};
