/* XPM */
static char *result[] = {
/* columns rows colors chars-per-pixel */
"64 64 73 1 ",
"  c #010101",
". c #090706",
"X c #0B0A00",
"o c #07070A",
"O c #08070A",
"+ c #07080B",
"@ c #09090C",
"# c #110E0D",
"$ c #13100F",
"% c #000315",
"& c #0C0B12",
"* c #01021C",
"= c #0F0E19",
"- c #120F12",
"; c #0F101B",
": c #141112",
"> c #1D1915",
", c #14121C",
"< c #19131E",
"1 c #1E181A",
"2 c #231C1B",
"3 c #27221B",
"4 c #2D261F",
"5 c #020B25",
"6 c #090A26",
"7 c #110F2B",
"8 c #141422",
"9 c #1C1624",
"0 c #1E1922",
"q c #12112E",
"w c #1C192C",
"e c #1C1C31",
"r c #251C22",
"t c #221B29",
"y c #271F31",
"u c #251E3E",
"i c #2B2322",
"p c #2E2820",
"a c #332C22",
"s c #3A3127",
"d c #2C2433",
"f c #21223E",
"g c #2F253D",
"h c #33263B",
"j c #34293C",
"k c #382C3E",
"l c #403134",
"z c #342C40",
"x c #392C40",
"c c #3B3145",
"v c #413346",
"b c #42374B",
"n c #463A4C",
"m c #4C3E4D",
"M c #4C3D52",
"N c #4F3D5B",
"B c #4F4056",
"V c #53445B",
"C c #6E5459",
"Z c #665360",
"A c #64536C",
"S c #68566A",
"D c #6E5B75",
"F c #725D73",
"G c #77626D",
"H c #7B6379",
"J c #857157",
"K c #8F795E",
"L c #846C77",
"P c #877085",
"I c #92778D",
"U c #8F7694",
"Y c #947B99",
/* pixels */
"ooo@  @o@ooooo@@@-#@@OooooooooooOoooo@@OOooooooooooooooooooooooo",
"oo@ >s @ooooooo     oOoooooooooooo+&+  @oooo@ooooooooooooooo@ooo",
"oo- lK :ooooo@@,7FM*&@oooooooO+@@+@ $Js #ooooooo@ooo@ooooooooooo",
"ooo@  ooooooooo,qHV*-@oooooOOo@  @@ $l2 @ooooooooooooooooooooooo",
"ooo@o @oooooooo     ooooooooo@ >: o@o  @oooo@ooooooooooooo@@oooo",
"ooOo@@oOoooooo@@@#@@oooooooo@@ s3 @o@#@oOoooooooooooooooo@o oooo",
"ooooO@ooooooooooo+oooooooOo+Oo@  @oooooooooooooooooooooooo@&Oooo",
"oooooooo@ooooooooOooooooooooO@o@@ooooo@oooooooooooooooOo@ ,foo@o",
"oooooooooooooooooooooOOooOooooOoo@oo@oooooooooooo@@ooooooo@-@oOo",
"ooooooooooooooooooooooooooooooooooo@o@@ooooooo.oo@@ooooooO@ oOoo",
"ooooo@oooooooooooooooooooooooooooooo ,, @oooooooooooOoooo  6% oO",
"ooooooooooooooo@ooooo+oooooooooooooooooooooooooooOoooooO@8uIV5-&",
"oooooooooo.@ooooooooooooooooOo@Oo@oooOOooooooooooooooooOo&8Mgo++",
"oooooooooooooooooooooooOooOOo@  @ooooooooooo@ooooooooooOo.   .++",
"oo@ooooooooooooooooOooooooo+@ r1 @oooooooooooooooooooooooo@&@o+o",
"oooooo$@ooooooooo@@ooooooooo@ 2: @ooooooooooooooooooooooooOo+ooo",
"oooo@   @ooOooOOo@X@+oooooooo@  @ooooooo@oooooooooOooooooooooooo",
"oo@@ <Zt @OoooOo@ * @oooooooOO@@oOoooooooooooooooooooooooooooooo",
"o@o@ 9Gd OOooo@@ kL8 @oooooooOoooooooooooooooOoooooooOoo@ooooooo",
"@o@ o   @ooooOoO 0m& @ooooooooooooo@oooooooooooOooooooo+oooo@ooo",
"o@ <&@$@ooo+oo&o o  &+ooooooooooooooooooooooooooOoooooooOooooooo",
"o@ <@o@@ooooo+ 88  w&o+oooooooooooooooooooooooooooOooooooooooooo",
"oo@ oOooooooo+@okcvw @ooooooOooooooooooooooooooooooooooooooooooo",
"o@o@oooooooooo& *YA -ooooooooooo@ooo@ooooooooooooooooooOoooooooo",
"ooooooooOoooo@o NNvt @+oooooo&@ooooooooooooooooo@oooooOooooooooo",
"oooooooooooooO 8h  e+o@ooo@@ sp @oooooooooooooo@o@o@oooooooooooo",
"oooooooO@oooo@&O @@ &oo@@oOO@  @@o.ooooOo@@oooo@ooooooooo@oooooo",
"ooooooo@toooO  O@@@Ooo@  @oO+++O@ooooooOo&&ooo@o@@oOoooooooooooo",
"oooooo@o @o& vj @@ooo@ i2 @OoOOoo@@o@oooo@oo@@oo+ooooOoooooooooo",
"oooooooo@oo@ 9, @@ooo@o-&oooooo@ =, @oooooo@o OoooooO@oOooooo@oo",
"o@ooooooooooO  OOooooo@  @+ooooo@ooooooooooo@=ooooo+@&oo@ooooooo",
"oooooooooooOo@@oOooooooO++++oOoooo@oooooooOo@=oOooOO  @@oooooooo",
"oooooooooo.ooooooOooooooooo@oooooooooooooooOo @oo@O z< &@oOooooo",
"oooooooooooooooooooooooooooooooooooooooooooo@@ooo@ 5Ib @@Ooooooo",
"o@@oooooooooooooooooOoooooooooooooooooo@o@oo.ooooO@ w&o@&ooooooo",
"+  @ooooooooo@oooooooooooooooooooooooooooooooooooo@@ ooooooooooo",
" e8 @ooooooooooooo@ooooooooo@ooooooooooooooooooooooo@oooooo@@ooo",
" e, @oooooooooooo@ oooooooooooooooo@ooooooooooooooOooooooo@ oooo",
"+  ooooooooooooo@ ,@oooooooooooooooooooooooooooooOo@@@@@oO 9@ooo",
"o@oooooooooooo@ooo=@o.o@ooooooooooooooooooooooooOo@    @o@o<@oOo",
"oo@oooooooooooooo@ @@oooooo@oooooooo+oooooooooooO@ 3>s, @o@ oooo",
"ooooooooo@oooooooo@ooooooooooooooo@o+&ooooooooooo@ 4a2# @oo@oooo",
"ooooooooooooooooooooooooooooooooooo@  @ooooooooooo@ a4%.oooooooo",
"oooooooooooooooooooooooooooooooooooo:@oOoooooooo@oo: BPo@@@ooooo",
"ooo@oooooooooooooooooooooooooooooo@ i2 @oooo@ ;= o@@ dn @oOooooo",
"ooooooooooooooooooooooo@oooooOooooo@  @oooooOO@@@.oo@  .oooooooo",
"oooooooOoooooooooooooooooooooooooooo@@oOooooO@oo@oooo@@o@oOooooo",
"ooooooooooooo@oooooooo.oo@oooooooooooooooooOOoooooooo@@ooooooooo",
"ooooooooooooooooooooo.oO@oOoooooooooooo@ooOOoO@oooooooooooooooo@",
"ooooooooooooooooooooo@ ,0 @ooooooooooooooooO -t @ooooooooooooooo",
"oooooooooooooooooooooo@oo@oooooOOooooooooooooooooooooooooooooooo",
"ooooooooo@oooooooooooooooooO@oOOooooooooOooooo@ooo@ooooooooooooo",
"@oooooooooooooooooo@oooooo@ O@@ @@oooooooooooooOoooooooooooooooo",
"ooooooooooooOoooooooooooooo8.  8&oooOooooooooooo@Ooooooooooooooo",
"ooooooo@oooo@ooooooooooooO 8j hw @@ooooooooooo@o ooooooooooooooo",
"oooooooooooooooooooooooooo& hUM p  @oooooOooooo@w+oooOooOoo@oooo",
"oooooooooooooooooooooooooo@ xDn s2$o.@oooooooOo@f@o@@@@#oooooooo",
"oooooo@ooooooooooooooo@Oo@ wy 9y Ck @@ooOo@@oooo oooo@  Xooooooo",
"oooooooooooooooooo++@o ooo@= - &=@@oOoooooo@ooo@@Ooo@ nS $@ooooo",
"oooooooooo@ooooo++@   9, @+o@o@oo ooooooooooooooooo@# BF @Oooooo",
"oooooooooooooo@ooo :r -@oooooOO@o@@oOooooooooooooooOo@  Xooo@ooo",
"o@ooooooooooooooo.o&r ooooooooooo.o@ooOooooooooOoooooo@:+@oooooo",
"oooooooooooooooooooo @OOooooooooooooooooooo@oooooooooooooooooooo",
"ooooooooo.ooooooooo@@@Oooooooooooooooooooooooooooooooooooooooooo"
};
