/* XPM */
static char *result[] = {
/* columns rows colors chars-per-pixel */
"100 100 10 1 ",
"  c #283540",
". c #2F5753",
"X c #3B7D4F",
"o c #404973",
"O c #63AB3F",
"+ c #686F99",
"@ c #62C8E0",
"# c #DFE0E8",
"$ c #F5FFE8",
"% c None",
/* pixels */
"%%%%%%%%%%%%%%%%%%%%%%%%%%%%%%%%%%%%%%%%%%%%%%%%%%%%%%%%%%%%%%%%%%%%%%%%%%%%%%%%%%%%%%%%%%%%%%%%%%%%",
"%%%%%%%%%%%%%%%%%%%%%%%%%%%%%%%%%%%%%%%%%. .       ..      o%%%%%%%%%%%%%%%%%%%%%%%%%%%%%%%%%%%%%%%%",
"%%%%%%%%%%%%%%%%%%%%%%%%%%%%%%%%%%%%%o.@@@@@@@@@@@@......     @ %%%%%%%%%%%%%%%%%%%%%%%%%%%%%%%%%%%%",
"%%%%%%%%%%%%%%%%%%%%%%%%%%%%%%%%%  @.@@@@@@@@@@@@@@@@@...        .o %%%%%%%%%%%%%%%%%%%%%%%%%%%%%%%%",
"%%%%%%%%%%%%%%%%%%%%%%%%%%%%%%%o@@@@@@@@@@@@@@@@@@@@@@@@@........   @o%%%%%%%%%%%%%%%%%%%%%%%%%%%%%%",
"%%%%%%%%%%%%%%%%%%%%%%%%%%%%%oo@@@@@@@@@@@.XXX@@@@@@@@@@@@@@@@@@....@oo@%%%%%%%%%%%%%%%%%%%%%%%%%%%%",
"%%%%%%%%%%%%%%%%%%%%%%%%%%%o@@@@@@@@.@.....X@@@@@@@@@@@@@@@@@@@@@@@@@@@.. %%%%%%%%%%%%%%%%%%%%%%%%%%",
"%%%%%%%%%%%%%%%%%%%%%%%%%@.@@@@@@@@@@@@.....O@@@@@@@@@@@@@@@@@@@@@@@@@@O@. o%%%%%%%%%%%%%%%%%%%%%%%%",
"%%%%%%%%%%%%%%%%%%%%%%%@@@XX.@@@@@@@@@@@@@@.@@@@@@@@@@@@@@@@@@@@@@@+o@@@@.@.@@%%%%%%%%%%%%%%%%%%%%%%",
"%%%%%%%%%%%%%%%%%%%%%%XOXXXXX..@@@@@@@@@@@@.@@@@@@@@@@@@@@@@@@@@@@@+++@@@@@..@o%%%%%%%%%%%%%%%%%%%%%",
"%%%%%%%%%%%%%%%%%%%%%OOOXX......@@@@@@@@@..@@@@@@@@@@@@@@@@@@@@@@@++++++ooooooo %%%%%%%%%%%%%%%%%%%%",
"%%%%%%%%%%%%%%%%%%%XOOXXX...........@@@@@@@@@@@@@@@@@@@@@@..@@@@@@++++++oooo@@@@oo%%%%%%%%%%%%%%%%%%",
"%%%%%%%%%%%%%%%%%%XOOXXX............@@@@@@@@@@@@@@@@@@@@..oo@@@@@@++++++++@@@@@@@@@%%%%%%%%%%%%%%%%%",
"%%%%%%%%%%%%%%%%%OOOXX...............@@@@@@@@@@@@@@@@@@@.@oooo.@@@+++++++@@@@@@@@@@o%%%%%%%%%%%%%%%%",
"%%%%%%%%%%%%%%%%OOO@XX...............@@@@@@@@@@@@@@@@@@...@@  o@@@++++++@@@@@@@@@oooo%%%%%%%%%%%%%%%",
"%%%%%%%%%%%%%%%XX@@XX...............@@@@@@@@@@@@@@@@@@@@.....@@@@@++++++++@@@@+oooo..o%%%%%%%%%%%%%%",
"%%%%%%%%%%%%%%XO@@@X................@@@@@@@@@@@@@@@@@@@@@@@..@@@@@++@@++++++@@@@@@@@@oo%%%%%%%%%%%%%",
"%%%%%%%%%%%%%XO@@@X..................@@@@@@@@@@@@@@@@@@@@@@@@@@@@@@@@@@@@@@@@@@@@@@@@..o%%%%%%%%%%%%",
"%%%%%%%%%%%%XX@@@....@.......................@@@@@@@@@@@@@@@@@@@@@@@@@@@@@@@@@@@@@@.....@%%%%%%%%%%%",
"%%%%%%%%%%%oO@@@X...@... .....................@@@@@@@@@@@@@@@@@@@@@@@@@@@@@@@@@@@@@.....@o%%%%%%%%%%",
"%%%%%%%%%%%X@@OX................O.............OOO@@@@@@@@@@@@@@@@@@@@@@@@@@@@@@@@@o@....@o%%%%%%%%%%",
"%%%%%%%%%%@O@O......  .......................OOOOOO@@@@@@@@@@@@@@@@@@@@@@@@@@@@@@@@@@..@@@o%%%%%%%%%",
"%%%%%%%%%@OOO.....   ..........O............OOOOOOOO@@@@@@@@@@@@@@@@@@@@@@@@@@@@@@@@@@@.@@@o%%%%%%%%",
"%%%%%%%% XOOX..... ....@.@@....OOO.........OOOOOOOOO@OO@@@@@@@@@@@@@@@@@@@@@@@@@@@@@@@@@...@o%%%%%%%",
"%%%%%%%%@.OXX.... ......@@...OOOOOO.OXXXXOOOOOOOO@O@@@@O@@@@@@@@@@@@@@@@@@@@@@@@@@@@@@@@@..@@%%%%%%%",
"%%%%%%%.@.XX.... ............OOOOOOOOOOO@@@@@@@@@@@@@@@@@@@@@@@@@@@@@@@@@@@@@@@@@@@@@@@@@@..@@%%%%%%",
"%%%%%%%.@.X.... .............OOOOOOOOO@@@@@@@@@@@@@@@@@@@@@@@@@@@@@@@@@@@@@@@@@@@@@@@@@@.....@%%%%%%",
"%%%%%%.@@X..................OOOOOOOOOO@@@@@@@@@@@@@@@@@@@@@@@@@@@@@@@@@@@@@@@@@@@@@@@@@......@o%%%%%",
"%%%%%%@@@@..............O..OOOOOOOOO@@@@@@@@@@@@@@@@@@@@@@@@@@@@@@@@@@@@@@@@@@@@@@@@@@@@O......%%%%%",
"%%%%%..@@@............OOOOOOOOOOOOOO@@@@@@@@@@@@@@@@@@@@@@@@@@@@@@@@@@@@@@@@@@@@@@@@@@OO..X....@%%%%",
"%%%%%.@@@@@.....  ...OOOOOOOOOOOOOOO@@@@@@@@@@@@@@@@@@@@@@@@@@@@@@@@@@@@@@@@@@@@@@@@@@@@OOX....@%%%%",
"%%%%@.@@@@@@.... .....OOOOOOOOOOOOOO@OO@@@@O@@@@@@@@@@@@@@@@@@@@@@@@@@@@@@@@@OOO@@@@@@@@@@@@@..@o%%%",
"%%%%@@@@@@@@@@@o@....OOOOOOOOOOOOOOOOOO@@@O@@@@@@@@@@@@@@@@@@@@@@@@@@@@@@@@@@OOOOO@@@@@@@@@@@@@@@%%%",
"%%%.@@@@@@@@@@o@@.....OOOOOOOOOOOOOOOXXO@@@@@@@@@@@@@@@@@@@O@@@@@@@@@@@@@@@@OOOOOOOO@@@@@@@OOO@@@o%%",
"%%%.+@@@@@@@@@oo@@.......OOOOOOOOOOOOXOOO@@@@@@@@@@@@@@@@@@@@@@@@@@@@@@@@@@OOOOOOOOOO@@@@@@OOO@O. %%",
"%%%.+@@@@o@@@oo@@@.......XOXXXXXXXXOOXXOO@@@@@@@@@@@@@@@@@@@@@@@@@@@@@@@@@@OOOOOOOOOO@OOO@@OOOOOO.%%",
"%%%@+.@@. @. oo@@@......XXXXXXXXXXXXXXXOOO@@@@@@@@@@@@@@@@@@@@@@@@@@@@@@@@@@OOOOOOOOOOOOOO@@OOOOOO%%",
"%%.@+.@@ ..  .@@@.......XXXXXXXXXX..XXXXOO@@@@@@@@@@@@@@@@@@@@@@@@@@@@@@@@@@OOOOOOOOOOOOOO@@OOOOoO %",
"%%.@+.@.    @@@@@........XXXXXXXX...XXOXX@@@@@@@@@@@@@@@@@@@@@@@@@@@@@@@@@@@OOOOOOOOOOOOOX@@OOXXoO.%",
"%%..+@@..  .@@@@.......XX.XXXXXXX.X.XO@OO@@@@@@@@@@@@@@@@@@@@@@@@@@@@@@@@@@@OOOOOO@OOXXXO@@@@X@+oOO%",
"%%+. @@ ...@@@@@@.OOOOOOOXXXXOOOXXOO@@@@@@@@@@O@O@@@@@@@@@@@@@@@@@@@@@@@@@@@OOOOOO@@XXXXX@@@@@@+oOO%",
"%.+..@@....@@@@@@OOOOOOOOOOOOOOOOO@@@@@@@@@@@OOOOOO@@O@@@@@@@@@@@@@@@@@@@@@@@OOOOO@@XXXXXX@@@@@+oXX@",
"%..+@.@.@@@@@@@@@@OOOOOOOOOOO@@@@@@@@@@@@@@@OOOOOOOOO@@@@@@@@@@@@@@@@@@@@@@@@OOOOO@@@XXXX.@@@@@++.Xo",
"%.@+@@@@@.@@@@@@@OOOOOOOOOOO@@@@@@@@@@@@OOOOOOOOOOOOOOOO@@@@@@@@@@@@@@@@@@@@@@OOOOOXXXXXX@@@@@+++.X@",
"%.@.@o@@@@@@@@@@@OOOOOOOO@@@@@@@@@@@@@OOOOOOOOOOOOOOOOOOO@@@@@@@@@@@@@@@@@@@@@@OOOOXXXXX.....@+++..X",
"%.@. @@.@@@@@@@@@OOOOOOOO@@@@@@@@@@@OOOOOOOOOOOOOOOOOOOOOX@@@@@@@@@@@@@@@@@@@@@@OOOXXXX.......++...X",
"%@..++.$..@@@@@@@OOOOOOOO@@@@@@@@@OOOOOOOOOOOOOOOOOOOOOOXXX@@@@@@@@@@@@@@@@@@@@@OO@@XXX.......++....",
"%@+.+..#..@@@@@@@OOOOOOOO@@@@@@@@@OOOOOOOOOOOOOOOOOOOOOXX@@@X@@@@@@@@@@@@@@@@@@@@@@@@XX.......+.....",
"%@+.+..#.@@@@@@@OOOOOOOO@@@@@@@@@@OOOOOOOOOOOOOOOOOOOOOXX.@@@OX@@@@@@@@@@@@@@@@@@@@@@@@@............",
"%o@+++.#..@@@@@@OOOOOOO@@@@@@@@@@OOOOOOOOOOOOOOOOOOOOOOOX..@@OX@@@@@@@@@@@@@@@@@@@@@@@@.............",
"%o@+++..#O@@@@OOOOOOOOO@@@@@@@OOOOOOOOOOOOOOOOOOOOOOOOOOOOOO@O@@@@@@@@@@@@@@@@@@@@@@@...............",
"%@@@++..###@@@@OOOOOOOO@@@@@@OOOOOOOOOOOOOOOOOOOOOOOOOOOOOOOO@@@@@@@@@@@@@@@@@@@@@@@@...............",
"%@@@@@@@#$#O@@@OOOOOOOO@@@@@@OOOOOOOOOOOOOOOOOOOOOOOOOOOOOOOO@@@@@@@@@@@@@@@@@@@@@@@@XX..OOO.O......",
"%@.@@@@@@##@@@OOOOOOOOO@@@@@OOOOOOOOOOOOOOOOOOOOOOOOOOOOOOOOO@@@@@@@@@@@@@@@@@@@@@@@@XX..OOOOOO.....",
"%@@@@@@@@@O$@@OOOOOOOOO@@@@OOOOOOOOOOOOOOOOOOOOOOOOOOOOOOOOOO.@@.@@@@@@@@@@@@@@@@@@@@XX..OOOOOO..+..",
"%@@@@@@@@OOO#@OOOOOOOO@@@@OOOOOOOOOOOOOOOOOOOOOOOOOOOOOOOOX...@@@..@@@@@@@@@@@@@@@@@@XXXOOO@@@O..@@.",
"%.@@@@@@@#$#O#OOOOOOOO@@@OOOOOOOOOOOOOOOOOOOOOOOOOOOOOOOOXX.@.@@.@@@@@@@@@@@@@@@@@@@@XXOO@@O@@O..@.@",
"%@@@@@@@@@$$#O#OOOOOOO@@@OOOOOOOOOOOOOOOOOOOOOOOOOOOOOOOXX.@@@@@@@@@@@@@@@@@@@@@@@@@@.OOOOOOO@...@.@",
"%@@@@@@@@@#$##O#OOOOOO@@@OOOOOOOOOOOOOOOOOOOOOOOOOOOOOOOXX@@@@@@@@@@@@@@@@@@@@@@@@@@@OOOOOOOO@...o..",
"%@@@.@@@@@@$$##O#OOOOO@@@OOOOOOOOOOOOOOOOOOOOOOOOOOOOOOOXX@@@@...@@@@@@@@@@@@@@@@@@@@OOOOOOOOO...o.o",
"%%@@@@@@@@@@$$#OOOOOOOO@@OOOOOOOOOOOOOOOOOOOOOOOOOOOOOXXX@@@.....@.@@@@@@@@@@@@@@@@.@OOOOOOOO...@o.%",
"%%OX@@@@@@@@@###O#OOOOO@@@OOOOOOOOOOOOOOOOOOOOOOOOOOOOXXX.@.......@.@@@@@.@@@@@@@@@OOOOOOO+O....o+.%",
"%%XO@@@@@@@@@.@OO##OOOO@@@OOOOOOOOOOOOOOOOOOOOOOOOOOOXXX...........@.@@@..@@@@@@@@@@@OOOOO+...@oo+.%",
"%%XX@@@@@@@@@@.XO##OOOO@@@@OOOOOOOOOOOOOOOOOOOOOOOOXXXX.............@.@@@@..@@@@@@@@@OOOO+....oo+o+%",
"%%%OX@@@@@@@@@..##OOOOO@@@@OOOOOOOOOOOOOOOOOOOOOXXXXXX..............@@@@.@...@@@@@@@OOOOO+...@oo+o%%",
"%%%@X@@@@@@@@@...OOOOOO@@@@@OOOOOOOOOOOOOOOOOOOXXXXX.................@@@@.....@@@@@@@OOOOX...oo++o%%",
"%%%X@.@@@@@@@@@..OOOOOO@@@@@OOOOOOOOOOOOOOOXXXXXX.........@..........@.@@.....@@@@@@@OOOXX.@@oo+oo%%",
"%%%@@X.@@@@@@@@OXOOOOOO@O@@@@OOOOOOOOOOOOOXXXXXXXXX.......@............@@@....@@@@@@@@@.X..@+o++oo%%",
"%%%%O..@@@@@@@OOOOOOOOO@O@@@@OOOOOOOOOOOXXXXXXXXXX........@@@@........@@@@....@@@@@@@@@XX..@o++oo%%%",
"%%%%@@..@@OOO@OOOOOOOOO@O@@@@OOOOOOOOOXXXXXXXXXXX........@@@@@@@@.....@@@@....@@@@@@@@@..@@+o++oo%%%",
"%%%%%...@@@@@OOOOOOOOOO@O@@@@@@O@OOOXXXXXXXXXXX..........@@@@@@@@.....@@@@@..@@@.@@@@@@@@@+o++oo%%%%",
"%%%%%@@..@O@OOOOOOOOOOOOO@@@@@@@@OOXXXXXXXXXX..@@...@@.@@@@@@@@@@@...@@@@@@.....@@@@@@@@@@++++o@%%%%",
"%%%%%%..@.@@OOOOOOOOOO@OO@@@@@@@@@OOXXXXXXX....@@@.@@@@@@@@@@@@@@@@@@@@@.@@.....@@@@@@@+@++++o@%%%%%",
"%%%%%%....@X@OOOOOOOOOOOOO@@@@@@@@OOXXXXXXX.@@@@@@@@@@@@@@@@@@..@@@@@@..@@@..@@@@@@@@@++++++oo@%%%%%",
"%%%%%%%....@@OOOOOOOOOOOOO@@@@@OOOOOXXXXXX...@@@@@@@@@@@@@@@@@...@@@@..@@@@@@@@@@@@@@#++++++o@%%%%%%",
"%%%%%%%.....@O@@OOOOOOOOOOO@@@@OOOOOOOXXXX.......@@@@@@@@@@@@@    .....@@@@@@@@@@@@X#++++++oo@%%%%%%",
"%%%%%%%%@@...@@@XOOOOOOOOOOO@@@OOOOOOOOXXX..........@@@@@@@oooo     ....@@@@@@@@@@@#++++++oo@%%%%%%%",
"%%%%%%%%.@@...@@XXOOOOOOOOO@@@OOOOOOOOOXXX..........@@@@@@oooooo    .....@@@@@@#OO##+++@+oooO%%%%%%%",
"%%%%%%%%% @@@@@@.OOOOOOOOOO@@@OOOOOOOOOOXX.........@@@@@@@oooooo   ....@@@@@...####+++@@oooO%%%%%%%%",
"%%%%%%%%%%o...OOXXOOOOOOOOO@@@OOOOOOOOOOXX...........@@@@@ooooooo .....@@@.##O####+++@@@oo@%%%%%%%%%",
"%%%%%%%%%%%@..OOXOOOOOOOOOO@@@OOOOOOOOOOXXX.......@@@@@@@ooooooo@....##@..####$$$+++@@@@oo%%%%%%%%%%",
"%%%%%%%%%%%@@.OOOOOOOOOOOOOO@@@OOOOOOOOOOOXX........@@@@@oooo@@@@@@@###@#####$$$+++.@@@@o.%%%%%%%%%%",
"%%%%%%%%%%%%@X.OOOOOOOOOOOOOO@@@@OOOOOOOXOOX........@@@@@o@@@@@@@@@######O##$$$++....@@o@%%%%%%%%%%%",
"%%%%%%%%%%%%%OX.OOOOOOOOOOOOO@@@@@OOOOOOOOOO.......@@@@@@@@@@@@@@@###@@OOOO$$+++...@@@o@%%%%%%%%%%%%",
"%%%%%%%%%%%%%%O@OXOOOOOOOOOOO@@@@@@@OOOOOOO.......@@@@@@@@@@@@@@@@@@@OOOOO#$++#X..@@@o@%%%%%%%%%%%%%",
"%%%%%%%%%%%%%%%OOOXOOOOOOOOO@@@@@@@OOOOOOXXO......@@@@@@@@@@@@@@@@@@OOOOOO$+$OX..@oo@o%%%%%%%%%%%%%%",
"%%%%%%%%%%%%%%%%OOOXXOOOOOOO@@@OOOOOOOOOOOXX........@@@@@@@@..@@@@@OOOOOO$$OOX..@oo@o%%%%%%%%%%%%%%%",
"%%%%%%%%%%%%%%%%%XOOXXOOOOOOOO@@OOOOOOOOOOOOXX........@@@@@@@@@OOOOOOOOO$OOXX..@oo@o%%%%%%%%%%%%%%%%",
"%%%%%%%%%%%%%%%%%%..@.XXOOOOOOO@OOOOOOOOOXXXXXXXXX.......@@@@@@OOOOOOO#$OOXX..@ooo %%%%%%%%%%%%%%%%%",
"%%%%%%%%%%%%%%%%%%%.....XOOOOOOO@@@OOOOOXXXXOOXXXX..........@.OOOOOOO$OOOX...@o o %%%%%%%%%%%%%%%%%%",
"%%%%%%%%%%%%%%%%%%%%%.....XOOOOOOO@OOOOXXXXXXXXXOOX...........OOOOXX#OOX...@oooo%%%%%%%%%%%%%%%%%%%%",
"%%%%%%%%%%%%%%%%%%%%%%.....XOOOOXOOOX@XXXXXOXXXXOO..............O.XX..@@@@@ooo %%%%%%%%%%%%%%%%%%%%%",
"%%%%%%%%%%%%%%%%%%%%%%%. ....OOOOOOXX@@XX...OOOOOO...........@.@@@@@@@@@@ooo  %%%%%%%%%%%%%%%%%%%%%%",
"%%%%%%%%%%%%%%%%%%%%%%%%%. ...XOOOOXX.@@@@...............@@@@@@@@@@@@@ooo  o%%%%%%%%%%%%%%%%%%%%%%%%",
"%%%%%%%%%%%%%%%%%%%%%%%%%%% .............@@...........@@@@@@@@@@@oooooo o %%%%%%%%%%%%%%%%%%%%%%%%%%",
"%%%%%%%%%%%%%%%%%%%%%%%%%%%%%O............@...@@@.@@@.  o  ooooooooooooo%%%%%%%%%%%%%%%%%%%%%%%%%%%%",
"%%%%%%%%%%%%%%%%%%%%%%%%%%%%%%%O.....    ..........  oo   ooooooooooo@%%%%%%%%%%%%%%%%%%%%%%%%%%%%%%",
"%%%%%%%%%%%%%%%%%%%%%%%%%%%%%%%%%......                 o  oooo@@@@.%%%%%%%%%%%%%%%%%%%%%%%%%%%%%%%%",
"%%%%%%%%%%%%%%%%%%%%%%%%%%%%%%%%%%%%%....                   @.@@%%%%%%%%%%%%%%%%%%%%%%%%%%%%%%%%%%%%",
"%%%%%%%%%%%%%%%%%%%%%%%%%%%%%%%%%%%%%%%%% .......... .......%%%%%%%%%%%%%%%%%%%%%%%%%%%%%%%%%%%%%%%%"
};
