/* XPM */
static char *result[] = {
/* columns rows colors chars-per-pixel */
"64 64 242 2 ",
"   c #1D0000",
".  c #1C1600",
"X  c #201C05",
"o  c #290014",
"O  c #0C2E00",
"+  c #212900",
"@  c #243515",
"#  c #253904",
"$  c #25142B",
"%  c #0D2A22",
"&  c #253C29",
"*  c #283838",
"=  c #272635",
"-  c #346E00",
";  c #28442C",
":  c #2A4A3D",
">  c #284536",
",  c #2E553A",
"<  c #2B5F2B",
"1  c #3A752D",
"2  c #336836",
"3  c #37733A",
"4  c #306A2E",
"5  c #004C00",
"6  c #437A1A",
"7  c #381256",
"8  c #103348",
"9  c #2A3946",
"0  c #363D5A",
"q  c #342851",
"w  c #3B3967",
"e  c #3D2B63",
"r  c #3D1F60",
"t  c #4D3776",
"y  c #441065",
"u  c #2B4C44",
"i  c #2C4D4C",
"p  c #2A4548",
"a  c #2D534C",
"s  c #2A5347",
"d  c #33574B",
"f  c #2A4D54",
"g  c #274A56",
"h  c #2E5553",
"j  c #2F5954",
"k  c #2E565A",
"l  c #315A55",
"z  c #315C5A",
"x  c #315555",
"c  c #324753",
"v  c #356947",
"b  c #3B7D4F",
"n  c #38754B",
"m  c #356552",
"M  c #376955",
"N  c #367952",
"B  c #3A7C51",
"V  c #377350",
"C  c #2F6452",
"Z  c #3B4669",
"A  c #335D63",
"S  c #3B5373",
"D  c #007068",
"F  c #37696C",
"G  c #356466",
"H  c #396D72",
"J  c #356C7D",
"K  c #3B747C",
"L  c #3A7579",
"P  c #30736F",
"I  c #1C414A",
"U  c #444C5A",
"Y  c #44784C",
"T  c #457A5C",
"R  c #474776",
"E  c #45567C",
"W  c #4E5870",
"Q  c #4A667A",
"!  c #4C6974",
"~  c #1D9400",
"^  c #51900A",
"/  c #56A408",
"(  c #63A600",
")  c #63A900",
"_  c #64AA0B",
"`  c #64AA14",
"'  c #63A91B",
"]  c #478739",
"[  c #579A35",
"{  c #4F8E2B",
"}  c #5BA827",
"|  c #5AA638",
" . c #64AB2C",
".. c #64AA25",
"X. c #63AA34",
"o. c #63AB3E",
"O. c #68A838",
"+. c #67B03E",
"@. c #68B238",
"#. c #3E8154",
"$. c #3E814F",
"%. c #3D8371",
"&. c #42844D",
"*. c #4C8C4B",
"=. c #48864A",
"-. c #4E9247",
";. c #5A9C44",
":. c #539848",
">. c #4A8856",
",. c #549854",
"<. c #538E52",
"1. c #5DA343",
"2. c #5DA549",
"3. c #5EA651",
"4. c #63AB43",
"5. c #63AC4B",
"6. c #60A743",
"7. c #67B345",
"8. c #63AC52",
"9. c #62AD5C",
"0. c #67B250",
"q. c #4D8F6E",
"w. c #6D9372",
"e. c #5CA56E",
"r. c #64AE67",
"t. c #65B267",
"y. c #63B27D",
"u. c #64B373",
"i. c #7EB76A",
"p. c #88B77A",
"a. c #3E7C84",
"s. c #3C7585",
"d. c #3F6C81",
"f. c #3D5C80",
"g. c #475A83",
"h. c #575785",
"j. c #635987",
"k. c #446885",
"l. c #477589",
"z. c #4A7998",
"x. c #596D91",
"c. c #676995",
"v. c #6A729C",
"b. c #6A749A",
"n. c #6F6D96",
"m. c #677DA2",
"M. c #42838D",
"N. c #458A86",
"B. c #438592",
"V. c #458B95",
"C. c #468C9A",
"Z. c #4C889B",
"A. c #48959A",
"S. c #4F908B",
"D. c #758B8A",
"F. c #58AA97",
"G. c #57A994",
"H. c #63B485",
"J. c #63B48B",
"K. c #63B694",
"L. c #63B899",
"P. c #4E89A5",
"I. c #4A95A4",
"U. c #4D9CAB",
"Y. c #4B95A7",
"T. c #5293AC",
"R. c #4F9CB1",
"E. c #549CB5",
"W. c #5395B1",
"Q. c #5587A8",
"!. c #6786AA",
"~. c #6699B8",
"^. c #6A92AC",
"/. c #52A7A9",
"(. c #5DB4AB",
"). c #4EA1B1",
"_. c #51A4B5",
"`. c #54AABC",
"'. c #55A5BA",
"]. c #59B4B9",
"[. c #63B9A4",
"{. c #62BAAC",
"}. c #62BCB3",
"|. c #62BEBB",
" X c #66C2B6",
".X c #32B3CA",
"XX c #55ADC1",
"oX c #5AABC5",
"OX c #57B1C4",
"+X c #59B3C5",
"@X c #5AB4CB",
"#X c #5BB9CD",
"$X c #57B7C6",
"%X c #5DBCD3",
"&X c #5DBCD6",
"*X c #49B2C5",
"=X c #66A7C4",
"-X c #63B7CA",
";X c #62BCD6",
":X c #5EC1D6",
">X c #5EC2D9",
",X c #55C4DA",
"<X c #4AC3DC",
"1X c #62C0C4",
"2X c #63C3CC",
"3X c #67C9CC",
"4X c #62C5D4",
"5X c #62C6DE",
"6X c #62C8DF",
"7X c #6CC6DA",
"8X c #5BC9E4",
"9X c #4CC5E0",
"0X c #62C9E2",
"qX c #63CCEA",
"wX c #66CAE3",
"eX c #66D1EA",
"rX c #68D3ED",
"tX c #67D6E7",
"yX c #6AD8F2",
"uX c #6ACDEC",
"iX c #6FE3FF",
"pX c #8CB78D",
"aX c #9397B2",
"sX c #95BAAF",
"dX c #AAB0B6",
"fX c #9FC299",
"gX c #B3CDAA",
"hX c #A4CF8E",
"jX c #B9BCC3",
"kX c #95CAD7",
"lX c #AFCECD",
"zX c #ABD4E2",
"xX c #C5CAC5",
"cX c #CCD7D6",
"vX c #D0D0D8",
"bX c #D6E4D1",
"nX c #D0DAE8",
"mX c #CDE6E5",
"MX c #F9FEEC",
"NX c #EDECF0",
"BX c #E0EAD9",
"VX c None",
/* pixels */
"VXVXVXVXVXVXVXVXVXVXVXVXVXVXVXVXVXVXVXVXVXVXVXVXVXVXVXVXVXVXVXVXVXVXVXVXVXVXVXVXVXVXVXVXVXVXVXVXVXVXVXVXVXVXVXVXVXVXVXVXVXVXVXVX",
"VXVXVXVXVXVXVXVXVXVXVXVXVXVXVXVXVXVXVXVXVXVXVXVXl.8XOX%X#X#X#X%X_.F A @ * c $ B.B.VXVXVXVXVXVXVXVXVXVXVXVXVXVXVXVXVXVXVXVXVXVXVX",
"VXVXVXVXVXVXVXVXVXVXVXVXVXVXVXVXVXVXVXVXVXY.+X@XrXrXeXeXtXwXqXqXqXqX+XI.K X * c p * = s.VXVXVXVXVXVXVXVXVXVXVXVXVXVXVXVXVXVXVXVX",
"VXVXVXVXVXVXVXVXVXVXVXVXVXVXVXVXVXVXVXz.eXrX0X>X&X&X@Xq.A.$XwX5X5X6XwXeX>X@X%X%X+Xl.A oXQ.W.VXVXVXVXVXVXVXVXVXVXVXVXVXVXVXVXVXVX",
"VXVXVXVXVXVXVXVXVXVXVXVXVXVXVXVXVXT.yXtX0X6X>XOXXX& > ; (.6X5X0X5X0X5X5X0X0XqXwXqX0X0X0XeX(.M.o VXVXVXVXVXVXVXVXVXVXVXVXVXVXVXVX",
"VXVXVXVXVXVXVXVXVXVXVXVXVXVXVX2X`.#.I.:X0X6X6XqX8X&X0XI.].tX5X0X0X5X0X0X5X6X6X6X5X5X5Xx.@XtX>X].C.6XVXVXVXVXVXVXVXVXVXVXVXVXVXVX",
"VXVXVXVXVXVXVXVXVXVXVXVXVXVX4.] v v , u OX0X5X5X8XwX_.U.>X0X0X0X0X5X5X0XqX0X5X5X0XqX~.c.v.~.Q.P.c Q.S VXVXVXVXVXVXVXVXVXVXVXVXVX",
"VXVXVXVXVXVXVXVXVXVXVXVX[ 7.>.B l h z a j G F 6X0X0X&X5X0X5X0X5X0X0X0X5XXXA `.rXwX8X!.c.v.c.t E E.0X;XW.E.VXVXVXVXVXVXVXVXVXVXVX",
"VXVXVXVXVXVXVXVXVXVXVX( r.$.C j h h j h l a > Y.qX5X0X0X5X0X0X5X5X5XqX`.M.z.z.l.OXqX!.c.v.c.~.qX0X0XeXtXrXz.VXVXVXVXVXVXVXVXVXVX",
"VXVXVXVXVXVXVXVXVXVX[  X/.n j a j l h l h l a ).0X5X6X5X5X0X5X0X0X5XqXY.> ).H k.%XqX!.c.c.c.~.5X0X5XoXT.e 0 Z VXVXVXVXVXVXVXVXVX",
"VXVXVXVXVXVXVXVXVX{ 1XqX%.; h l h h j h l a l 5XeXqXeXqXwX0X5X5X0X6X6X0X#X).F qX0X0X!.~.-Xm.v.!.=X0XoXoX@X5XY.r VXVXVXVXVXVXVXVX",
"VXVXVXVXVXVXVXVX1 3XeXN.; B.F a j l h h h k u H _.U.R.U.`.0XqX0X6X0X6X6XwXqX0X>X6X0X0X0XqX0X0X5X0X0XtXwXqX`.l.i E.VXVXVXVXVXVXVX",
"VXVXVXVXVXVXVXT 3X6XN.@ L U.j a x x j h M m x a ; ; > ; & _.3X5X0X0X0X0X>X0X0X5X0X0X8X6X6X6X6X0X0X0X5X0X;XG > > @XVXVXVXVXVXVXVX",
"VXVXVXVXVXVXVX(. X- s l a * u a : i l h Y l h k l z z k l | ( y.1X0X0X0X6X0X0X5X0X>X6X0X6X6X0X6X0X5X5X0X@X>Xs.G 5XE.VXVXVXVXVXVX",
"VXVXVXVXVXVXL.7.Y g l i 9 p H H M.H p M -.d f f h h g d | o.4.( ( 1X1X5X0X5X0X0X0X6X0X6X0X6X6X0X0X5X0X5X0X0X0X+X_.%XP.VXVXVXVXVX",
"VXVXVXVXVXI.[ -.j x h u l a G `.%XA Y ;.+.+.Y =.3 n >.8.8.8.4.L.J.4X}.{.0X0X5X0X0X0X6X0X6X0X0X6X5X0X0X0X5X5X0XqX+X; 0X#XVXVXVXVX",
"VXVXVXVXVX+Xv V h h p h h l u G d 9 =.+.o.o.4...y.|.6X5X5X5X5X0X0X0XqX>X6X0X6X0X5X0X0X5X5X0X5X0X0X0X5X0X0X6X5X0X&XC.z >XVXVXVXVX",
"VXVXVXVX_.%Xm k h h h l l h g d g C 1.4.o.o.5.4.1XqX5X0X6X6X0X5X0X6X5X0X6X6X0X6X0X5X0X0X0X6X0X0X0X5X5X0X6X6X0X&XM s & U.P.VXVXVX",
"VXVXVXVX:XrXV.& z k l h h l Y 1.=.1.o.o.o.o.4.5X0X6X6X0X0X6X6X0X0X5X0X6X0X6X6X0X0X5X5X0X0X5X6X5X0X0X0X0X6X0X>X Xq., d a K VXVXVX",
"VXVXVXF :XwX:XF @ u & a h Y +.o.+.o.o.o.4.o.5.4X4X0X0X4X5X6X6X6X0X0X5X0X6X0X6X0X0X0X0X5X0X0X5X8X0X:X2X0X0X6X6X2XK.q.%.i M.&XVXVX",
"VXVXVX5X0X6XqX:XU.Z.M.j h Y o.o.o.o.o.o.o.o.5.H.4.qX5X[.5X0X0X5X5X>X0X0X5X5X5X6X5X5X0X0X0X5X0X0XqXH.( K.1XqX6X0X0X0XuX+X'.%XVXVX",
"VXVXZ.uX6X0X6X0XqXT.;XH i M ;.;.o.o.o.o.o.o.@.[ ] K.5X4X0X5X0X0X0X0X6X0XqX1X-X0X6X0X0X5X0X5X5X0X}.X.5.) o.J.5XqXqX0XJ.r.6X4Xf.VX",
"VXVXW -XqX@X@XeXW.E qX`.& j f f ;.:.*.-.-.*.4.;.>.) 1X8X5X6X0X5X0X0X0X5X0X8X0X5X5X0X0X5X0X0X0X5X4.X.4.4.4.( (.{.L.0Xy.( H.` s VX",
"VXVX=Xl.eXG V.H o '.tXV.: l l V $.b N b N N V #.N 1.t.0X0X6X6X5X5X5X0X0X0X5X0X0X0X0X5X0X5X0X5XqX}.( 4.4.o.4.8...( [.4X .` 8.;.VX",
"VXL =XB.`.p X G $XqX$X> f g g l b $.b N #.M g 4 ,.^ /.8X5X0X0X0X5X6X0X0X5X0X0X5X5X0X0X0X5X0X0X0X X) 4.o.5. .o.2.' /.6X..,.! ,.VX",
"VXQ U 7XU.X = _.eX0XW.2 =.&.=.*.M N $.[ 3 v ] G.1XL.4X6X0X:X2X5XqX0X0X5X0X5X0X0X0X5X5X0X0X5X>XqX].) 8.) {.F.{ N ,.6XwX$XoXh.7.VX",
"VXW x #XT.z a.0X0X0X8Xr.@.+.+.o.2.| 1.t.r.H.3XwX8XqXqXqX2X8.9.8.(.2X1XqX5X0X5X0X0X0X5X0X0X0X5X5X0Xt.X.)  X8X$.$.n /.0X8X;Xh.] /.",
"VXZ.=X+X@X+X@XqX5X5X5XH...1.o.4. . .1X8X0X0X0X0XqX2X[.{.8...o. .` 5.{.}.0X5X0X5X5X0X0X5X5X0X0X5X0X|.) } J.].S.3 b `.qXqX=Xc.m I.",
"VX-XI.+X<X>X;XwX5X0X4X( 4.4.o.5.2X4X0X0X0X0X8X4XK.5.( ) o.4.4.4.4.o.( ) (.8X0X6X5X0X0X0X5X0X0X5X0XqX}.o.) - b #.M a.F U.m.c.x q.",
"VX_.Z P.sX^.*XqX0X0X4Xo.o.o.o.5.0XwX5X5X0X4XL.o.` o.5.4.o.o.4.o.4.o.5.4.] /.0X0X0X0X5X0X0X5X0X5X0X5XqXr.J./.1 4 i u u : n.Q s s ",
"VX~.W 8 dXp.E.0X&XqX-X .4.4.` u.5X0X5X0XqX-X) 4.4.4.o.6.o.4.o.o.o.o.4.] V.6X].].>X0X0X5X0X5X0X8X0X0X0X5X0XeX/.S.J a l l Q k h h ",
"VX=Xb.S dXD..X8X0X5Xu.` 4.X.r.>X0X0X0X5X5XK.X.4.o.o.o.o.o.o.o.o.o.o.4.;.2 U.tX^ ].qX5X0X6X0X5X0X5X5X5X0X0X,XqX%XF a l l a j h j ",
"VX0X!.j.d xXkXrX>XJ.o.4.5.) J.qX5X8X4Xr.4. .o.o.4.o.| o.o.o.o.4.o.4.4.o.6.( K.].qX5X0X5X0X0X0X5X0X0X0X>X5XtXC.& h g g h h x x h ",
"VXrX5X-X`.BXNX(.qX}.( 4.4.` H.wX5XqX[.( 4.4.o.6.o.4.4.o.4.o.o.o.o.o.o.o.4.o.X.wX0X0X5X0X0X5X5X0X0X5X0X0X5XqXA.4 m ;.:.>.Y g a j ",
"VX;X5XqX8X7XlXzX9X4.o.o.4.` y.qXqX|.X.4.4.4.o.o.o.o.o.o.o.o.o.o.o.4.o.o.o.4.X.+X0X+X0X6X0X5X0X0X0X5X0X0X6XqXF.4 k `  ._ [ h W s ",
"VXrX0X5X0X7Xi.gXkX| o.4.4.X.1XqX|.' o.4.o.o.o.o.o.o.4.o.o.o.o.o.o.o.o.o.4.=.2 M.0XA.Y.0X5X0X0X5X5X0X0X5X6XeXA.4 ,.y.}.7Xe.i @XV.",
"VX6XqX0X8X7XNXBXgXpX/ 4.o.o.5X5XO.X.4.o.o.o.o.o.4.o.o.o.o.o.o.4.4.4.o.+.=.P #X@X0X#X6X5X0X5X0X0X0X0X0X0X5XqXA.^ 0.}.r.3XN.m '.`.",
"VXiX%X4X8X&XzXMXcXgXfX| 4.o.5X5X8.o.4.o.o.4.o.4.o.o.o.4.4.o.o.o.o.| +.1.4 #XrX6X+X>XqX6X5X0X5X0X0X5X>X0X5XqX(.( 4.) ( K.s.> S H ",
"VX6X%X%X0X0X9XmXMXgXpXo.|  .{.0X8.o.o.o.o.o.6.o.o.o.o.o.o.o.o.o.o.+.2.] S.qX`.l.. C.OX>X0X0XwX0X5X0X0X0X5X`.L.( 5.5.7.;.# C.k.p ",
"VX^ |.qX5X0X8X8XzXcXp.xX5.) y.qX(.( 5.o.o.o.o.o.o.4.o.o.o.o.4.o.o.+.-.n P U.u , z j Y.R.0X0XA.`.eX5X0X5X0XL.r.X. .w.q.s a.Q c.VX",
"VX- K.0X8X6X6XwX*XD p.NXi./ H.qX5Xr. .4.o.o.o.o.o.o.4.o.o.o.o.o.1.&.$.M i : j l j h a U.'.8X`.Y.U.qX6X0X6XqXK.) 5.x.k F z.h.h.VX",
"VXVXq.#XqX5X0X0X6X% dXfX} ..H.qXqX{.` 4.o.o.4.o.o.o.o.o.o.+.-.N B V C h j a z j k l : M.0X0X`.K + U.0X5X6X4Xr.` 7.! O a.k.c.g.VX",
"VXVX#XU.5X6X6X5XwX).5 } 7._ J.8X5X6X9.o.4.o.o.o.o.o.+.:.=.=.b V m j h a z U.@ u l j l a R.XX%X> l G 0X0X6XqX{.4.,.< XXP.R v.Z VX",
"VXVX3X>.U.eX5X5XwXL.[ 5.2.) K.L.2XqX{.) 4.o.o.o.o.1.-.B B N #.#.C z j z j @XU.V.> h l k m +XrXV.& G 5X0X6X5XqXOX- u OXx.c.h.VXVX",
"VXVXVX_.a 8X XK.|.X.o.o.4.( K.{.4XqX|.8.8.3.o.1.-.b N b $.T 4 v l > a + A.qXqX6X%XU.> u K qXqXU.; B.tX%X6X0XwX+XL ;XQ.h.c.e VXVX",
"VXVXVX`.l.).1X2X8.o.4.o.4.X.u.y.5X0X0X5X2Xu.[ b V b b b 4 < R.a.# U.V.C.%X0X5X0XeX%XF > _.tX5X6Xz M.C._.0X6X0X0XrX=Xj.v.z.VXVXVX",
"VXVXVXVXL M.`.].4.o.o.o.o.5.K.' 2X8X0X0XqX1X` B b b b n B.M.0X>XY.qX6X0XqX5X6X&XOXqX5X:X0X`._.5X: F K :X0X0X,X=X~.!.v.h.@XVXVXVX",
"VXVXVXVXd @ L :XK.' 5.o.6.o.o._ H.qX0X4XK.J.X.$.b b B s U.eX>X0XeX0X6X6X5X6XtXOX. _.0XwXB.M.qX5X'.5XrX6X5X9XzXn.c.v.j.P.VXVXVXVX",
"VXVXVXVXVXY.z K (.6Xy.' 2.o.4.4.X.[.qX4X( ' 4.o.-.N b h : m h Y.`.&XqX0XqX>XoXW.$ * k z ; I.wX5XqXwX6X8X9XsXaXc.n.v.R oXVXVXVXVX",
"VXVXVXVXVX_.wXH I.rXN.{ 7.o.o.4.` [.qXK.X.5.o.o.o.&.b h l a k u & #XwX&XwXz.7 Z S 9 = p z u U.tX<X.XkXsXlXvXt =X!.y N.VXVXVXVXVX",
"VXVXVXVXVXVXY.`.).}.q.[ 7.o.o.4.) 2XqXr. .4.4.o.+.:.M j h l l a a.`.0X0X0Xg.R Z w q * f O R.tX*XjXT lXNXvXn.!.eXz.z.G.VXVXVXVXVX",
"VXVXVXVXVXVXVX)., ) -.1.o.4.4.4._ ].qXJ.( 4.4.4.o.1.$.C h k h z _.XX0XqX'.r e k.z.U.P J xXkXT.dXNXbXMXBXn.Q.qXrXP.g.VXVXVXVXVXVX",
"VXVXVXVXVXVXVXyX/.^ +.o.| o.o.4.o.X.1X0X{.5.) o.+.1.1.-.j j l l & @XwXqXT.P.'.0X0XqXwXnXNXmXcXcXNXMXBXb.W z ;X;XE.VXVXVXVXVXVXVX",
"VXVXVXVXVXVXVXVX2.q.e.o.7.o.o.o.5.( J.qXqX2Xy.5.o.1.4.| m h k i U.5X6X6X>X0XqX0X6X,XzXnX7XfX@.pXNXjXaX8 F &X@X'.VXVXVXVXVXVXVXVX",
"VXVXVXVXVXVXVXVXVXK.u.[ 6.7.o.4.o.5.4X0X4XqX$XX.o.o.:.*.l h d m 5XqX0X6X0X5X>X:XqX8XqX1X} } ~ bXxXpXD.G R.oXE.VXVXVXVXVXVXVXVXVX",
"VXVXVXVXVXVXVXVXVXVX..7.-.] o.o.X.9.1X4Xy.4. .X.o.o.1.:.V h h k l U.:XeX0XtX_._.4X|.}.o.} / gXbXr.1 D ~.z.W.VXVXVXVXVXVXVXVXVXVX",
"VXVXVXVXVXVXVXVXVXVXVX1 S.C.] 2.o.4.( L.}.5.5.4.1.7.:.-.=.b V V h & F M.`.5X6XqXy.(  ./ p.bXhX~ < J '.R l.VXVXVXVXVXVXVXVXVXVXVX",
"VXVXVXVXVXVXVXVXVXVXVXVXVXM h m :.4.5.) H.4X[.(  .<.N N -.&.b -.M j a > k l P.>.o.| { p.gX .- G a.Q.E 0 VXVXVXVXVXVXVXVXVXVXVXVX",
"VXVXVXVXVXVXVXVXVXVXVXVXVXVXj k g Y o.7.} 6.8.G.F.- 4 *.*.$.-.@.m k j l u @ @ j >.e.P D.S.:X#X`.z.e 0 VXVXVXVXVXVXVXVXVXVXVXVXVX",
"VXVXVXVXVXVXVXVXVXVXVXVXVXVXVXi d f M ;.6.+.{ L ,X`.I.u <.] { =.: > z a B._._.#X%XeX0X8X5X`.T.Z w VXVXVXVXVXVXVXVXVXVXVXVXVXVXVX",
"VXVXVXVXVXVXVXVXVXVXVXVXVXVXVXVXVX9 m M M M M , F s.%XR.% J V.F M.a.M.XX$X@X&X&X:XE.g.z.E 7 7 VXVXVXVXVXVXVXVXVXVXVXVXVXVXVXVXVX",
"VXVXVXVXVXVXVXVXVXVXVXVXVXVXVXVXVXVXVX*.Y g z x * + z M.; M._.Q I.I.Z q 9 q r 7 r E E Z Y.VXVXVXVXVXVXVXVXVXVXVXVXVXVXVXVXVXVXVX",
"VXVXVXVXVXVXVXVXVXVXVXVXVXVXVXVXVXVXVXVXVXx l h z i 9 $ 9 $   =     9 9 0 9 z.z.;X0XoXVXVXVXVXVXVXVXVXVXVXVXVXVXVXVXVXVXVXVXVXVX",
"VXVXVXVXVXVXVXVXVXVXVXVXVXVXVXVXVXVXVXVXVXVXVXVXVXVXp a i i h f h p p i i p V.VXVXVXVXVXVXVXVXVXVXVXVXVXVXVXVXVXVXVXVXVXVXVXVXVX"
};
