/* XPM */
static char *result[] = {
/* columns rows colors chars-per-pixel */
"100 100 10 1 ",
"  c #283540",
". c #2F5753",
"X c #3B7D4F",
"o c #404973",
"O c #63AB3F",
"+ c #686F99",
"@ c #62C8E0",
"# c #DFE0E8",
"$ c #F5FFE8",
"% c None",
/* pixels */
"%%%%%%%%%%%%%%%%%%%%%%%%%%%%%%%%%%%%%%%%%%%%%%%%%%%%%%%%%%%%%%%%%%%%%%%%%%%%%%%%%%%%%%%%%%%%%%%%%%%%",
"%%%%%%%%%%%%%%%%%%%%%%%%%%%%%%%%%%%%%%%%%XXXX@@OOOOOOX@@ .  %%%%%%%%%%%%%%%%%%%%%%%%%%%%%%%%%%%%%%%%",
"%%%%%%%%%%%%%%%%%%%%%%%%%%%%%%%%%%%%%OO@@@@@@@@@@@@@@@@@@X@@@o@ %%%%%%%%%%%%%%%%%%%%%%%%%%%%%%%%%%%%",
"%%%%%%%%%%%%%%%%%%%%%%%%%%%%%%%%%Oo@@@OOOOOOOOOOOOOOOOO@@X@.@@@@@@  %%%%%%%%%%%%%%%%%%%%%%%%%%%%%%%%",
"%%%%%%%%%%%%%%%%%%%%%%%%%%%%%%%OOOOOOOO@OOOOOOOOOOOOOOOOOX@@@@..@@@@. %%%%%%%%%%%%%%%%%%%%%%%%%%%%%%",
"%%%%%%%%%%%%%%%%%%%%%%%%%%%%%.OOOO@@@@@OOOOOOOOOOOOOOOOOOOXXXX@@@@@@@@ @%%%%%%%%%%%%%%%%%%%%%%%%%%%%",
"%%%%%%%%%%%%%%%%%%%%%%%%%%%ooXOOOO@@@@@OOOOOOOOOOOOOOOOOOOOXXXXX@@@@@@@@@o%%%%%%%%%%%%%%%%%%%%%%%%%%",
"%%%%%%%%%%%%%%%%%%%%%%%%%.o.XOOO@@@@@@@@XXXXXXXXXOOOOOOOOXXOXXXXX@@@@@@@@@oo%%%%%%%%%%%%%%%%%%%%%%%%",
"%%%%%%%%%%%%%%%%%%%%%%% ...OOOOXO@X@@@@@XXXXXXXOOOOOOOOOXXXXOXX..XOO@@@@@@@@@ %%%%%%%%%%%%%%%%%%%%%%",
"%%%%%%%%%%%%%%%%%%%%%% ....OXXXXXX@@@@@@XOOOOOOOOOO@@@@@OXXXXXX......@@@@@.@@@o%%%%%%%%%%%%%%%%%%%%%",
"%%%%%%%%%%%%%%%%%%%%%......OXXXXXX@@@@@XOOOOOOOOO@@@@@@@@XXXX.........@@@@@@.@oo%%%%%%%%%%%%%%%%%%%%",
"%%%%%%%%%%%%%%%%%%%........XX.....@@@@@OOOOOO@@@@@@@@@@@@XXX...........@@@@@...@oo%%%%%%%%%%%%%%%%%%",
"%%%%%%%%%%%%%%%%%%..O.............@@@@@OOOOO@@@@@@@@@@@@XXX.............@@@@@@...@@%%%%%%%%%%%%%%%%%",
"%%%%%%%%%%%%%%%%%.@............X@@@@@@OOOOOOO@@@@OO@@@OXX.................@@@@@..@@@%%%%%%%%%%%%%%%%",
"%%%%%%%%%%%%%%%%O@@...........X..@@@@@OOOOOOOOOOOO@OOOXXX...................@@@@@@@@@%%%%%%%%%%%%%%%",
"%%%%%%%%%%%%%%%O@@..   ...........@@@@@@OOOOOOOOOOOOOXX........@.............@@@@@@@@@%%%%%%%%%%%%%%",
"%%%%%%%%%%%%%%O@X..    ...........@@@@@@OOOOOOOOOOOXXX........@...............@@@.@@@@@%%%%%%%%%%%%%",
"%%%%%%%%%%%%%+X@..     ...........@@@@@@@OOOOOOOOOXXX..........@...............@@@@@@@@@%%%%%%%%%%%%",
"%%%%%%%%%%%%XXX..     ..OOO.......@@@@@@@OOOOOOOOOXXX...........................@@@@@@@@@%%%%%%%%%%%",
"%%%%%%%%%%%.X+..     .O@@OO......@@@@@@@@@XXXOOOXXXX...........................@@@@@@@@@@o%%%%%%%%%%",
"%%%%%%%%%%%.@.++     O@OO@@@X....@@@@@@@@@@OOOOXXXXX...........................@@@@@@@@@@o%%%%%%%%%%",
"%%%%%%%%%%.....     OO@O@O@X.....@..@@@@@@@OOXXXXXXX............................oo@@@@@@@@o%%%%%%%%%",
"%%%%%%%%%@....  ++  OO@O@@@@@.......@@@@@@@@@..............@.....................o@@@@@@@@@o%%%%%%%%",
"%%%%%%%% ....   +  .OO@@@@..@.......@@@@@@@@@@@......................@.@............@@@@@@o@o%%%%%%%",
"%%%%%%%%.....  +  ..OOOX...@@.......@@@@@@@@@@@@.......................@@.............@@@@ o@%%%%%%%",
"%%%%%%%.......   ...OOOX..@@@@@@@@.@@@@@@@@@@@@@.......................@...............@@@@ o@%%%%%%",
"%%%%%%%......   .....XXX..@@@@@@@@@@@@@@@@@@@@@@@@@....................................@@@@@oo%%%%%%",
"%%%%%%..@@...  .....XX.....@@@@@@@@@@@@@@@@@@@@@@@@@........................OOOO.........@@@@@o%%%%%",
"%%%%%%X@@@.@.......O..........@@@@@@@@@@@@@@@@@@@@@@@.......................OOOOO.......O.@@@@@%%%%%",
"%%%%%+@..@@@@@....O.........@@@@..@@@@@@@@@@@@@@@@@@@@@....... ......O.OO...OOOOOO.....O.O@@@@@@%%%%",
"%%%%%+@@@@@@@@...OO.........@@@@@.@@@@@@@@@@@@@@@@@@@@@@@@@@@@.......OOOOOOOOOOOOOOX@@.@OOO@@@@@%%%%",
"%%%%.+OO@@@@@@...OOX.......@@@@@..@@@...@@@@@@@@@@@@@@@@@@@@@@@.......OOOOOOOOOOOOOO@@@@@@@@@@@@o%%%",
"%%%%++OO@@@@@@...OOX......@@@@O@@@@@@...@@@@@@@@@.@@@@@@@@@o@@@@....OOOOOOOOOOOOOOO@@@@@@@@@@@@@@%%%",
"%%%.+++OO@@@@@....XXX....O@@@@@@@@@@@...@@@@@@@@..@@@@@@@@ooo@@@.....OOOOOOOOOOOOOO@@@@@@@@@@@@@@o%%",
"%%%O+++OO@@@@@..@XXX.....O@@@@@@@.@@@....@@@@@......@.@@ooooo@@@@@......OOOOOOOOOOO@@@@@@@@@@@@@@o%%",
"%%%+++++O@@@@.@@@@.......OO@@@.....@@....@@@@.............@o@@@@@@.......OOOOOOOOOOOOO@@@@@@@@@@@@%%",
"%%%+++++X@@@@@@@@@......OOOOOX..........@@@@........... ...@@@@@@@.........OOOXOOOOOXO@O@@@@@@@@@@%%",
"%%@+++@X@@@@@@@@@@@.....OOO@@@X........@@@@@@............@@@@@@@@..........XXXXXXXOOXXO@@@@@@@@@@@o%",
"%%O++OX..@@@@@@@@@@.......O@@@@......@@@@..@@............@@@@@@@.........XXXXXXXXXXXXXO@@@@@@@@@@@@%",
"%%@++XX..@@@@@@@.@@@......OOX@X......@@@@.@@@..........@.@@@@@@@...........XXXXXXX.XXX.@@@@@@@@@@@@%",
"%%@+XXX..@@@@@@@@@@@.....OOO@@@.....@@@@@.@@@..........@@@@@@@@@@..........XXXXXXX...X.X@@@@@@@@@@@%",
"%@@+@X...@@@.@@@@@@@@...@@@@@@@@@@.@@@@@@.@@@@@.@@..@@@@@@@@@@@@@@OOOOOOOXX.XXXXXX...XX@@@@@@@@@@@@.",
"%@@@X@...##@@@@@@@@@@@.@@@@@@@@@@@@@@@@@@@@@@@@@@@@.@@@@@@@@@@@@@@OOOOOOOOOOXXXXXX...@X@@@@@@@@@@@@.",
"%@@X+@...###@@@@@@@@@@@.@@@@@@@@@@.@@@@@@@@@@@@@@@@.@@@@@@@@@@@@@@OOOOOOOOOOOOOOOOXO@@@@@@@@@@@@@@@X",
"%@@@+@@..#$$#@@@@@@@@@@@@@@@X@@@......@@@@@@@@@@@.@@@@@@@@@@@@@@@@OOOOOOOOOOOOO@@@@@@@@@@@@XX@@@@@@O",
"%@@@@+....#$$#@@.@@@@@@@@@@..@...........@@.@.....@@@O@@@@@@@@@@@@OOOOOOOOOOOO@@@@@@@@@@@OOOX@@@@@@X",
"%@@@@+....##$#@...@@@@@@@@........................@@@.@@@@@@@@@@@@OOOOOOOOOO@@@@@@@@@@OOOOOOXXX@@@+@",
"%@@@@.+..@####@...@@@..@@@@...........................@@@@@@@@@@@@OOOOOOOOOO@@@@@@@@@OOOOOOOOXX@@@@@",
"%@@@@@+..@o # .....@@@@@@@@...........................@@@@@@@@@@@OOOOOOOOOOO@@@@@@@@OOOOOOOOOXX@@@@@",
"%@@@@@.#@@o  # ....@@@@@@@@@@.......................@@@@@@@@@@@@@OOOOOOOOOO@@@@@@@@OOOOOOOOOOX.@@@@@",
"%@@@@@.+@@o$$ #.....@@@@@@@@@@@@...................@@@@@@@@@@@@@OOOOOOOOOO@@@@@@@@@OOOOOOOOOOO.@.@@@",
"%@@@@ .@$o o$$#  .....@@@@@@@@@@.....@@...........@@O@@@@@@@@@@@OOOOOOOOOO@@@@@@@OOOOOOOOOOOOO...@@@",
"%@.@@..@#$   # # .....@@@@@@@@@@....@@@..........O@@O@@@@@@@@@@OOOOOOOOOOO@@@@@@OOOOOOOOOOOOOOX.@@@@",
"%@.@@..@o$  o    ......@@@@@@@@@.@@.@@@.......OOO@@@O@@@@@@@@@@OOOOOOOOOOO@@@@@OOOOOOOOOOOOOOOO.@@+@",
"%@.@@@.oo $ oo   ......@@@@@@@@@@@@@@@@@@..OOO@@@@@@@@@OO@@@@@@OOOOOOOOOOO@@@@@OOOOOOOOOOOOOOO..@@@o",
"%..@.@.oo  $ooo .......@@@@@@@@@@@@@@@@@@@@@@@@@@@@@@@OO@@@@@OOOOOOOOOOOO@@@@OOOOOOOOOOOOOOOOO..@@@o",
"%.@@.@.oo  o$oo ....OO.@@@@@@@O@@@@@@@@@@@@@@@@@@@@@@@OOO@@@@OOOOOOOOOOOO@@@@OOOOOOOOOOOOOOOOO..@++o",
"%o.@ ..ooo o#$  ..OOOO@O@@@O@@O@@@@@@@@@@@@@@@@@@@@@@OOOOO@@@OOOOOOOOOOO@@@@OOOOOOOOOOOOOOOOOX.@@.+o",
"% @   @o o oo$$OOOOOOO@O@@@O@@@@@@@@@@@@@@@@@@@@@@@OOOOOOOO@OOOOOOOOOOOO@@@OOOOOOOOOOOOOOOOOOX.@.++@",
"% @  o@ooo ooo$#O@@OOOO@@O@@@@@@@@@@@@@@@@@@@@@@@@OOOOOOOOOOOOOOOOOOOOOO@@@OOOOOOOOOOOOOOOOOXX.++++@",
"%%@  oooo#  oo#$OOOOOOO@@O###@@@@@@@@@@@@@@@@@@@@@@@@@OOOOO@OOOOOOOOOOOO@@@OOOOOOOOOOOOOOOOOX.+++++%",
"%%+.ooooo #   O$$OOO@@@OO#$$###@@@@@@@@@@@@@@@@@@@@@@@@@OOOOOOOOOOOOOOOO@@@OOOOOOOOOOOOOOOOXX.+++@ %",
"%% @oooooo # .O$$@@@@@@@O#$$$###@@@@@@@@@@@@@@@@@@@@@@@@@OOOOOOOOOOOOOOO@@@OOOOOOOOOOOOOOOXX.++++@ %",
"%% @ooo oooo#$$$$@@@@@@@@O##$$$#@@@@@@@@@@@@@@@@@@@@@@@@@OO@OOOOOOOOOOOO@@@@OOOOOOOOOOOOOOX.++++..@%",
"%%++ooo  oooo#$$$@@@@@@@@@@@@@@@@@@@@@@@@@@@@@@@@@@@@@@@XOX@OOOOOOOOOOOO@@@@OOOOOOOOOOOO#+.+++++.o%%",
"%%% ooo o oo@.@@O@@@OOO@@@@@@@@@@@.@@.@@@@@@@@@@@@@@@@@@@@XX@OOOOOOOOOOO@@@@OOOOOOOOOOO#X++++++@.o%%",
"%%% +ooooooo@.@@@@@@OOOOOO@@@@@@@@@@@@.@@@@@@@@@@@@@@@@@@@@X@XOOOOOOOOOOO@@@@OOOOOOOOO#XX++.++@oo %%",
"%%% +oooo  o@.@@O@@OOOOOOO@@@@O@@@@@@@@@@@@@@@@@@@@@@@@@@@@..@OOOOOOOOOO@@@@@OOOOOOOOXXX++..++oo @%%",
"%%%%. oo@@o.@@@@@O@OOOOOOOOO@OOO@@@@@@@@O@@@@@@@@@@@@@@@@@@@..OOOOOOOOOO@@@@@OOOOOOOXXXX.@.@+o oo%%%",
"%%%%.+oo@@@@.@@@OO@@OOOOOOOOOOOO@@@@@@@@O.@O@@@@@@@@@@@@@@@@..@.OOOOOOOO@@@@@@OOOOOXXXX..@@+oo  @%%%",
"%%%%%. oo@@@@@@@OO@@OOOOOOOOOOOO@@@@@@@@@@@@@@@@@@@@@@@@@@@@..@.OOOOOOOOO@@@@@OO@OXXXX.@@@@+oo  %%%%",
"%%%%%.+oo@@@@@@@@O@@@OOOOOOOOOOOOO@@@@@@@@@@@@@@@@@@@@@@@@@@OOOOOOOOOOOOO@@@@@@@OOXXXX.@.@+ooo .%%%%",
"%%%%%%@+@@@@@@.@@@@@@OOOOOOOOOOOOOOO@@@@@@@@@@@@@@@@@@@@@@@OOOOOOOOOOOO@O@@@@@@@OOXXX.....@ooo %%%%%",
"%%%%%%O.@@@@@@@@@@@@@@OOOOOOOOOOOOOOO@@@@@@@@@@@@@@@@@@@@@@OOOOOOOOOOOOOO@@@@@@@OOXXX.....oooo@%%%%%",
"%%%%%%%..@@@@@@.@@@@@@@O@OO@@@@@OOOOXX@@@@@@@@@@@@@@@@@@@@OOOOOOOOOOOO@OO@@@@@OOOOOXX...+.oooo%%%%%%",
"%%%%%%%O.@@@@@@@.@@@@@@OOOO@@@O@OOOOOOOO@@@@@@@@@@@@@OOOOOO@OOOOOOOOOOOOO@@@@OOOOOOX.....oooo.%%%%%%",
"%%%%%%%%OX.@@@@o.@@@@@@@OOO@@@@@@OOOO@OOOO@@@@@@@@@@@@@OOOOOOOOOOOOOO@OOO@@@@OOOOOOX.....ooo@%%%%%%%",
"%%%%%%%%OO@@@@@..@@@@@@@O@O@@OOO@OOOXOOOOO@@@@@@@@O@@OOOOOOOOOOOOOOOOOOOOO@@OOOOOOXXX...ooo@O%%%%%%%",
"%%%%%%%%%OO+@@@@@@@@@@@@O@@@OOOOO@OOOOOO...@@@@@@O@@@OOOOOOOOOOOOOOOOOOOO@@@OOOOOOXX....@o@.%%%%%%%%",
"%%%%%%%%%%O++X@@@@@@@@@@OO@OOOOOO@@OXX......@@@@@O@@OOOOOOOOOOOOOOOOOOOOO@@OOOOOOXX....@@@.%%%%%%%%%",
"%%%%%%%%%%+O++@@@@@@@@@@@OO@@OOOO@@......XXXX@@@@@O@@OOOOOOOOOOOOOOOOOOO@@@OOOOOOXX.......%%%%%%%%%%",
"%%%%%%%%%%%XO++@@@@@@@@@@OO@@@@@@@@......@@@XX@@@X@@@@OO@@@OOOOOOOOOOOOO@@@@OOOOOX........%%%%%%%%%%",
"%%%%%%%%%%%%XO+O@@@@@@@@@OO@@@@@X........@@@...@.@@O@O@@@@XXOOOOOOOOOOOO@@@@@@OOX........%%%%%%%%%%%",
"%%%%%%%%%%%%%XO+.XO@@@@@@@OO@@@@@................O@@@@@@@@XXOOOOOOOOOOOOO@@@@@OOXX.X...o%%%%%%%%%%%%",
"%%%%%%%%%%%%%%XX+.@OO@XXO@OOO@@@@@.@..............OO@@@@@XXOOOOOOOOOOOOO@@@@@OOOX.X...o%%%%%%%%%%%%%",
"%%%%%%%%%%%%%%%X@+.@@OO@XXOOO@@@@@@.@.............X@@O@O@XOOOOOOOOOOOOOO@@OOOOOXXX...o%%%%%%%%%%%%%%",
"%%%%%%%%%%%%%%%%..+.@@O@O.XOXXX@@@@@..@@@@@......@@@@O@O@OOOOOOOOOOOOOO@@OOOOXX.....o%%%%%%%%%%%%%%%",
"%%%%%%%%%%%%%%%%%..@..@@@...OO...@@@@@@@@@@@@@@@@@@O@OOOOOOOOOOOOOOOO@@@@OOOXX..... %%%%%%%%%%%%%%%%",
"%%%%%%%%%%%%%%%%%%..o..X@@@...@@....@@@@@@@@O@OOOOOOOOOOOOOOOOOOOOOOOOO@@@@XX..... %%%%%%%%%%%%%%%%%",
"%%%%%%%%%%%%%%%%%%%.  @.X@@@@...@@...@@@@@OOOOOOOOOOOOOOOOOOOOOOOOOOOO@O@OXX.@@.@ %%%%%%%%%%%%%%%%%%",
"%%%%%%%%%%%%%%%%%%%%%  ..X@@@@.......@.@@@@@@OOXOOOOOOOOOOOOOOOOOOOOOOOOOXX@..@ %%%%%%%%%%%%%%%%%%%%",
"%%%%%%%%%%%%%%%%%%%%%% .@..@@@@......@@@@@@@@@@XXOOOOOOOOOOOOOOOOOOOOOXXX....  %%%%%%%%%%%%%%%%%%%%%",
"%%%%%%%%%%%%%%%%%%%%%%%  O@.@@@@@@@.@@@@@@@OOOXOOOOOOOOOXXXOOOOOOOOOOXXX..    %%%%%%%%%%%%%%%%%%%%%%",
"%%%%%%%%%%%%%%%%%%%%%%%%% OO...@@@@@@@@@@@OOOOOOOOOOOOOOOXXXXOXXXOOOOXX..   %%%%%%%%%%%%%%%%%%%%%%%%",
"%%%%%%%%%%%%%%%%%%%%%%%%%%%.OO...@@@@@@@@OOOOOOOOOOOOOOXXXX......XXXX..   %%%%%%%%%%%%%%%%%%%%%%%%%%",
"%%%%%%%%%%%%%%%%%%%%%%%%%%%%%.X@..@@@@@@@@OOOOOOOO@OOO................. %%%%%%%%%%%%%%%%%%%%%%%%%%%%",
"%%%%%%%%%%%%%%%%%%%%%%%%%%%%%%%.@...@@@@@@OO@OOOOOOXXXX.X.............%%%%%%%%%%%%%%%%%%%%%%%%%%%%%%",
"%%%%%%%%%%%%%%%%%%%%%%%%%%%%%%%%%  ...@@@@XXXXX...........@@....... %%%%%%%%%%%%%%%%%%%%%%%%%%%%%%%%",
"%%%%%%%%%%%%%%%%%%%%%%%%%%%%%%%%%%%%%......O@OO@@.....    o..OO.%%%%%%%%%%%%%%%%%%%%%%%%%%%%%%%%%%%%",
"%%%%%%%%%%%%%%%%%%%%%%%%%%%%%%%%%%%%%%%%%@.@.@@@@@..@.......%%%%%%%%%%%%%%%%%%%%%%%%%%%%%%%%%%%%%%%%"
};
