/* XPM */
static char *result[] = {
/* columns rows colors chars-per-pixel */
"100 100 10 1 ",
"  c #283540",
". c #2F5753",
"X c #3B7D4F",
"o c #404973",
"O c #63AB3F",
"+ c #686F99",
"@ c #62C8E0",
"# c #DFE0E8",
"$ c #F5FFE8",
"% c None",
/* pixels */
"%%%%%%%%%%%%%%%%%%%%%%%%%%%%%%%%%%%%%%%%%%%%%%%%%%o%%%%%%%%%%%%%%%%%%%%%%%%%%%%%%%%%%%%%%%%%%%%%%%%%",
"%%%%%%%%%%%%%%%%%%%%%%%%%%%%%%%%%%%%%%%%%@@@@@@@@@@@oooooooo%%%%%%%%%%%%%%%%%%%%%%%%%%%%%%%%%%%%%%%%",
"%%%%%%%%%%%%%%%%%%%%%%%%%%%%%%%%%%%%%X@XX@@@@@@@@oooooooo      o%%%%%%%%%%%%%%%%%%%%%%%%%%%%%%%%%%%%",
"%%%%%%%%%%%%%%%%%%%%%%%%%%%%%%%%%.@X..@X...@@.@@oooooooo          oo%%%%%%%%%%%%%%%%%%%%%%%%%%%%%%%%",
"%%%%%%%%%%%%%%%%%%%%%%%%%%%%%%% @OXXXX.....@@...@ooooooooo            %%%%%%%%%%%%%%%%%%%%%%%%%%%%%%",
"%%%%%%%%%%%%%%%%%%%%%%%%%%%%%..XX........@......@@@@@ooooooo oo        .%%%%%%%%%%%%%%%%%%%%%%%%%%%%",
"%%%%%%%%%%%%%%%%%%%%%%%%%%% ........XO.@@....@@@@@@@@@@ooooooooo  .... o. %%%%%%%%%%%%%%%%%%%%%%%%%%",
"%%%%%%%%%%%%%%%%%%%%%%%%%....oooo+++OO...@@@..@@@@@@@@.oooooooooo@@...@@.. o%%%%%%%%%%%%%%%%%%%%%%%%",
"%%%%%%%%%%%%%%%%%%%%%%% ...Ooooo+++OOXXOX@@@@.@@@@@@@@@.oooooooo@@@@@@@@@@.@@o%%%%%%%%%%%%%%%%%%%%%%",
"%%%%%%%%%%%%%%%%%%%%%% @@.O++++++OOOOOXXX@X@@@@@@@@@@@...@ooo@oo@@@@@@@@@@@@@@@%%%%%%%%%%%%%%%%%%%%%",
"%%%%%%%%%%%%%%%%%%%%%.@@OXOOOOOOOOOOOXXXXXX@@.@@@@@@....@.  @o@@@@@@@@@@@@@@@@@o%%%%%%%%%%%%%%%%%%%%",
"%%%%%%%%%%%%%%%%%%% @O@XXOOOOOOOOOO@OXXX....@++++++...@@. ooooo@@@@@@@@@@@@@@@@@oo%%%%%%%%%%%%%%%%%%",
"%%%%%%%%%%%%%%%%%%o@OX@XXOXOOOOOO@@@@XX....++++++++...@.  oooo+ooo@@@@@@@@@@@@@@@@@%%%%%%%%%%%%%%%%%",
"%%%%%%%%%%%%%%%%%o@@.XXXXXXOOOO@@@@@OX.....++++@++.@@@.. ooooo+oooo+@@@@@@@@@@@@@@@@%%%%%%%%%%%%%%%%",
"%%%%%%%%%%%%%%%%o@@XX+X...XOOO@@@@@@O.........@..........ooooo++ooo+@@@@@@@@@@@@@@@@@%%%%%%%%%%%%%%%",
"%%%%%%%%%%%%%%%o@.XX++..O.XOOO@@@@O...................... oo ++++++o@@@@@@@@@@@@@@@ @@%%%%%%%%%%%%%%",
"%%%%%%%%%%%%%%o@.OOO.O...XXOOOO@@OO........................ #++++  o@oo@@@@@@@@@@@@@o@@%%%%%%%%%%%%%",
"%%%%%%%%%%%%%++OOOO.OOXXXOOOOOOOOOX........................  ..@@@O.@.@@@@@@@@@@@@@@@@o@%%%%%%%%%%%%",
"%%%%%%%%%%%% ++++OOOOXXXXOOOOOOOOO.............................@@@@@@@@@@@@@@@@@@@@@@@.@@%%%%%%%%%%%",
"%%%%%%%%%%% @++++OXXXXXXXOOOOOOOOOXX...........................@@OOOO@@@@@@@@@@@@@@@@@...o%%%%%%%%%%",
"%%%%%%%%%%%@O+++++XXXXXOOOOOOOOOOOXX...........................@@OOO@OO@@@@@@@@@@@@@@@@@@o%%%%%%%%%%",
"%%%%%%%%%%@OO+++++XXX.OOOOOOOOOOOXX...........................@@@O@@@@@OO@@@@@@@@@@@@@@@@@o%%%%%%%%%",
"%%%%%%%%%@@OO++++++X.XOOOOOO@@OOOX............................@@OO@@@@@@OO@@@@@@@@@@@@@@@@@o%%%%%%%%",
"%%%%%%%% @@OOO+++++++OO@O@O@@OOOXX..........OO..............O@@@OO@@@@@@@@@@@@@@@@@@@@@@@@@@o%%%%%%%",
"%%%%%%%%@@OOOO+++++++##@@@@@@OOOXX.........OOOOOO@@@@@OOOOOOO@@@@@@@@@@@@@@@@@@@@@@@@@@@@@@@@%%%%%%%",
"%%%%%%%@@@OOOO++++++##@@@@@@@OOOOXX....@@@@@@@@@##@@@@@@@@O@@@@@@@@@@@@@@@@@@@@@@@@@@@@@@@@@@@%%%%%%",
"%%%%%%%@@OOO@O+++++$##@@@@@@@@OOOXXX..@@@@@@@##@@@@@@@@@@@@@@@@@@@@@@@@@@@@@@@@@@@@@@@@@@@@@@@%%%%%%",
"%%%%%%@@OOOO@+++++$$$##@@@@@OOXXXXXXX.@@@@@@@@@@@@@@@@@@@@@@@@@@@@@@@@@@@@@@@@@@@@@@@@@@@@@@@@o%%%%%",
"%%%%%%@@OOO@++++++$$$$##@@@O..XXXXXX.@@@@@@@@@@@@@@@@@@@@@@@@@@@@@@@@@@@@@@OOO@@@@@@@@@@@@X@@@@%%%%%",
"%%%%%@@OOO@@++++++$$$$$$$##O..X@@XX...@@@@@@@@@@@@@@@@@@@@@@@@@@@@@@@@@@@@OO@@OO@@@@@@@@@@@..@@.%%%%",
"%%%%%@@OO@@@@@#++$$$$$$$$$$$$$$##XX......@@@@@@@@@@@@@@@@@@@@@@@@@@@@@@@@OOOOOOOO@@@@@@@@OOO.@@.%%%%",
"%%%%@@OO@@@@@@@@#$$$$$$$$##@@XX@@........@@@@@@@@@@@@@@@@@@@@@@@@@@@@@@@OO@@@@@@@@@@@@@@@@@@@... %%%",
"%%%%@OOO@@@@@@@@@@##$$$$##@@@X@..........@@@@@@@@@@@@@@@@@@@@@@@@@@@@@@OOO@@OOO@O@@@@@@@@@@@+@o@@%%%",
"%%%@OOO@@@@@@@@@@@@@##$$$$##XX........#...@@@@@@@@@@@@@@@@@@@@@@@@@@OOOOO@@OOOOOOO@@@@@@@@@@+@oOX %%",
"%%%@OOO@@@@@@@X@@@@X..#$$$$$###$$$$$$$##...@@@@@@@@@@@@@@@@@@@@@@@@@OOOOO@OOO@@@O@@@@@++@@@+OO@@@o%%",
"%%%OOO@O@@@@@X@@@@.#$$$$$$$$$$$$$$$$$#......@@X@@@@@@@@@@@@@@@@@@@@@OOOOOOOOOOOO@O@@@@@OO@+OO+OOO@%%",
"%%%OOO@O@@@@@@@@@@..$$$$$$$$$$$$$$$##..........@@@@@@@@@@@@@@@@OOOOOOOOOO####OOO@OO@@@O@++@OO+OOOO%%",
"%%@OOO@@@@@@@X.@@@@..#$$$$$$$$$$$#..........@@@@@@@@@@@@@@@@@@@OOOOOOOO######OOO@OOO@@O++O++O@OOOO.%",
"%%OOO@@@@@@@@@.@@@@.....######..............@@@@@@@@@@@@@######OOOOOOO##$$##OOOOOOOO@@+@@++@@@OOO@.%",
"%%OOO@@@@@@@@..@@@@..........................@@@@@@###########@OOOOOO##$$$##OOOOOOO@@#@@+++@OOOO@@O%",
"%%OOO@@@@@@@@..@@@@.........................@###########$####@@OOOOO##$$$##OOOOOOOOO#@@++++@XXOOO@@%",
"%XOO@@@@@@@@@...@@@@@....................#########$$$$$$$###@@@XOOOO######OOOOOOOOOOOO++++@@@@XX@@O@",
"%XOO@@@@@@@@@.....@@@...................######$$$$$$$$$$###@@@@OOOOOO#####OOOOOOOOOOO$$+++@@@XXX@@X@",
"%XOX@@@@@@@@@.....@@@@.................@####$$$$$$$$$$$###OO@OXX@OOOOOOOOOOOOOOOOOOO#$$++@@@@@XX@@@@",
"%.OX@@@@@@@@@.....@@@@................@@###$$$$$$$$$$$###OOOOXXXOOOOOOOOOOOOOOOOOOO#$$$++@@X.XX.@@@@",
"%.XXX@..@@@@......@@@@..............O@@@###$$$$$$$$$$$##OOOOOXXOOOOOO#$OOOOOOOOOOOO$$$$+X@@@@@@.@@@@",
"%.................@@@.............OOOOO###$$$$$$$$$$$$#OOOOOOOOOOOO#$$$OOOOOOOOOOO$$#$$#@X@@@@X@@@@@",
"%..................@..............O@@@@##$$$$$$$$$$$$##OOOOOOOOOOO$$#$$OOOOOOOOOO$$$$$$XX.@@X..@@@@@",
"%.................................O@@@@#$$$$$$$$$$$$$#OOOOOOOOOOO$$#$$OXXXXXOXXX$$$$$$....@@@...@@@@",
"%@................................O@@@##$$$$$$$$$$$$$#OOOOOOOOOO#$$$$OOXXXXXXXX$$$$$$.....@@...@@@@@",
"%@.............................@OOO@@@##$$$$$$$$$$$$#OOOOOOOOOOO#$$OOOOXXXXXX#$$$$$$#.......@@.@.@@@",
"%@..........................@@@@@@@@@@##$$$$$$$$$$$##OOOOOOOOOOOOOOOOOOXXXX.$$$$$$$$......@......@@@",
"%o..........................@@@@@@@@@@@#$$$$$$$$$$$#OOOOOOOOOOOOOOOOOXXX#$$$$$$$$$$..........X..@@@@",
"%o........................@@@@@@@@@@@@@#$$$$$$$$$$##OOOOOOXXXXXXXXX#$$$$$$$$$$$$$$........O..@X..@@@",
"%o@@@....................@@@@@@@@@@@@@@##$$$$$$$$##OOOOOOXXXXXXX#$$$$$$$$$$$$$$$#@........OO@@O....@",
"% o@o...................@@@@@@@@@@@@@@@@##$$$$$$##OOOOOOXXX@@#$$$$$$$#@@@@##$$$#@@.......OOOOOO....@",
"% o@o...................@@@@@OO@@@@@@@@@####$$####OOOOXXX@#$$$$$#@@@@@@@@@@#$$#@@@.......OOOOO@..@..",
"% @ooo..................@@@@@OO@@@@@@@@@##########OOOXX##$$$$#@@@@@@@@@@@@@#$#@@@@......XOOOOO...@@.",
"%O@ooo@@@...............@@@@@@@@@@@@@@@@@###############$$#@@@@@@@@@@@@@@@###@@@@@......OOOOOO..@@@@",
"%O@ooo@@@@@@.............@@@@@@@@@@@@@@@@################@.@@@@@@@@@@@@@@@##@@@@@@@....OOOOOO@..@o@@",
"%%.@oo@@@@@@@@............@@@@@@@@@@@@@@@@@###########@@@@@@@@@@@@@@@@@@@##@@@@@@@@....OOOOOO....o@%",
"%%@@@o@@o@@@@@@...@@.......@@@@@@@@@...@@@@@@@@#####@@@@@@@@@@@@@@@@@@@@##@@@@@@@@@....OOOOO...@@o@%",
"%%X@@oo@@@@@@@@@.@@@@@.....O@@@.........@@@@@@@@@@@@@@@@@@@@@@@@@@@@@@@@@@@@@@oo@@@@...OOO......  @%",
"%%X@.oo@@@@@oooo@ooo@@@.....O............@@@@@@@@@@@@@@@@@.@@@@@@@@@@@@@@@@@@@oo@@@@@..OOO....@ o  %",
"%%%@@oo@@@@ooooooooooo@@...................@@...........@@.@@@@@@@@@@@@@@@@..ooo@@@@@..O......    %%",
"%%%@@ o@@@oooooooooo@@@@....................................@@@@@@@@@@@@@.      @@@@@......... o o%%",
"%%%@+@o@@@@oooooooooo@@@.....................................@@@@@@@@@@@.     ..@@@@@........  o  %%",
"%%%.@@@@@@@o@oooooo@@@@@@@................................  ..@@@@@@@@@@@.    .@@@@@@@.......    o%%",
"%%%%@+@@@@@@@@@@ooo@@@@@@@................................   ...@@@@@@@@..    ...@@@@@@.....   o %%%",
"%%%%.@@.@@@@@@@@@@@@@@@@@@...........        ......   ..         @@@@@@...    ....@@@@@.....   o %%%",
"%%%%%@@@.@@@@@@@@@@@@@@@@@@@@...@@              .                .@@@@@....   ....@@@@@@....    %%%%",
"%%%%%@@@@@@@@@@@@@@@@@@@@@@@@@@@@@o                             ..@@@......  .....@@@@@@....   @%%%%",
"%%%%%%..@@@@@@@@@@@@@@@@@@@@@@@..@@                             .......       ...@@@@@@.....   %%%%%",
"%%%%%%..@@.@@@@@@@@@@@@@@@@@@@@@..@.                            .....        .....@@@@X....   .%%%%%",
"%%%%%%%..@.@@@@@@@@@###@@@@@@@@@@@@@..   ..... .                 ....      .......@@@@@....  .%%%%%%",
"%%%%%%%.@@.@@@@@@@@@#$$$#@@@@@@@@@@@.............. . .          .....     .......@@@@OOO......%%%%%%",
"%%%%%%%%.+@@@@@@@@@@$$$$$$#@@@@@@@@@..O..................       ...         ..OOO@@@@OO.O....%%%%%%%",
"%%%%%%%%.@+@@@@@@@@@#$$$$$$#@@@@@@OOOOOOOO............... .   .....      ....OOO@@@@OOXX....O%%%%%%%",
"%%%%%%%%% @+@@@@@@@@@$$$$$$$#@@@OOOOOOOO.........OO..... ................OOO@@@@@@@OOOXX...O%%%%%%%%",
"%%%%%%%%%% @#@@@@@@@@@$$$$$$$#@OOOOOOOOOX........OOO....................OOO@@@@@@@OOOXXX..O%%%%%%%%%",
"%%%%%%%%%%%@+#@@@@@@@@@$$$$$$#@@O@OOX..OOOXXX......................OOOOO@@@@@@@@@@OOOXXXOO%%%%%%%%%%",
"%%%%%%%%%%%.@+#@@#@@@@@@######@@@@OO@@.XOOOOXX...........@....OOXOOOOOOO@@@@@@@@@OOOOXXOOO%%%%%%%%%%",
"%%%%%%%%%%%%@@+@@@#@@@@@@@@@@@@@@@@X@@@@.OOXX....OO.....oo..OOOOOOOOOOOO@@@@@@@@OOOOOXOOO%%%%%%%%%%%",
"%%%%%%%%%%%%%@@+@@@@@@O@@@@@@@@@@@@@@@@@..XX...............OOOOOOOOOOOO@@@@@@@@OOOOOOOOO%%%%%%%%%%%%",
"%%%%%%%%%%%%%%@@#@@@@@OOOO@@@@@@@@@@@@@@..................OOOOOOOOOOOO@@@@OO@OOOOOOXOOO%%%%%%%%%%%%%",
"%%%%%%%%%%%%%%%O@#@X@#OOOOOOOOOO@@@@@.....OOO.............OOOOOOOOOOO@@@@OOOOOOOOOXXOO%%%%%%%%%%%%%%",
"%%%%%%%%%%%%%%%%@O+@.@@OOOOOOOOOOOOOOOO..OOOO......O.....OOOOOOOOOO@@@@OOOOOOOOXXXXOO%%%%%%%%%%%%%%%",
"%%%%%%%%%%%%%%%%%@++@@@@OOOOOOOOOOOOOOOOOOOOOOOXXOOOOOOOOOOOOOO@@@@@@@OOOOOOXXXXXXOO%%%%%%%%%%%%%%%%",
"%%%%%%%%%%%%%%%%%%@++#@@@#O.XX.XOOOOOOOOOOOOOO##@OOOOOOOOOOOOOO@@#@@@OOOOOOXXX..XOO%%%%%%%%%%%%%%%%%",
"%%%%%%%%%%%%%%%%%%%X++@@@@@.X......XOOOOO####$###@@@####OOOOO@@@@@@OOOOOOXX....OO+%%%%%%%%%%%%%%%%%%",
"%%%%%%%%%%%%%%%%%%%%%@+#@@@@........XXXXX########O@@@@@##@@@@@@@@@@OOOOOXX......%%%%%%%%%%%%%%%%%%%%",
"%%%%%%%%%%%%%%%%%%%%%%@++@@@@@.........XXXX###@@@@@@@@@#@O@@@@@@@@@OOX@.......+%%%%%%%%%%%%%%%%%%%%%",
"%%%%%%%%%%%%%%%%%%%%%%%.o+#@@@@@@@.....O..XX@@@@@@OO@#@@@@@@@@@@@@@@@@@.@.....%%%%%%%%%%%%%%%%%%%%%%",
"%%%%%%%%%%%%%%%%%%%%%%%%%oo+#@@@@O@O.........O@@@@@@@@@@@@@@@.@@@@@@@@@@oo.+%%%%%%%%%%%%%%%%%%%%%%%%",
"%%%%%%%%%%%%%%%%%%%%%%%%%%%o+o+@@@@....@....O..@@@@@@@.....@@@@@@@@@@ooo@@%%%%%%%%%%%%%%%%%%%%%%%%%%",
"%%%%%%%%%%%%%%%%%%%%%%%%%%%%%@+@@#@@oo@oo...@....@@...    ..@@@@@@@oo@o.%%%%%%%%%%%%%%%%%%%%%%%%%%%%",
"%%%%%%%%%%%%%%%%%%%%%%%%%%%%%%%@+++@oooooo@........       o@@@@@@@@@@+%%%%%%%%%%%%%%%%%%%%%%%%%%%%%%",
"%%%%%%%%%%%%%%%%%%%%%%%%%%%%%%%%%@@+++oooooooooo         O@@OXX..+@@%%%%%%%%%%%%%%%%%%%%%%%%%%%%%%%%",
"%%%%%%%%%%%%%%%%%%%%%%%%%%%%%%%%%%%%%@@@o@@@@@@.   ... ...@@X+@.%%%%%%%%%%%%%%%%%%%%%%%%%%%%%%%%%%%%",
"%%%%%%%%%%%%%%%%%%%%%%%%%%%%%%%%%%%%%%%%%@@@@@@@@@@@@..+@@@+%%%%%%%%%%%%%%%%%%%%%%%%%%%%%%%%%%%%%%%%"
};
