/* XPM */
static char *result[] = {
/* columns rows colors chars-per-pixel */
"100 100 10 1 ",
"  c #283540",
". c #2F5753",
"X c #3B7D4F",
"o c #404973",
"O c #63AB3F",
"+ c #686F99",
"@ c #62C8E0",
"# c #DFE0E8",
"$ c #F5FFE8",
"% c None",
/* pixels */
"%%%%%%%%%%%%%%%%%%%%%%%%%%%%%%%%%%%%%%%%%%%%%%%%%%%%%%%%%%%%%%%%%%%%%%%%%%%%%%%%%%%%%%%%%%%%%%%%%%%%",
"%%%%%%%%%%%%%%%%%%%%%%%%%%%%%%%%%%%%%%%%%@o@o@oooooooooooooo%%%%%%%%%%%%%%%%%%%%%%%%%%%%%%%%%%%%%%%%",
"%%%%%%%%%%%%%%%%%%%%%%%%%%%%%%%%%%%%%o@ooooooooooooooooooooooo. %%%%%%%%%%%%%%%%%%%%%%%%%%%%%%%%%%%%",
"%%%%%%%%%%%%%%%%%%%%%%%%%%%%%%%%%oooooooooooooooooo o        oo@@. o%%%%%%%%%%%%%%%%%%%%%%%%%%%%%%%%",
"%%%%%%%%%%%%%%%%%%%%%%%%%%%%%%%ooooooooooooooooooooo            o@@..o%%%%%%%%%%%%%%%%%%%%%%%%%%%%%%",
"%%%%%%%%%%%%%%%%%%%%%%%%%%%%%@ooooo@@@ooo@@@@@@@@@@@oo       oooooo@.. @%%%%%%%%%%%%%%%%%%%%%%%%%%%%",
"%%%%%%%%%%%%%%%%%%%%%%%%%%%oooooo@@@@@@@@@@@@@@@@@@@@@oo            o@@..o%%%%%%%%%%%%%%%%%%%%%%%%%%",
"%%%%%%%%%%%%%%%%%%%%%%%%%@oooo@@@@@@@@@@@@@@@@@@@@@@@@oo              o@oooo%%%%%%%%%%%%%%%%%%%%%%%%",
"%%%%%%%%%%%%%%%%%%%%%%%o@o@@@@@@@@@@@@@@@@@@@@@@@@@@@@@@o   ..   .      ooooo %%%%%%%%%%%%%%%%%%%%%%",
"%%%%%%%%%%%%%%%%%%%%%%o@@@@@@@@@@@@@@@@@@@@@@@@@@@@@@@@@@o   ......       oo   %%%%%%%%%%%%%%%%%%%%%",
"%%%%%%%%%%%%%%%%%%%%%@@@@.@@@@@@@@@@@@@@@@@@@@@@@@@@@+++o       ....        oooo%%%%%%%%%%%%%%%%%%%%",
"%%%%%%%%%%%%%%%%%%%@@@@@@@@@@@@@@@@@@@@@@@@@@@@@@@@@@+++o       .......      oooo %%%%%%%%%%%%%%%%%%",
"%%%%%%%%%%%%%%%%%%@.@@@@@@@@@@@@@@@@@@@@@@@@@@@@@@@@@@ooo       .......        ooo.%%%%%%%%%%%%%%%%%",
"%%%%%%%%%%%%%%%%%@...@@@@@@@@@@++@@@@@@@@@@@@@@@@@@@@@@@o      @@@@.....  +     ooo.%%%%%%%%%%%%%%%%",
"%%%%%%%%%%%%%%%%@..@@@@@@@@@@@+++@@@@@@@@@@@@@@@@@@@@@@ooo  oo@@@@@@@........  oooo@@%%%%%%%%%%%%%%%",
"%%%%%%%%%%%%%%%@..@@@@@@@@@@@@++++@@@@@@@@@@@@@@##@@@@@ooooo@@@@@@@@@@@.@@.....@@@oo@@%%%%%%%%%%%%%%",
"%%%%%%%%%%%%%%.@@@@@@@@@@@@@@+++++###@@@@@@@@@@##@@@@@@@@@@@@@@@@@@@@@@@@@@@@@@@@@@@@@@%%%%%%%%%%%%%",
"%%%%%%%%%%%%%@@..@@.@@@@.@@@+++++$#####@@@##@@@@@@@@@@@@@@@#@@@@@@@@@@@@@@@@@@@@@@@O..@@%%%%%%%%%%%%",
"%%%%%%%%%%%%@@..@@.@@@@..@@@+++$$$$#@@@@@@@@##@@@@####@@@@##@@@@@@O@@O@@@@@@@@@@@@OOOO...%%%%%%%%%%%",
"%%%%%%%%%%%@@..@....@@...@@@#$$$$$#@@@@@@@@@##########@@@#$@@@@@@@@@@@@@@@@@@@@@@@OOOOO.. %%%%%%%%%%",
"%%%%%%%%%%%@...........@@@@@@$$$$$$@@@@@@###$###########$$@@@@@@@@@@@@@@+++++@@@@@O@OOOOX %%%%%%%%%%",
"%%%%%%%%%%@@...........@@@@@@$$$$$$$$$$$$$$$$$$$####$$$$#@@@@@@@@@#$$++++++++@@@@@O@OOOooXo%%%%%%%%%",
"%%%%%%%%%@@@@@@.......@@@@@@O$$$$$$$$$$$$$$$$$$$$$$$$$$####@@@@#$$$$+++++++++@@@OO@@O++ooO.o%%%%%%%%",
"%%%%%%%%o@@@@........@@@@@@@O$$$$$$$$$$$$$$$$$$$$$$$$$$$$$###$$$$$$$++++++++@@@@@@@++++ooO.. %%%%%%%",
"%%%%%%%%o@@@.......@@@@@@@@OO#$$##$$$$$$$$$$$$$$$$$$$$$$$$$$$$$$$$$$$$$$$$#@@@@@@@+++++++OX..%%%%%%%",
"%%%%%%%@o@@......@@@@@OO@OOOO##OOOOO@############$$$$$####$$$$$$$$$$$$$$$#@@@@@@@+++++++OOOX..%%%%%%",
"%%%%%%%@@@..X...@@@@@OOOOOOOO#OOOOO@@@@@@@@@@@@#####@@@@@##$$$$$$$$$$$$$#@@@@@@@@++++++++OXXX.%%%%%%",
"%%%%%%@@@@O.X.@@@@@OOOOOOOOOOOOOO@@@@@@@@@@@@@@@@@@@@@@@@@#$$$$$$$$$$$$#@@@@@@@@@++++++++OOXXX %%%%%",
"%%%%%%@@@@.O@@@@@OOOOOOOOOOOOOOOO@@@@@@@O@@@@@@@@@@@@@@@@@#$$$$$$$$$$#@@@@@@OOOO@++++++O+o+oX..%%%%%",
"%%%%%@@@@O@@OOOOOOOOOOOOOOOOOOO@@@@@@@@@@@@O@@@@@@@@@OO@@@##$$$$$$$#@@@@@@@OOOOOO+++++++OOoXo...%%%%",
"%%%%%@@@@@@OOOOOOOOOOOOOOOOOOO@@@@@@@@@@@@@@@@@@@@@@@OO@@@@@######@@@@@@@@@OOOOOO+++++++OO@OX...%%%%",
"%%%%@@@@@@@OOOOOOOOOOOOOOOOOO@@@@@@@@@@@@@@@@@@@@@@OOOOO@@@@@@@@@@@@@@@@@@OOOOOOO#+++++O@@@@Xo.. %%%",
"%%%%@@@@@@@OOOOOOOOOOOOOOOO@@@@@@@@@@@@@@@@@@@@@@@@@OO@OO@@@@@@@@@@@@@@@@OOOOOOOO#+++++O@@@@@+X..%%%",
"%%%.@@@@@@@OOOOOOOOOOOOOOOO@@@@@@@@@@@@@@@@@@@@@@@@@@O@O@@@@@@@@O@@@@@@@OOOOOOOOOO#+++++@@@@@@X.@ %%",
"%%%@@O@OO@OOOO@OOOOOOOOOOOOOO@@@@@@@@@@@@@@@@@@@@@@@@O@@@@@@@OOOOO@@O@OOOOOOOOOOOO#++++@@@@@@@@@@.%%",
"%%%@OOOOO@OOO@XOOOOOOOOXOOOOO@@@@@@@@@@@@@@@@@@@@@@@@@@@@@@@@OOOOOOO@@@OOOOOOOO@OO##+++O@@@@@@@@@@%%",
"%%%@OOOO@@@@@@XOOOXXXXXXXOOOO@@@@@@@@@@@@@@@@@@@@@@@@@@@@@@@@OOOOOOOOOOOOOOOOOOOOOO##+@OO@@@@@@@@@%%",
"%%@OOXOX@@@@@@XXXXXXXXXXXXXO@@@@@@@@@@@@@@@@@@@@@@@@@@@@@@@@@OOOOOOOOOOOOOOOOOOOOOO@#O@@O@@@@@@@@@ %",
"%%@OOXX@@@@@@XXXXXXXXXXXXXXOO@@@@@@@@@@@@@@@@@@@@@@@@@@@@@@@@OOOOOOOOOOOOOOOOOOOOOOOOO@@@O@@@@@@@@.%",
"%%@O.XX@@@@@X@XXXXXXXXXXXXXXO@@@@@@@@@@@@@@@@@@@@@@@X@@@@@@@@@XOOOOOOOOOOOOOOOOOOOOOOO@@@@@@@@@@@@@%",
"%%OO..X@@@@@@@..XXXXXXXXXXXXO@@@@@@@@@@@@@@@@@@@@@@@@@@@@@@@@@@XOOOOOOOOOOOOOOOOOOOOO@@@@@@@@@@@@@@%",
"%@O@@..@@@........XXOXXXXXOO@@@@@@@@@@@@@@@@@@@@@@@@@@@X@@@@@@@XXXXOOOOOOOOOOOOOOOOOO@@@@@@@@@@.@...",
"%@O.X......X.......OO.XXXXOO@@@@@@@@@@@@@@@@@@@@@@@@@@@@@@@@@@@@@XXXOOOOOOOOOOOOOOOOO@@@@@@@@@@.@.. ",
"%@O.X.......O.....OOOO..XOOO@@@@@@@@@@@@@@@@@@@@@@@@@@@@@@@@@@@@@@@XXOOOOOOOOOOO@@OO@@@@@@@@@@@.@@..",
"%@O.........O....OOOOO...OOOO@@@@@@@@@@@@@@@@@@@@@@@@@@@@@@@@@@@@@@@OOOXXOOOOOOO@@O@@@@@@@@@@@@.@@..",
"%@@@.......OO.....OOO....OOOO@@@@@@@@@@@@@@@@@@@@@@@@@@@@@@@@@@@@@@@OOOXXXXOOOOOOOOO@@@@@@@@@@@..@..",
"%@@@@......OOOO...OO.....OO.OOO@@@@@@@@@@@@@@@@@@@@@@@@@@@@@@@@@@@@@O...XXXOOOOOOOXXXX@@@@@@@@@@..@.",
"%@@@.......OOOO...OO......O.OOO@@@@@@@@@@@@@@@@@@@@@@@@@@@@@@@@@@@@@@@@@...XOXXOOXXXXXXX@@@.@@@...@.",
"%@@@....OOOOOOO......X.......OO@@@@@@@@@@@@@@@@@@@@@@@@@@@@@@@@@@@@@@@@@@@..X..XXXXXX.......@@@...@.",
"%@@@..OOOOOOOO......XX......OOO@@@@@@@@@@@@@@@@@@@@@@@@@@@..@@@@@@@@@@@@@@.......X.XX.............@.",
"%@@@..OOOOOOOOX............OOOO@@@@@@@@@@@@@@@@@@@@@@@@@.......@@@@@@@@@@@........................@ ",
"%@@@..OOOOOOOOX.............OOO@@@@@@@@@@@@@@@@@@@@@@@@..... .....@@@@@@@@@......................   ",
"%@@@..O@@@OOOOX....@........XOO@@@@@@@@@@@@@@@@@@@@@@.....    .....@@@@@@@@@@...................    ",
"%@@@.XOO@@OOOXX...@@........OO@@@@@@@@@@@@@@@@@@@........      .....@@@@@@@@@@@.................   .",
"%@@@.OOOOO@OOXX..@@@@.....OO@@@@@@@@@@@@@@@@@@@@@.......  o  oo  ....@@@@@@@@@@@@...............   @",
"%.@@.OOOOO@OOX...@@@@.....OO@@@@@@@@@@@@@@@@@@@@@....... ooooooo .....@@@@@@@@@@...............  + @",
"%@@@.OOOOO@O.....@@@@...OO@@@@@@@@@@X.@@@@@@@@@.......  oooooooooo ....@@@@@@@@@...............    @",
"%@@@.OOOO@OO....@@@@@@..OO@@@@@@@@@X...@@@@@@@.......  ooooooooooo .....@@@@@@@@....@@.........  + @",
"%@@@.OOOOOOO....@@@@@@..OO@@@@@@@@OO...@@@@@@@......  oooooooooooo  ....@@@@@@@@@@@@@@........     @",
"%. @@OOOOO......@@@@@@@..OOO@@@@@@OO....@@@@@@......  oooo  ooooooo ......@@@@@@@@@@@@@......      .",
"%% @@OOOOX......@@@@@@@..OOOOOOOOOOO.....@@@@......  ooooo oooooooo  .....@@@@@@@@@@@@@....      o %",
"%%o@@.OOX....@@.@@@@@@@..OOOOOOO..................  ooooooooooooooo  ......@@@@@@@@@@@@@.@@oooo  o %",
"%% @@@.XX...@@@@@@@o@@@@.OOOOOOO.................   oooooooooooooo  .......@@@@@@@@@@@@@@@ooo+oooo %",
"%%  @@.XX...@@@oooooo@@@.OOOOOO.................  ooooooooooooooOOOOOO......@@@@@@@@@@@@@@ooo++ooo %",
"%%%o@@@XX.@.@ooooooooo@@@.OOOO.................  ooooooooooooooOOOOOOOOOO...@@@@@@@@@@@@@@ooo+oooo%%",
"%%%@@@@...@@@ooooooooo@@@@.....................ooooooooooooooooOOOOOOOOOOO...@@@@@@@@@@#@@oooooooo%%",
"%%% @@@@@@@@@oooooooooo@@@...................  ooooooooooooooooOOOOOOOOOOO...@@@@@@@@@#@@@oooooooo%%",
"%%%o@@@@@@@@ooooooooooo@@@@@................ ooooooooooooooooo@OOOOOOOO#OOO.@@@@@@@@@##@@oooooooo %%",
"%%%%.@@@@.@@@oooooooooo@@@@@@.....@.....ooooooooooooooooooooo@@@OOOOO###O@OO@@@@@@@@###@@oooooooo%%%",
"%%%%@.@@@@@@@oooooooooo@@@@@@@@.@@@@@ooooooooooooooooooooo o@@@@OOO#$$##OOO@@@@@@@@###@@@oooooo@o%%%",
"%%%%%..@@@..@oooooooooo@@@@@@@@@@@@oooooooooooooooooooooooo o@@@O#$$$$$#O@@@@@@@.@###@@@oooooo@@%%%%",
"%%%%%..@.@@@@@ooooooooo@@@@@@@@@@@@oooooooooooooooooooooooo@@@@#$$$$$$$#O@@@@@@@@@###@@@@@@@@@@@%%%%",
"%%%%%%.@O.@@@@ooooooo@@@@@@@@@@@@@@oooooooooooo  oooooooo@@@@@#$$$$$$$#OO@@@@@@@@###.@@@@@@@@@@%%%%%",
"%%%%%%O...@@@@ooooooo@@@@@@@@@@@@@@@oooooooo    ooooooo@@@@@@#$$$$$$$#OOO@@@@@@@@#@@@@@@@@@@@@+%%%%%",
"%%%%%%%...@@@@@ooooo@@@@@@@@@@@@@@@@@oooooo@@oo@@@@ooo@@@@@@#$$$$$$$#OOO@@@@@@@@@@@@@.@@@@@o@+%%%%%%",
"%%%%%%%O..@@@@@ooooo@@@@@@@@@@@@@@@@@@@oo@@@@@@@@@@@@@@@@@@@$$$$$$$#OOOO@@@@@@@@@@@@...@@@@@++%%%%%%",
"%%%%%%%%X.@@@@@ ooo@@@@@@@@@@@@@@@@@@@@@@@@@@@@@@.OOOOO@@@@#$$$$$$#OOOOO@@@@@@@@@@@@.@.@@@@@+%%%%%%%",
"%%%%%%%%...@@@@@ooo@@@@@@@@@@@@@@@@@@@@@@@@@@@@@@OOOOOO@@@@#$$$$##OOOXOX@@@@@@@@@@@@@@.@@@@+.%%%%%%%",
"%%%%%%%%%..@@@@@@@@@@@@@@@@@@@@@@@@@@@@@@@@@@@@@@OOOOOO@@@@#####XOOOOOO@@@@@@@@@@.@@@@.@@@++%%%%%%%%",
"%%%%%%%%%%...@@@@@@@@@@@@@@@@@@@@@@@@@@@@@@@@@@@OOOOOOOO@@@@@@@OOOOOOOO@@@@@@@@@@.@@@.@@@@+%%%%%%%%%",
"%%%%%%%%%%%@@@@@@@@@@@@@@@@@@@@@@@@@@@@@@@@@@@@@@@OOOOXX@@@@@@@@OX.OOOO@@@@@@@@@..@@@@@@@+%%%%%%%%%%",
"%%%%%%%%%%%@o .@@@@@@@@@@@@@@@@@@@@@@@@@@OOOOO@@@OOOXXX@@@@@@@@OOOXOOOO@@@@@@@@...@@@@@O++%%%%%%%%%%",
"%%%%%%%%%%%%ooo@@@@@@@@@@@@@@@@@@@@@@@@@@OOOOO@@@OOOXX@@..@@@@..OOXOOOO@@@@@@...@@@@@@+++%%%%%%%%%%%",
"%%%%%%%%%%%%%oo@@@@@@@@@@@@@@@@@@@@@@@@@@@OO.@@@@OO@@@@@@@@@..O..XX..OOO@@@@...@@@@@@+++%%%%%%%%%%%%",
"%%%%%%%%%%%%%% o@o@@@@@@@@@@@@@@@@@@@@@@@@OO@@@@@@@@@@@@@@@.OOOO..X.OOOOO@@...@@@@@@++@%%%%%%%%%%%%%",
"%%%%%%%%%%%%%%%o@@o@@@@OO@@@@@@@@@@@@@O@@OOOOO..@@@@@@@@@@@.OOOOX.X.XXXXX.....@@@@@+@@%%%%%%%%%%%%%%",
"%%%%%%%%%%%%%%%%oo@@@@@OOOO@@@@OOO@@@OOOOOOOOOXX...@@@@@@@@OOOOOX....OOO......oo@++@@%%%%%%%%%%%%%%%",
"%%%%%%%%%%%%%%%%%oo@@@@@OOOO##@@OOOOOOOOOOOOOOOXXX...@@@@@@@OOXX#X..XX......  o@+++@%%%%%%%%%%%%%%%%",
"%%%%%%%%%%%%%%%%%%   @@@@OOOOO##@OOOOOOOOOOOOOOOOO####O.@@@@@@X#......O.... .@@++O@%%%%%%%%%%%%%%%%%",
"%%%%%%%%%%%%%%%%%%%  . @@@@@XX@@@@@OOOOOOOOOOOOOOOOOOOO.#.XO..XX............@@++@@%%%%%%%%%%%%%%%%%%",
"%%%%%%%%%%%%%%%%%%%%%     @@@@XX@#@XOOOOOOOOOOOOOOOOOO...OOO.X.X...........@+++@%%%%%%%%%%%%%%%%%%%%",
"%%%%%%%%%%%%%%%%%%%%%%     @@@...XX@##XOOOOOOOOOOOOX.....XXX...OO.....#...O+++@%%%%%%%%%%%%%%%%%%%%%",
"%%%%%%%%%%%%%%%%%%%%%%%@     @XXXXX..@XXXXXXOOOOOXXXX..............#++...++++@%%%%%%%%%%%%%%%%%%%%%%",
"%%%%%%%%%%%%%%%%%%%%%%%%%.    @..OO...@.....XXXXXX..#............++++...++@@%%%%%%%%%%%%%%%%%%%%%%%%",
"%%%%%%%%%%%%%%%%%%%%%%%%%%%O    @@....@@@....#..#$$##..  .....$++++....+@+%%%%%%%%%%%%%%%%%%%%%%%%%%",
"%%%%%%%%%%%%%%%%%%%%%%%%%%%%%@...@@oo@@@@@.OX##$$$$$. ooo .$+++++.......%%%%%%%%%%%%%%%%%%%%%%%%%%%%",
"%%%%%%%%%%%%%%%%%%%%%%%%%%%%%%%O@@@@@#oo@@@.#$$+++$#$$#$+++++++.......%%%%%%%%%%%%%%%%%%%%%%%%%%%%%%",
"%%%%%%%%%%%%%%%%%%%%%%%%%%%%%%%%%XOO@@ooooo#+++####oo#++++++OOX....@%%%%%%%%%%%%%%%%%%%%%%%%%%%%%%%%",
"%%%%%%%%%%%%%%%%%%%%%%%%%%%%%%%%%%%%%OOOOOo  .@@@ooo  oo...XX...%%%%%%%%%%%%%%%%%%%%%%%%%%%%%%%%%%%%",
"%%%%%%%%%%%%%%%%%%%%%%%%%%%%%%%%%%%%%%%%%OOOOOOOOOO.......X.%%%%%%%%%%%%%%%%%%%%%%%%%%%%%%%%%%%%%%%%"
};
