/* XPM */
static char *result[] = {
/* columns rows colors chars-per-pixel */
"64 64 195 2 ",
"   c #202527",
".  c #26393F",
"X  c #233338",
"o  c #316A31",
"O  c #34773C",
"+  c #457B2F",
"@  c #283E49",
"#  c #273143",
"$  c #284E43",
"%  c #294B4A",
"&  c #284B4A",
"*  c #2A524B",
"=  c #2D5B4C",
"-  c #2A5146",
";  c #2B5652",
":  c #2C5A53",
">  c #2F5F5C",
",  c #255A5A",
"<  c #335B57",
"1  c #31634C",
"2  c #3A6D4D",
"3  c #35744A",
"4  c #3B744B",
"5  c #377C4E",
"6  c #387847",
"7  c #346651",
"8  c #316B50",
"9  c #31625C",
"0  c #3F7655",
"q  c #3A7954",
"w  c #2E6356",
"e  c #2E5D68",
"r  c #2F5D66",
"t  c #3C5874",
"y  c #3A456C",
"u  c #316364",
"i  c #356A66",
"p  c #36686A",
"a  c #397767",
"s  c #376E70",
"d  c #3B687C",
"f  c #3B7A76",
"g  c #3E7C7B",
"h  c #3A7577",
"j  c #427851",
"k  c #404865",
"l  c #41577F",
"z  c #417B74",
"x  c #58A91C",
"c  c #63AA14",
"v  c #438F3C",
"b  c #4F9539",
"n  c #559A3B",
"m  c #469027",
"M  c #5CA43E",
"N  c #63AB23",
"B  c #63AB2C",
"V  c #63AB32",
"C  c #63AC3D",
"Z  c #3E834B",
"A  c #3A8258",
"S  c #3E8867",
"D  c #4A8946",
"F  c #40864C",
"G  c #448A4A",
"H  c #4B8B48",
"J  c #4A914A",
"K  c #4D9446",
"L  c #549A44",
"P  c #549746",
"I  c #418E56",
"U  c #529B5E",
"Y  c #5CA340",
"T  c #56A14F",
"R  c #59A351",
"E  c #63AC42",
"W  c #63AD4A",
"Q  c #63B04C",
"!  c #6BB444",
"~  c #63B052",
"^  c #63B35E",
"/  c #5D8F66",
"(  c #4B946C",
")  c #4E9860",
"_  c #43917C",
"`  c #4A8E6B",
"'  c #5BAF7E",
"]  c #56A56E",
"[  c #63B363",
"{  c #64B86E",
"}  c #63B572",
"|  c #63B679",
" . c #85AB7F",
".. c #3B6A80",
"X. c #3E7B82",
"o. c #445C86",
"O. c #5E5E92",
"+. c #585D8B",
"@. c #476888",
"#. c #427A84",
"$. c #42788B",
"%. c #4C6B93",
"&. c #4C6A9B",
"*. c #5E6A93",
"=. c #497398",
"-. c #646F95",
";. c #4D7AA2",
":. c #6879A2",
">. c #3F828C",
",. c #3C8081",
"<. c #2A888C",
"1. c #41838C",
"2. c #408083",
"3. c #528282",
"4. c #448396",
"5. c #448A92",
"6. c #468E9A",
"7. c #498B9C",
"8. c #4D879D",
"9. c #4A989C",
"0. c #559197",
"q. c #749199",
"w. c #4CA08B",
"e. c #5CB499",
"r. c #54AC9C",
"t. c #63BA8A",
"y. c #66B98D",
"u. c #62BA94",
"i. c #62BC9C",
"p. c #4E8CA7",
"a. c #598CA4",
"s. c #4B9AA4",
"d. c #4C9CAB",
"f. c #4B97A7",
"g. c #5397AE",
"h. c #4E9FB2",
"j. c #5499B6",
"k. c #6389AF",
"l. c #6596B8",
"z. c #54A9A7",
"x. c #4EA0B1",
"c. c #51A2B5",
"v. c #54AAB3",
"b. c #53A8BB",
"n. c #5AB6B8",
"m. c #5CBDA8",
"M. c #62BCAA",
"N. c #61BCA6",
"B. c #63BFB6",
"V. c #62C0BB",
"C. c #62C0B3",
"Z. c #5AABC3",
"A. c #55AEC1",
"S. c #57B1C3",
"D. c #5DBBC6",
"F. c #59B6CA",
"G. c #5BBBCD",
"H. c #57B4C8",
"J. c #4DBED4",
"K. c #5DBDD3",
"L. c #5CB6D0",
"P. c #64B2CE",
"I. c #6CB5C4",
"U. c #65BFDA",
"Y. c #6DA9C6",
"T. c #5EC1D7",
"R. c #5FC3DA",
"E. c #54C5DE",
"W. c #62C2C3",
"Q. c #62C4CC",
"!. c #61C4D4",
"~. c #61C5DB",
"^. c #62C8DE",
"/. c #63C8D7",
"(. c #76C7D2",
"). c #5EC9E1",
"_. c #62C9E1",
"`. c #6CCDE1",
"'. c #61C7E0",
"]. c #8FBC80",
"[. c #828AAD",
"{. c #949FA0",
"}. c #86ABAF",
"|. c #A3D08C",
" X c #A2C590",
".X c #A3CCAE",
"XX c #B1C6B6",
"oX c #97CCD3",
"OX c #B2D4D5",
"+X c #B2D8E7",
"@X c #CEDCD8",
"#X c #DEE3DF",
"$X c #DDEDE6",
"%X c #E0E3E0",
"&X c None",
/* pixels */
"&X&X&X&X&X&X&X&X&X&X&X&X&X&X&X&X&X&X&X&X&X&X&X&X&X&X&X&X&X&X&X&X&X&X&X&X&X&X&X&X&X&X&X&X&X&X&X&X&X&X&X&X&X&X&X&X&X&X&X&X&X&X&X&X",
"&X&X&X&X&X&X&X&X&X&X&X&X&X&X&X&X&X&X&X&X&X&X&X&X&X&X&X&X&X&X&X&X&X&X&X&X&X&X&X&X&X&X&X&X&X&X&X&X&X&X&X&X&X&X&X&X&X&X&X&X&X&X&X&X",
"&X&X&X&X&X&X&X&X&X&X&X&X&X&X&X&X&X&X&X&X&X&X&X&X&X&X&X&X&X&X&X&X&X&X&X&X&X&X&X&X&X&X&X&X&X&X&X&X&X&X&X&X&X&X&X&X&X&X&X&X&X&X&X&X",
"&X&X&X&X&X&X&X&X&X&X&X&X&X&X&X&X&X&X&X&X&X&X&X&X&X&X&X&X&X&X&X&X&X&X&X&X&X&X&X&X&X&X&X&X&X&X&X&X&X&X&X&X&X&X&X&X&X&X&X&X&X&X&X&X",
"&X&X&X&X&X&X&X&X&X&X&X&X&X&X&X&X&X&X&X&X&X&X&X&X&X&X&X&X&X&X&X&X&X&X&X&X&X&X&X&X&X&X&X&X&X&X&X&X&X&X&X&X&X&X&X&X&X&X&X&X&X&X&X&X",
"&X&X&X&X&X&X&X&X&X&X&X&X&X&X&X&X&X&X&X&X&X&X&X&X&X&X&X&X&X&X&X&X&X&X&X&X&X&X&X&X&X&X&X&X&X&X&X&X&X&X&X&X&X&X&X&X&X&X&X&X&X&X&X&X",
"&X&X&X&X&X&X&X&X&X&X&X&X&X&X&X&X&X&X&X&X&X&X&X&X&X&X&X&X&X&X&X&X&X&X&X&X&X&X&X&X&X&X&X&X&X&X&X&X&X&X&X&X&X&X&X&X&X&X&X&X&X&X&X&X",
"&X&X&X&X&X&X&X&X&X&X&X&X&X&X&X&X&X&X&X&X&X&X&X&X&X&X&X&X&X&X&X&X&X&X&X&X&X&X&X&X&X&X&X&X&X&X&X&X&X&X&X&X&X&X&X&X&X&X&X&X&X&X&X&X",
"&X&X&X&X&X&X&X&X&X&X&X&X&X&X&X&X&X&X&X&X&X&X&X&X&X&X&X&X&X&X&X&X&X&X&X&X&X&X&X&X&X&X&X&X&X&X&X&X&X&X&X&X&X&X&X&X&X&X&X&X&X&X&X&X",
"&X&X&X&X&X&X&X&X&X&X&X&X&X&X&X&X&X&X&X&X&X&X&X&X&X&X&X&X&X&X&X&X&X&X&X&X&X&X&X&X&X&X&X&X&X&X&X&X&X&X&X&X&X&X&X&X&X&X&X&X&X&X&X&X",
"&X&X&X&X&X&X&X&X&X&X&X&X&X&X&X&X&X&X&X&X&X&X&X&X&X&X&X&X&X&X&X&X&X&X&X&X&X&X&X&X&X&X&X&X&X&X&X&X&X&X&X&X&X&X&X&X&X&X&X&X&X&X&X&X",
"&X&X&X&X&X&X&X&X&X&X&X&X&X&X&X&X&X&X&X&X&X&X&X&X&X&X&X&X&X&X&X&X&X&X&X&X&X&X&X&X&X&X&X&X&X&X&X&X&X&X&X&X&X&X&X&X&X&X&X&X&X&X&X&X",
"&X&X&X&X&X&X&X&X&X&X&X&X&X&X&X&X&X&X&X&X&X&X&X&X&X&X&X&X&X&X&X&X&X&X&X&X&X&X&X&X&X&X&X&X&X&X&X&X&X&X&X&X&X&X&X&X&X&X&X&X&X&X&X&X",
"&X&X&X&X&X&X&X&X&X&X&X&X&X&X&X&X&X&X&X&X&X&X&X&X&X&X&X&X&X&X&X&X&X&X&X&X&X&X&X&X&X&X&X&X&X&X&X&X&X&X&X&X&X&X&X&X&X&X&X&X&X&X&X&X",
"&X&X&X&X&X&X&X&X&X&X&X&X&X&X&X&X&X&X&X&X&X&X&X&X&X&X&X&X&X&X&X&X&X&X&X&X&X&X&X&X&X&X&X&X&X&X&X&X&X&X&X&X&X&X&X&X&X&X&X&X&X&X&X&X",
"&X&X&X&X&X&X&X&X&X&X&X&X&X&X&X&X&X&X&X&X&X&X&X&X&X&X&X&X&X&X&X&X&X&X&X&X&X&X&X&X&X&X&X&X&X&X&X&X&X&X&X&X&X&X&X&X&X&X&X&X&X&X&X&X",
"&X&X&X&X&X&X&X&X&X&X&X&X&X&X&X&X&X&X&X&X&X&X&X&X&X&X&X&X&Xr e e ; . @ &X&X&X&X&X&X&X&X&X&X&X&X&X&X&X&X&X&X&X&X&X&X&X&X&X&X&X&X&X",
"&X&X&X&X&X&X&X&X&X&X&X&X&X&X&X&X&X&X&X&X&X&X&X&X&X&XG.K.^.G.G._._.K.1.#.s d ..&X&X&X&X&X&X&X&X&X&X&X&X&X&X&X&X&X&X&X&X&X&X&X&X&X",
"&X&X&X&X&X&X&X&X&X&X&X&X&X&X&X&X&X&X&X&X&X&X&X&X9.R._.T.d.g Q.^._._._._._.P.K.$...&X&X&X&X&X&X&X&X&X&X&X&X&X&X&X&X&X&X&X&X&X&X&X",
"&X&X&X&X&X&X&X&X&X&X&X&X&X&X&X&X&X&X&X&X&X&X+ J = * 6.S._.S.^._._._.b.R._.:.:.%.p...&X&X&X&X&X&X&X&X&X&X&X&X&X&X&X&X&X&X&X&X&X&X",
"&X&X&X&X&X&X&X&X&X&X&X&X&X&X&X&X&X&X&X&X&X! ( : ; = ; h _._._._._.G.X.@.T.:.-.P._.L.%.&X&X&X&X&X&X&X&X&X&X&X&X&X&X&X&X&X&X&X&X&X",
"&X&X&X&X&X&X&X&X&X&X&X&X&X&X&X&X&X&X&X&XI G.w : ; ; ; h G.F.^._._._.K.H._.P.P.Y.~.U.T.t &X&X&X&X&X&X&X&X&X&X&X&X&X&X&X&X&X&X&X&X",
"&X&X&X&X&X&X&X&X&X&X&X&X&X&X&X&X&X&X&Xz e.= p * * ; 7 * $ $ 0 t.^._.R._._._._._._._.b.: j.&X&X&X&X&X&X&X&X&X&X&X&X&X&X&X&X&X&X&X",
"&X&X&X&X&X&X&X&X&X&X&X&X&X&X&X&X&X&X&XR : * & X.1.2 L 7 = 0 W E t.W._._._._._._._._._.R.9.4.&X&X&X&X&X&X&X&X&X&X&X&X&X&X&X&X&X&X",
"&X&X&X&X&X&X&X&X&X&X&X&X&X&X&X&X&X&Xs.1 * * ; ; ; C C C V._.^.^._._._._._._._._._._._._.2.X.&X&X&X&X&X&X&X&X&X&X&X&X&X&X&X&X&X&X",
"&X&X&X&X&X&X&X&X&X&X&X&X&X&X&X&X&X&X_.X.$ % = Y L C C y.^._._._._._.^.^._._._.R._.^._.Q.( : v.&X&X&X&X&X&X&X&X&X&X&X&X&X&X&X&X&X",
"&X&X&X&X&X&X&X&X&X&X&X&X&X&X&X&X&XK._.^.h.1.= E C E C W ' Q._._._._.^.^._._._._.u.V i._._.M.G.&X&X&X&X&X&X&X&X&X&X&X&X&X&X&X&X&X",
"&X&X&X&X&X&X&X&X&X&X&X&X&X&X&X&X&Xa.A.x.@.F.$ ; G F Z H b V._.^._._.^._._._._._.Q E V } t.[ C &X&X&X&X&X&X&X&X&X&X&X&X&X&X&X&X&X",
"&X&X&X&X&X&X&X&X&X&X&X&X&X&X&X&X&Xa.p ; '.z 7 4 5 F 6 0 ] !._.^._._._._._._._._.[ V } b ' B.z P &X&X&X&X&X&X&X&X&X&X&X&X&X&X&X&X",
"&X&X&X&X&X&X&X&X&X&X&X&X&X&X&X&Xp g.f.S._.M.V C V u.M.^.^.Q.[ E } W._.^._._._._.V.c n.A _ `.k._ &X&X&X&X&X&X&X&X&X&X&X&X&X&X&X&X",
"&X&X&X&X&X&X&X&X&X&X&X&X&X&X&X&X>.8.I.T._.| C E ~.'.^.N.Q N C C C N r.R._._._._._.u.P 6 > u -.w &X&X&X&X&X&X&X&X&X&X&X&X&X&X&X&X",
"&X&X&X&X&X&X&X&X&X&X&X&X&X&X&X&XZ.t {.J._.[ C } '.'.Q.B C C C C M M 9.e.R._._._._._.).n.> : < : &X&X&X&X&X&X&X&X&X&X&X&X&X&X&X&X",
"&X&X&X&X&X&X&X&X&X&X&X&X&X&X&X&XG.l.}.oXW.B N V._.| C C C C C C C C M u._.R.^._._._._.a 7 8 = ; &X&X&X&X&X&X&X&X&X&X&X&X&X&X&X&X",
"&X&X&X&X&X&X&X&X&X&X&X&X&X&X&X&X^.).`..Xy.C B W.i.C C C C C C C C C Y ( G.T._._._._._.S P { j #.&X&X&X&X&X&X&X&X&X&X&X&X&X&X&X&X",
"&X&X&X&X&X&X&X&X&X&X&X&X&X&X&X&XR.R.).$XXX! C ^.C C C M C C C C C M S R.T._._._._._._.R ~ | i 8.&X&X&X&X&X&X&X&X&X&X&X&X&X&X&X&X",
"&X&X&X&X&X&X&X&X&X&X&X&X&X&X&X&X&XT.`.`.#X .B V.Q E C C C C C C C K z.s : b._.F._._.W.Q W H p < &X&X&X&X&X&X&X&X&X&X&X&X&X&X&X&X",
"&X&X&X&X&X&X&X&X&X&X&X&X&X&X&X&X&Xn.^.^.<.XXN V.C.B C C C C C L Z 8 - > : s T.f.5._._.E / ; %.k &X&X&X&X&X&X&X&X&X&X&X&X&X&X&X&X",
"&X&X&X&X&X&X&X&X&X&X&X&X&X&X&X&X&Xz.T.^.D.m N N._.~ C C C K Z 5 : ; >.i * ; f.s.* ^._.M.o g.+.&X&X&X&X&X&X&X&X&X&X&X&X&X&X&X&X&X",
"&X&X&X&X&X&X&X&X&X&X&X&X&X&X&X&X&X5.6.V.^ C B t._.C.| n Z 5 6 a = 9 G.).K.- b.T.p S._.^.Z.-.%.&X&X&X&X&X&X&X&X&X&X&X&X&X&X&X&X&X",
"&X&X&X&X&X&X&X&X&X&X&X&X&X&X&X&X&X&X9 z.W E C C Q.^.C.b 5 3 d.^.R._.).R.6.R.x.T.5.F.^.Y.:.*.&X&X&X&X&X&X&X&X&X&X&X&X&X&X&X&X&X&X",
"&X&X&X&X&X&X&X&X&X&X&X&X&X&X&X&X&X&Xu >.G.U C C [ Q.N C J 7 ; u s._.G.@.# % 9 T.E.(.oX-.O.0.&X&X&X&X&X&X&X&X&X&X&X&X&X&X&X&X&X&X",
"&X&X&X&X&X&X&X&X&X&X&X&X&X&X&X&X&X&X&Xp.) P C E ^ B.B C Y 8 ; ; x.^.;.y l , q.I.OX#X[.U.=.&X&X&X&X&X&X&X&X&X&X&X&X&X&X&X&X&X&X&X",
"&X&X&X&X&X&X&X&X&X&X&X&X&X&X&X&X&X&X&X&X) E C C V Q.M.E C Y : ; p._.Z.'._.+XOX X%Xq.z L.&X&X&X&X&X&X&X&X&X&X&X&X&X&X&X&X&X&X&X&X",
"&X&X&X&X&X&X&X&X&X&X&X&X&X&X&X&X&X&X&X&X&XE M C E !.i.~ C L : : c._._.H./.N.x |. .X.j.&X&X&X&X&X&X&X&X&X&X&X&X&X&X&X&X&X&X&X&X&X",
"&X&X&X&X&X&X&X&X&X&X&X&X&X&X&X&X&X&X&X&X&X&Xh 4 E C u.W Y F G q * 9 5.v.C B  Xv h o.&X&X&X&X&X&X&X&X&X&X&X&X&X&X&X&X&X&X&X&X&X&X",
"&X&X&X&X&X&X&X&X&X&X&X&X&X&X&X&X&X&X&X&X&X&X&X; = L C ) w.q H n - : p h z.v.S.p.y &X&X&X&X&X&X&X&X&X&X&X&X&X&X&X&X&X&X&X&X&X&X&X",
"&X&X&X&X&X&X&X&X&X&X&X&X&X&X&X&X&X&X&X&X&X&X&X&X&XH 7 ; % 6.; X.6.d ..&.=.o.l &X&X&X&X&X&X&X&X&X&X&X&X&X&X&X&X&X&X&X&X&X&X&X&X&X",
"&X&X&X&X&X&X&X&X&X&X&X&X&X&X&X&X&X&X&X&X&X&X&X&X&X&X&X&X; . . X   @ % p.f.&X&X&X&X&X&X&X&X&X&X&X&X&X&X&X&X&X&X&X&X&X&X&X&X&X&X&X",
"&X&X&X&X&X&X&X&X&X&X&X&X&X&X&X&X&X&X&X&X&X&X&X&X&X&X&X&X&X&X&X&X&X&X&X&X&X&X&X&X&X&X&X&X&X&X&X&X&X&X&X&X&X&X&X&X&X&X&X&X&X&X&X&X",
"&X&X&X&X&X&X&X&X&X&X&X&X&X&X&X&X&X&X&X&X&X&X&X&X&X&X&X&X&X&X&X&X&X&X&X&X&X&X&X&X&X&X&X&X&X&X&X&X&X&X&X&X&X&X&X&X&X&X&X&X&X&X&X&X",
"&X&X&X&X&X&X&X&X&X&X&X&X&X&X&X&X&X&X&X&X&X&X&X&X&X&X&X&X&X&X&X&X&X&X&X&X&X&X&X&X&X&X&X&X&X&X&X&X&X&X&X&X&X&X&X&X&X&X&X&X&X&X&X&X",
"&X&X&X&X&X&X&X&X&X&X&X&X&X&X&X&X&X&X&X&X&X&X&X&X&X&X&X&X&X&X&X&X&X&X&X&X&X&X&X&X&X&X&X&X&X&X&X&X&X&X&X&X&X&X&X&X&X&X&X&X&X&X&X&X",
"&X&X&X&X&X&X&X&X&X&X&X&X&X&X&X&X&X&X&X&X&X&X&X&X&X&X&X&X&X&X&X&X&X&X&X&X&X&X&X&X&X&X&X&X&X&X&X&X&X&X&X&X&X&X&X&X&X&X&X&X&X&X&X&X",
"&X&X&X&X&X&X&X&X&X&X&X&X&X&X&X&X&X&X&X&X&X&X&X&X&X&X&X&X&X&X&X&X&X&X&X&X&X&X&X&X&X&X&X&X&X&X&X&X&X&X&X&X&X&X&X&X&X&X&X&X&X&X&X&X",
"&X&X&X&X&X&X&X&X&X&X&X&X&X&X&X&X&X&X&X&X&X&X&X&X&X&X&X&X&X&X&X&X&X&X&X&X&X&X&X&X&X&X&X&X&X&X&X&X&X&X&X&X&X&X&X&X&X&X&X&X&X&X&X&X",
"&X&X&X&X&X&X&X&X&X&X&X&X&X&X&X&X&X&X&X&X&X&X&X&X&X&X&X&X&X&X&X&X&X&X&X&X&X&X&X&X&X&X&X&X&X&X&X&X&X&X&X&X&X&X&X&X&X&X&X&X&X&X&X&X",
"&X&X&X&X&X&X&X&X&X&X&X&X&X&X&X&X&X&X&X&X&X&X&X&X&X&X&X&X&X&X&X&X&X&X&X&X&X&X&X&X&X&X&X&X&X&X&X&X&X&X&X&X&X&X&X&X&X&X&X&X&X&X&X&X",
"&X&X&X&X&X&X&X&X&X&X&X&X&X&X&X&X&X&X&X&X&X&X&X&X&X&X&X&X&X&X&X&X&X&X&X&X&X&X&X&X&X&X&X&X&X&X&X&X&X&X&X&X&X&X&X&X&X&X&X&X&X&X&X&X",
"&X&X&X&X&X&X&X&X&X&X&X&X&X&X&X&X&X&X&X&X&X&X&X&X&X&X&X&X&X&X&X&X&X&X&X&X&X&X&X&X&X&X&X&X&X&X&X&X&X&X&X&X&X&X&X&X&X&X&X&X&X&X&X&X",
"&X&X&X&X&X&X&X&X&X&X&X&X&X&X&X&X&X&X&X&X&X&X&X&X&X&X&X&X&X&X&X&X&X&X&X&X&X&X&X&X&X&X&X&X&X&X&X&X&X&X&X&X&X&X&X&X&X&X&X&X&X&X&X&X",
"&X&X&X&X&X&X&X&X&X&X&X&X&X&X&X&X&X&X&X&X&X&X&X&X&X&X&X&X&X&X&X&X&X&X&X&X&X&X&X&X&X&X&X&X&X&X&X&X&X&X&X&X&X&X&X&X&X&X&X&X&X&X&X&X",
"&X&X&X&X&X&X&X&X&X&X&X&X&X&X&X&X&X&X&X&X&X&X&X&X&X&X&X&X&X&X&X&X&X&X&X&X&X&X&X&X&X&X&X&X&X&X&X&X&X&X&X&X&X&X&X&X&X&X&X&X&X&X&X&X",
"&X&X&X&X&X&X&X&X&X&X&X&X&X&X&X&X&X&X&X&X&X&X&X&X&X&X&X&X&X&X&X&X&X&X&X&X&X&X&X&X&X&X&X&X&X&X&X&X&X&X&X&X&X&X&X&X&X&X&X&X&X&X&X&X",
"&X&X&X&X&X&X&X&X&X&X&X&X&X&X&X&X&X&X&X&X&X&X&X&X&X&X&X&X&X&X&X&X&X&X&X&X&X&X&X&X&X&X&X&X&X&X&X&X&X&X&X&X&X&X&X&X&X&X&X&X&X&X&X&X"
};
