/* XPM */
static char *result[] = {
/* columns rows colors chars-per-pixel */
"100 100 10 1 ",
"  c #283540",
". c #2F5753",
"X c #3B7D4F",
"o c #404973",
"O c #63AB3F",
"+ c #686F99",
"@ c #62C8E0",
"# c #DFE0E8",
"$ c #F5FFE8",
"% c None",
/* pixels */
"%%%%%%%%%%%%%%%%%%%%%%%%%%%%%%%%%%%%%%%%%%%%%%%%%%%%%%%%%%%%%%%%%%%%%%%%%%%%%%%%%%%%%%%%%%%%%%%%%%%%",
"%%%%%%%%%%%%%%%%%%%%%%%%%%%%%%%%%%%%%%%%%. .o@@@@@@@@@o@o@o %%%%%%%%%%%%%%%%%%%%%%%%%%%%%%%%%%%%%%%%",
"%%%%%%%%%%%%%%%%%%%%%%%%%%%%%%%%%%%%oo   oooooo@@@@@oooooooooo  %%%%%%%%%%%%%%%%%%%%%%%%%%%%%%%%%%%%",
"%%%%%%%%%%%%%%%%%%%%%%%%%%%%%%%%%o     .....@@@@@@@@@@@oooooooooo   %%%%%%%%%%%%%%%%%%%%%%%%%%%%%%%%",
"%%%%%%%%%%%%%%%%%%%%%%%%%%%%%%%      .....@@@@@@@@@@@@oooooooooooooo  %%%%%%%%%%%%%%%%%%%%%%%%%%%%%%",
"%%%%%%%%%%%%%%%%%%%%%%%%%%%%%     O@@@@@@@@@@@@@@@@@@@@@@oooooooooooooo %%%%%%%%%%%%%%%%%%%%%%%%%%%%",
"%%%%%%%%%%%%%%%%%%%%%%%%%%%     .O@@@@@@@@@@@@@@@@@@@@@@@@@ooooooooooooo  %%%%%%%%%%%%%%%%%%%%%%%%%%",
"%%%%%%%%%%%%%%%%%%%%%%%%%o    ..@@@@@@@@@@@@@@@@@o@@@@@@@@@@@@@@@@@@@ooooo  %%%%%%%%%%%%%%%%%%%%%%%%",
"%%%%%%%%%%%%%%%%%%%%%%%o  ooo@@@@@@@@@@@@@@@@@@@@@@@@@@@@@@@@@@@@OO@@@@@ooo   %%%%%%%%%%%%%%%%%%%%%%",
"%%%%%%%%%%%%%%%%%%%%%%oooooo@@@@@@@@@@@@@@@@@@@@@@@@...@@@@@@@@@@@O@@@@@@..o   %%%%%%%%%%%%%%%%%%%%%",
"%%%%%%%%%%%%%%%%%%%%%ooooo@@@@@@@@@@@@@@@@@@@@@@@@@OO@@@@@@@@@@@@@@O@@@@@.O.... %%%%%%%%%%%%%%%%%%%%",
"%%%%%%%%%%%%%%%%%%%oooooo@@@@@@@@@@@@@@@@@@@@@@@@OOO@@@@@@@@@@@@@@@@@@..@@@..O..  %%%%%%%%%%%%%%%%%%",
"%%%%%%%%%%%%%%%%%%@@oooo@@@@@@@@@@@@@@@@@@@@@@@@@@@@@@@@@@@@@@@@@@@@@@@@....XOOO...%%%%%%%%%%%%%%%%%",
"%%%%%%%%%%%%%%%%%.@.ooo@@@@@@+++@@@@@@@@@@@@@@@@@@@@@@@@@@XX@@@@@@@@@@@....XXXOOOOO.%%%%%%%%%%%%%%%%",
"%%%%%%%%%%%%%%%%.@@. ooooo++++++@@@@@@@@@@@@@@@@@@@@@@@@@@@@@X@@@@@@@@@XXXXXXXXXOO@O.%%%%%%%%%%%%%%%",
"%%%%%%%%%%%%%%%@@@..oooooo+++++@@@@@@@@@@@@@@@@@@@@@@@@@@@@@@@@X@@@@@@..X@@@@X.XXXOO@.%%%%%%%%%%%%%%",
"%%%%%%%%%%%%%%@@@..oooooooo++@@@@@@@@@@@@@@@@@@@@@@@@@@@@@@@@@@@@@@@@@@.XO@@@@X..XX@@O.%%%%%%%%%%%%%",
"%%%%%%%%%%%%%.@@.. ooo   .@@@@@@@@@@@@@@@@@@@@@@@@@@@@@@@@@@@@@X@.@@@@@..XO@@@.....XX@..%%%%%%%%%%%%",
"%%%%%%%%%%%%+@@.@ oo    .@@@@@@@@@@@@@@@@@@@@@@@@@#@@@@@@@@@@@@@.@@@@@@...OOO@......X@@..%%%%%%%%%%%",
"%%%%%%%%%%%..@@@  o  oo@@@@@@@@@@@@@@@@@@@@@@@#$#@@@@@@@@@@@@@@@@@@@.@...OOOOO.....X@@... %%%%%%%%%%",
"%%%%%%%%%%%.@@.     ooOOOOOO@@@@@@@@@@@@@@@@##@@@@@OOOOOO@@@@@@@###....O.OOOO.......@@... %%%%%%%%%%",
"%%%%%%%%%%.+@.      oOO@@@OOO@@@@@@@@@@@@@@#@@@@@@@O@OO@OO@@#$#@@OO.XXOO@@OOOO............ %%%%%%%%%",
"%%%%%%%%%@++..      oO@@@@@#@@@@@@@@@@@@@@@@@@@@@@@@@OO@@###OOOOOO@@@@@@@OOOO@@X..........  %%%%%%%%",
"%%%%%%%%+.+.. ..   @O@@@@@@@@@@@@@@@@@@@@@@@@@@@@@OOOO##@@@@@@@@@@@OOOOOOOOO@@O@X........    %%%%%%%",
"%%%%%%%%+++.......@@O@@@@@@@@@@@@@OO@@@@@@@@@@@O@@@@@@@@@@@@@@@OOOO@@@@@@@@@@@OO@@@......   .%%%%%%%",
"%%%%%%%@.++.......@@@@@@@@@@@@@@@@#@@@@@@@@@@@@@@@@@@@@@@@@@@@@@@@@@@@@@@@@@@@@O@@@@.....    .%%%%%%",
"%%%%%%%..++......@@@@@@@@@@@OOOOOO@@@@@@@@@@@@@@@@@@@@@@@@@@@@@@@@@@@@@@@@@@@@@@O@@@@....     %%%%%%",
"%%%%%%X...++++..@@@@@@@@@@@O@@OOOOO@@@@@@@@@@@@@@@@@@OOOOO@@@@@@O@OOOOOOOOO@@@@@@@@@@@@...     %%%%%",
"%%%%%%...+++++++@@@@@@@@@@OOOOO@@@@@@@@@@@@@@@@@@@@@OOOOOOOOOO@OOOOOOOOOOOOOOOOOO@@@@@@@...   .%%%%%",
"%%%%%X...+++++++#@@@@@@@@OO@@O@OO@@@@@@@@@@@@@@@@@@OOO@@@OOOOOOOOOOOOOOOOOOOOO@OOOOO@@@@...   O.%%%%",
"%%%%%....+++++++#@@@@@@@OO@@OO@O@@O@@@@@@@OOOO@@@@@OOOO@@OOOOOOOOOO@@@OOOOOOOO@OOOOOOO@@@@.    @%%%%",
"%%%%X..@@++++++$$#@@@@@OO@OOOOOOOO@O@@@@@OO@@OO@@@OOOOOO@OOOOOOOOOOOOO@@@@O@OOOOOOOO@OO@@@@.   @ %%%",
"%%%%@.@@@@++++$$##@@@@OOOOOOO@OOO@@@@@@@O@OO@@OO@@O@@OO@OOO@OOOOO@@@@@@@@@@OOOO@@OO@@@O@@@.@.  .@%%%",
"%%%...@@@@@++$$##@@@OOOO@OOOOOO@OOOO@@@@O@@@@OO@@@OOOOO@OOO@OOOO@@@@@@@OO@@@OO@@@@@@@@@O@@@.@  .@o%%",
"%%%@...@@@@@@@@@@@@@OOOOOOOOOOO@OOOOO@@OO@@@@@@@@@@OOOOOOOOOOOOOOOO@@@@@@O@@@@@@O@@@@@@OO@@@@.... %%",
"%%%@@..@@@@@@@@@@@@OOOOOOOOOOOOOOOOOO@@@O@@@@@@@@@@OOOOOOOOOO@@@@@@@@@@@@O@@@@@OO@@O@O@@@@@@@@...@%%",
"%%%....@@@@@@@@@OOOOOOOOOOOOOOOOOO@@@@@O@@@@O@@@@@@@@@@OOOOOO@@@@@@@@@@OO@O@@@@@@@@@@O@@@O@@@@....o%",
"%%@....@@@@@@@@@OOOOOOOOOOOOOOOOOOOOO@@@@@@@@@@@@@@@@@OOOOOOO@@@@@@@@@@OO@O@@@@@@@@O@OO@@O@@@@....o%",
"%%......@@@@@@@@OOOOOOOOOOOOOOOOOOOOOOO@@@@@O@@@@@@@@OOOOOOOO@@@@@@@@@@@@@@@@@@@@@@@@OO@@XX@@@.....%",
"%%..  .@@@@@@@@@OOOOOOOOOOOOOOOOOOOOOOOO@@@@@@@@@@@@@@XOOOOXO@@@@@@@@@@@@@@@@@@@@@O@@OOOOX.@@@@....%",
"%%..  .@@@@@@@@@OOOOOOOOOOOOOOOOOOOOOOOOO@@@@@@@@@@@XXXXOXXXX@@@@@@@@@@@@@@@@@@@@@@OO@OXXX.@@@@@...%",
"%..  ..@@@@@@@@@OOOO#####OOOOOOOOOOOO@@OOX@@@XXX@@@@XOO@@OXXX@@@@@@@@@@@@@@@@@@@@@@@@@@XXX.@@@@@@...",
"%.. ..@@O@OOO@@XXOOO#########OOOOOOOOOXXX@XX@@@@@@@@@@@@@@@XX@@@@@@@@@@@@@@@@@@@@@@@@@@XXX.@@@@@@..o",
"%.. .@@@OOOOOOXXXOOO###$$#########OXXXXXX@@@@@@@@@@@@@@@O@@@@@@@@@@@@@@@@@@@@@@@@@@@OO@@X...@@@@@@..",
"%.. .@@OOOOOOOXXXOOO##$$$$$$$$########XXXXXXXX@@@@OXX@@XXO@@@@@@@@@@@@@@@@@@@@@@@OOOOO@@XX...@.o@@.@",
"%.. @@OOOOOOOOOOOOO##$$$$$$$$$$$$$#####XXXXXX@@@@XOOXXXXXO@O@@@@@@@@@@@@@@@@@@@@@@@XOO@@.....@@oo@.@",
"%  ..@@OOOOOOOOOOOO#$$$$$$$$$$$$$#####XX.XX.@@@@@######XXO@O@@@@@@@@@@@@@@#@@@@@@@@@X@@@@@...@oooo@@",
"%  @@@@OOOOOOOOOOOO#$$$$$$$$$$$$####X.......@@@########XO@@@@@@@@@@@@@@@@####@@@@@@@@@@@@@....o oo@.",
"%  @@@OOOOOOOOOOOO#$$$$$$$$$$$$###XXX........###$$$$###XOO@@@OO@@@@@@@@@@###@@@@@@@@@@@....@.oo oo@@",
"% @@@@OOOOOOOOOOOOO$$$$$$$$$$$$##............##$$$$$##OOOOO@@OO@@@@@@@@@##@@@@@@@@@@@@@@.....oo o @@",
"%.@@@@OOOOOOOOOOOOO#$$$$$$$$$$##.............###$$###OOOOOOO@O@@@@@@@@@@#@@@@@@@@@@@@@@@.... oo o @@",
"%.@@@@OOOOOOXXXXX.O#$$$$$$$$$$#.............O########OOOOOO##$$$##@@@@###@@@@@@@@@@@@@@@@.@. o    oo",
"%@@@@@OOOOOXXXXXXXX#$$$$$$$$$$#.............OO######@O@O####OO@O##$######@@@@@@@@@@@@@@@@@. oo    oo",
"%@.@@@OOOOXX@@XXXX..@#$$$$$$$#@@............OOOO##O@@@##OOOO###X@@.##.@###@@@@@@@@@@@@@....ooo     o",
"%.@@@OOOOXX@@@@@@@@@@@@$$$$$##@............OOOOO@@@O#OO@O#$$$$$#@@.....@@#@@@@@@@@@@@@@@...oo o    o",
"% @@@OOOOXX@@@@@@@@@@@@@#$$##@@@...........OOOOOOOOOOOO#$$###$$$#@......@@@@@@@@@@@@@@@@..@oo      o",
"% @@@@@@OX@@@@@@@@@@@@@@@$$##@@@..........XOOOOOOOOOOO$$$####$$$$$$$#...@@@@@@@XO@@@@@@...@ooo o   @",
"%o...@@@@@@@@@@@@@@@@@@@@@$#@@@@@........OOOOOOOOOOOO$$$#####$$$$$$$$@..@@@@@OOOO@@@@@@@@.@o ooo  @@",
"%o. .@@@@@@@@@@@@@@@@@@@@@$#@@@@@@......OOOOOOOOOOO#$$$######$$$$$$$$...@@X@OOOOO@@@@@@@@.@oo oo  @@",
"%o  ..@.@@@@@@@@@@@@@@@@@###@@@@@@.....OOOOOOOOOOO$$$$##O####$###$$$#@..@@@OOOOOO@@@@.@@@.oo  oo ..@",
"%%  ........@@@@@@@@@@@@@#####@@@@.....OOOOOOOO#$$$$##@OOO######$$$#@@@.@@@OOOOO@@@@@..@.@ooooo o@.%",
"%% .  ........@@@@@@@@@@@@@#######$$$$$$$$$$$$$$$$$#OOOOOO....#$$$#@@@@..@.@OOX@@@@@@....@o  ooOO@@%",
"%%o.   ..... ..@@@@@@@@@@.@@@o##$$$$$$$$$$$$###OOOOOOOOOO.@@@#$$$#@@@@@@.@.@@@@@@@@@....@ooo  oO@@@%",
"%%+o    . ...  @@@@@@@@@....@@@@@@@@@.OOOOOOOOOOOOOOOO......$$$$@@@@@@@@.@..@@@@@@@....@@ooo   @@O.%",
"%%%oo           @@@@@@@.     @o@@@@@@@.OOOOOOOOOOOOO......#$$$#@.@@..@@@@.@.O@@@@@....@@oooo   O@O%%",
"%%%o             .@@@@@@..   ...@@@@@@..OOOOOOOOXXX......$$$#...@@....@@@@.@...@@..@.@@ooooooo.OOO%%",
"%%%+@  #          @@@@@...   .@@@@@@@@@..OOOOOOXX......$$$#@@@@@.......@@@@.@@@@....@@oooooooo@@XX%%",
"%%%+@o  $         .@@@@...  ..@@@@@@@@@....O..XXX....#$$#@@@@.....@@...@@@@.@@@@...@@ooo  ooo @@X.%%",
"%%%%@.  #$$       .@@@....    ...@@@@@@@@.....XXXX.#$$...@@.....    ....@@@@.....@@ooooo oo o@.@X%%%",
"%%%%+.. .$$$      .........  .....@@@@@@@@..XXXXX###......... oooo   o..@@@@@@..@@ooooo  o o@@@@@%%%",
"%%%%%@+ ..$$$#     ...    .  ......@@@@@@@...X.###......@..  ooooo   ....@@@@@@@@@ooooooo   @@@X%%%%",
"%%%%%+....#$$#     ...       .......@@@@@@...##...........   ooooo     ..@@@@@@@@oooooooooo@@@@@%%%%",
"%%%%%%+@...###     ...       ......@@@@@@@@@.............    oooo     .......@@@@@oooooooo@@@@@%%%%%",
"%%%%%%+@.....#.......      ........@@@@@@@@@@............      o   o  ......@@@@@ooooo@oo@@@@@.%%%%%",
"%%%%%%%@@............     ..........@@@@@@@@@@...........          oo..........@@@@ooo@o@@@o@@%%%%%%",
"%%%%%%%..+.....o........    ....OO..@@@@@@@@XX...........        oooo@@..@@....@@@@oo@o@@@.o@.%%%%%%",
"%%%%%%%%..+....o...............OOOOO@@@@@@@@OOOX.........        ooo@@@..........@@@@o@@@@ @@%%%%%%%",
"%%%%%%%%.OO.......OO..O.O.OOOOOOOOOO@@@@@@@@@OOOOO........       o@@@@@..........@@@@@@@@oo@.%%%%%%%",
"%%%%%%%%%+OO.....OOOOOOOOOOOOO@@@OO@@@@@@@@@OOOOOOO.............O@@@@@@@...@.....@@@@@@@@o@.%%%%%%%%",
"%%%%%%%%%%+O@....OOOOOOOOOO@@@@@@@@@@@@@@@@OOOOOOOOOO..........OO.OOO@@@..@.@@.....@@@@@@@@%%%%%%%%%",
"%%%%%%%%%%%.@@OO.OOOOOOOOOO@@@@@@@@@@@@@@OOOOOOOOOOOOO.............@@@@@XX@...@....@@@@@@@%%%%%%%%%%",
"%%%%%%%%%%%.X@O@OOOOOOOOOOO@@@@@@@@@@@@@OOOOOOOOOOOOOOO............OXX@XX.@@@@@@..@.@@...@%%%%%%%%%%",
"%%%%%%%%%%%% @@@@OOOOOOOOO@@@@@@@@@@@@@@OOOOOOOOOOOOOO............X..XXXX..@@@@@@.@@OX@.@%%%%%%%%%%%",
"%%%%%%%%%%%%%+@@@@OOOO@OO@@@@@@@@@@@@@@@OOOOOOOOOOOOXX............OX..XXXOOOO..OXOOOOO@.%%%%%%%%%%%%",
"%%%%%%%%%%%%%%+@O@@@@@@@@@@@@@@@@@@@@@OOOOOOOOOOOOOOOXXX.........OOOOOOOOOOOOOOOOOOOO..%%%%%%%%%%%%%",
"%%%%%%%%%%%%%%%+@@@@@@@@#@@@OOOOOO@OOOOOOOOOOOOOOOOOOOOOX.XXOOOOOOOOOOOOOOOOOOOO@@@OX.%%%%%%%%%%%%%%",
"%%%%%%%%%%%%%%%%+@@@@@@@@###OOOOOOOOOOOOOOOOOOOOOOOOOOOOXXXOOOOOOOOOOOOOOOOOOOOOOOOX %%%%%%%%%%%%%%%",
"%%%%%%%%%%%%%%%%%+. .@@@@###$#OOOOOOOOOOOOOOOOOOOOOOOOOOOOOOOOOOOOOOOOOOOOOOOOOOOX@ %%%%%%%%%%%%%%%%",
"%%%%%%%%%%%%%%%%%%+   @@@@@####OOOOOOOOOOOOOOOOOOOOOOOOOOOOOOOOOOOOOOOOOOOOOOOOXX. %%%%%%%%%%%%%%%%%",
"%%%%%%%%%%%%%%%%%%%++  @.@@@O#OOOOOOOOOOOOOOOOOOOOOOOOOOOOOOOOOOOOOOOOOOOOOOOXXX. %%%%%%%%%%%%%%%%%%",
"%%%%%%%%%%%%%%%%%%%%%+  @@@@@@O##OOXOOOOOOOOOOOOOOOOOOOOOOOOOOOOOOOOOOOOOOOXXXX.%%%%%%%%%%%%%%%%%%%%",
"%%%%%%%%%%%%%%%%%%%%%%+ o@@@@@@@@XXXX#XXOOOOXXXOOOOOOOOOOOOOOOOOOOOOOOOOOOXX...%%%%%%%%%%%%%%%%%%%%%",
"%%%%%%%%%%%%%%%%%%%%%%%.+@@@@@@@@.X.#$#XXXXXOOOOOOOOOOOOOOOOOOOOOOOOOOOOXX... %%%%%%%%%%%%%%%%%%%%%%",
"%%%%%%%%%%%%%%%%%%%%%%%%%.@O@@@@@@.......$#XXXOOOOOOOOOOOOOOOOOOOOOOOOOX....%%%%%%%%%%%%%%%%%%%%%%%%",
"%%%%%%%%%%%%%%%%%%%%%%%%%%%@O.@@@o@@@.....$OO#OOOOOOOOOOOOOOOOOOOOOOOXX...%%%%%%%%%%%%%%%%%%%%%%%%%%",
"%%%%%%%%%%%%%%%%%%%%%%%%%%%%%@.@@o@oo@@...OO#OOOOOOOOOOOOOOOOOXXXXXX....%%%%%%%%%%%%%%%%%%%%%%%%%%%%",
"%%%%%%%%%%%%%%%%%%%%%%%%%%%%%%%@..@@@ooo@...OXXOOOOOOOOOOOOOXXX.......%%%%%%%%%%%%%%%%%%%%%%%%%%%%%%",
"%%%%%%%%%%%%%%%%%%%%%%%%%%%%%%%%%+....@@@@........XXXXXXXXXXX.......%%%%%%%%%%%%%%%%%%%%%%%%%%%%%%%%",
"%%%%%%%%%%%%%%%%%%%%%%%%%%%%%%%%%%%%+....@@OOOO.....XX.....XX...%%%%%%%%%%%%%%%%%%%%%%%%%%%%%%%%%%%%",
"%%%%%%%%%%%%%%%%%%%%%%%%%%%%%%%%%%%%%%%%%+@@XOOOOOOOOOOOOOOO%%%%%%%%%%%%%%%%%%%%%%%%%%%%%%%%%%%%%%%%"
};
