/* XPM */
static char *result[] = {
/* columns rows colors chars-per-pixel */
"100 100 10 1 ",
"  c #283540",
". c #2F5753",
"X c #3B7D4F",
"o c #404973",
"O c #63AB3F",
"+ c #686F99",
"@ c #62C8E0",
"# c #DFE0E8",
"$ c #F5FFE8",
"% c None",
/* pixels */
"%%%%%%%%%%%%%%%%%%%%%%%%%%%%%%%%%%%%%%%%%%%%%%%%%%%%%%%%%%%%%%%%%%%%%%%%%%%%%%%%%%%%%%%%%%%%%%%%%%%%",
"%%%%%%%%%%%%%%%%%%%%%%%%%%%%%%%%%%%%%%%%%.    o          . O%%%%%%%%%%%%%%%%%%%%%%%%%%%%%%%%%%%%%%%%",
"%%%%%%%%%%%%%%%%%%%%%%%%%%%%%%%%%%%%%              ...OO....OXOO%%%%%%%%%%%%%%%%%%%%%%%%%%%%%%%%%%%%",
"%%%%%%%%%%%%%%%%%%%%%%%%%%%%%%%%%  ooo  o  o    .............OOOOOO.%%%%%%%%%%%%%%%%%%%%%%%%%%%%%%%%",
"%%%%%%%%%%%%%%%%%%%%%%%%%%%%%%%ooooooooooo ..................XXOOOOO@O%%%%%%%%%%%%%%%%%%%%%%%%%%%%%%",
"%%%%%%%%%%%%%%%%%%%%%%%%%%%%%oooooooooo@...XOOOOOOOOXXX........OOOOO@@@@%%%%%%%%%%%%%%%%%%%%%%%%%%%%",
"%%%%%%%%%%%%%%%%%%%%%%%%%%%oooooooo@.O.OOOOOOOO@@@@@@OOO.......OOOOOO@@OO@%%%%%%%%%%%%%%%%%%%%%%%%%%",
"%%%%%%%%%%%%%%%%%%%%%%%%%@ooooo@@@@OOO.OOOOOOOOOO@@@@O..........OOOOOO@@@OX@%%%%%%%%%%%%%%%%%%%%%%%%",
"%%%%%%%%%%%%%%%%%%%%%%%oooooo@@@@@@@XXXOOOOOOOO@@@@@@@X..........OXXOO@@@@@OX.%%%%%%%%%%%%%%%%%%%%%%",
"%%%%%%%%%%%%%%%%%%%%%%ooooo@O@@@@@@.XXXXXXXXXXXX@@@@@@XX.........XOXXXO@@@@OOXX%%%%%%%%%%%%%%%%%%%%%",
"%%%%%%%%%%%%%%%%%%%%%ooo@@@O@@....XXXXXXXXXXXXXXX@@XXX............XXXXXXX@@@OOOX%%%%%%%%%%%%%%%%%%%%",
"%%%%%%%%%%%%%%%%%%%@@@@@@@@@@@@..XXOOX......XX@@XX.................X.XXXX@@@@XO@XX%%%%%%%%%%%%%%%%%%",
"%%%%%%%%%%%%%%%%%%@@@@@@@@@@@@XXXX@@@OO....O@@@@@........     ...........X@@@XXXOO.%%%%%%%%%%%%%%%%%",
"%%%%%%%%%%%%%%%%%@@o@@@@@@@@@XX@@@@@OOO..XXO@@@@X.......       ............@@@XXXOO.%%%%%%%%%%%%%%%%",
"%%%%%%%%%%%%%%%%@o++@@@@@@@@@XO@@@@@OOO...XXOOX..........        ..........@@@@XXXXO.%%%%%%%%%%%%%%%",
"%%%%%%%%%%%%%%%@+++@@@@@@@@@@XOO@@OO........XXX.........     ..  .......X@.@@@@XOXXXO.%%%%%%%%%%%%%%",
"%%%%%%%%%%%%%%@@++@@@@@@@@@@..OOOOO.....................     ..............@@@@XXOOOOO.%%%%%%%%%%%%%",
"%%%%%%%%%%%%%@@@@@@@@X@@@@@.OOOOOOX.......................   ...OOO.........@@@@XOOOOOO.%%%%%%%%%%%%",
"%%%%%%%%%%%%@o@@@@@@@@@@@@@.OOOOOOXXX.....................  ...OOOOOOO.......@@@OOOOO@@X.%%%%%%%%%%%",
"%%%%%%%%%%%@@@@@@@@@@@@@@..OOOOO@@@XXX.@.......................OOO@@@OO.......@@@OOO@@@@X.%%%%%%%%%%",
"%%%%%%%%%%%@@@@@@@@@@@@@..O@OOO@@OO@X@@@@@.....................OOOO@@O@O......@@@@OO@@@@@.%%%%%%%%%%",
"%%%%%%%%%%@@@@@@@@@@@@..XO@OO@@@OOO@@@@@@@@@@@..................OOO@O@O@@X.....@@@OOO@@@@X %%%%%%%%%",
"%%%%%%%%%@@@@@@@@@@@@..@@OOO@@@@@@OO@X@@@@@@@@.......... .......OOO@@O@@@X....@@@@@OOOO@@@. %%%%%%%%",
"%%%%%%%%++@@@@@@@@@@O@OOOOO@@@@@@@OO@@@@@@O@@@@@.................OO@@@@@@@@...@@@@@.OOOOXX.. %%%%%%%",
"%%%%%%%%@@@@@@@.@.OO@O@@@@@@@@@@@@@@@@@@@@@@@@@@@@@@.............OOOOXX@X.@....@@@@@XXXX.....%%%%%%%",
"%%%%%%%o+@@@@O@OO@@@O@@@@@@@@@OOOOO@OOOOO@@@@@@@@O@@@@@...........OOOXX...@......@@@@.XX......%%%%%%",
"%%%%%%%o+@@@@O@@@@@@@@@OOOOOOOOOOOOOOOOOOOO@@@@@@@@O@@@@..........OOOX...@@@.....@@@@@XXX.....%%%%%%",
"%%%%%%@++@@@OO@@@@@@@OOOOOOOOOO@OOOOOO@@OOO@@@@@@@@OO@@@@.......OO.XX....@@@@....@@@@@XX...... %%%%%",
"%%%%%%@+@@@O@@@@@@@OOO#OOOOOOO@OOOOOO@@@@OOOO@@@@@@@@O@@@@..O..OOO.........@@@@@..@@@@@...... .%%%%%",
"%%%%%@@@@@@@@@@@@@OOOOOOO@@@OOOO@@OO@@@@@@OOOO@@@@@@@@@@@@@.OOOOOO.........@@@@@@@@@@@@@.....  .%%%%",
"%%%%%@@@@@@@OOOOOOO@@@@@O@@OOOO@@@@@@@@@@@@@@OO@@@@@@@@@@@@..OOOOO.X..........@@@@@@@@@@@....   %%%%",
"%%%%@@@@@@@@OOOOOOOOOO@@@@@OO@@@O@@@@@OO@@@@O@O@@@@@@@@@@@@....OOOXX........@@@@@@@@@@@@@....    %%%",
"%%%%@@@@@@@O@@OOOOO@@@@O@@@@@@OOO@@@@@OO@@O@@@OO@@@@@@@@@@.....XOOOX........@@@@.@@@@@@@@@...   .%%%",
"%%%@O@@@@@OO@OOOO@@@@@@@O@@@@@@@@@@O@@OOO@@@@OOO@@@@@@@@@@....@XXOXXX......@@@@@@.@@@@@@@@@...    %%",
"%%%@@@@OO@OO@O@OO@@@@@@@@@@@@@@@@@@O@@OOOO@@@OXX@@@@@@@@@@..@@@@XXXXX......@@@@@..@@@@@@@@@@..  . %%",
"%%%O@@@@++@OOOO@@@@@@@OO@@@@@@@@@@@@@@OOOOOOOXXX@@@@@@@@@@@@@@@@@@XX......O@@@@@@@@@..@@@@@@@.   .%%",
"%%%O@@@@+++OOOO@@@@@@@O@@@@@@@@@@OO@@@OOOOOOOXXXX@@@@@@@@@@@@@@@@@@........O@@@@@@@@..@@@@@@@@   .%%",
"%%@OO@@O++##OOO@@@@@@@@@@@@@@@@@@@OOO@OOOOXOXXXXX@@@@@@@@@@@@@@@@@@........O@@@@@.@@...@@@@o@oo    %",
"%%OOO@@@++$##OX@@@@@@@@@@@@@@@@@@@@O@@@@O@XXXXXX.@@@@@@@@@@@@@@..@@@......OOOO.....@...@@@. oooo  .%",
"%%OO@@@+++$$$#X@@@@@@@@@@@@@@@@@@@@@@@@@O@XXXXX....@@@@@.@@@@@@.@O@@@.......O@@........@@.  oooo   %",
"%%OOX@@+++$$$$##@@@@@@@@@@@@@@@@@@@@@O@@@@XXXXXX..@@@@@@.@@@@@@@.@@@@.......@@@@......@@@.     oo  %",
"%XOOX@@+++$$$$$##@@@@@@@@@@@@@@O@@OOOOO@@@@XXX.......@@@@@@@@@@@@@@@@@......XXX@.....@@@@@     oo  .",
"%XOOXX@+++$$$$$$##@@@@@@@@@@@@@O@OOOOOO@@@XXX.......@@@@@@.@@@@@@@@@@@@....OO@@@.....@@@@@     oo . ",
"%XOOX@@+++$$$$#####@@@@@@@@@@@@@@@@OOO@@@@XXX.......@@@@@..@@@@@@@@@@@@@..@@@@@@@@..@@@.@@.    oo ..",
"%XOXX..++$$$$$#####@@@@@@@@@@@@@@@@@@@@@@@@@@........@@@@..@@@@@@@@@@@@@@.@@O@@@@@@@@@@.@@.   ooo .o",
"%XXX...#$$$$$##@@@@@@@@@@@@@@@@@@@@@@@@@.@@@@........@@@...@@@@@@@@@@@@@@@.@@@@@@@@@@@@@@@@@ o@oo..o",
"%.....@@.X.$$#@@@@@@@@@@@@@@@@@@@@@@@@@@@.......@....@@@@.o.@@@@@@@@@@@@@@.@@@.@@@...@@@@@@@@@@o@..o",
"%........@.$$#O@@@@@@@@@@@@@@@@@@@@@@@@@@......@....@@@@oo .@@@....@@@@@@@@@@..@........@@@.@o@@@@Oo",
"%......@.XX$#@O@@@@@@@@@@#@@@@@@@@@@@@@@@@...@......@@@ o  ..@@.....@@@@@@@@@.............. @oo@@++o",
"%.......OOO$#O@@@@@@@@@#######@@@@@@@@@@@@@@.@.....@@@o     ........@@@@.@@@@.............. . @@@++o",
"%@.....OO@OO$O@O@@@@@@@##$$$$###@@@@@@@@@@@@.@@...@@@@@      ........@@@@@@@@@............   .@@@O+o",
"%+@....OO@@O$O.X@.@@@@@@#$$$$###@@@@@@@@@@@.......@@@@@   o o .......@@@@@@@@@@@@..........  @@@@Ooo",
"%+@...OOOOOOO$X@@....@@@@#$$$###@@@@@@@@@@......@@@@@@o  oo    .......@@@@@@@@@@@@...@..... @.@@@Ooo",
"%+@...OOOOO@O$X.@....@@##@#####@@@@@@@@@@.......@@@@oo  o         .......@@@@@@@@@...@@.... @@@@@Oo@",
"%++...OOOOO@O$#@@@@...@@$@####@@@@@@@@@@@......@@@@oo  o          ......@@@@@@@@@....@......@@@@@+o@",
"%o+...OOOOOO.$#@@@@@..@@@@@@##O@@@@@@@@@@.....@@@@ooo o           .......@@@@@@@@@@@@@@@@@@@@@@@O++O",
"%o+o..OOOOOO##..@@@@..@@@@OOOO#O@@@@@@@@@@....@@@oo  o   o oo    ........@@@@@@@@@@@@@@@@@@@@@O@O+OO",
"%o+o..OOOOOO#..@.@@@..@#$$$$OOO#@@@@@@@@@@@@@.@@ooo  o    oooo   ........@@@@@@@@@@@@@@@@@@@@OO@++@O",
"%o++..OOOOOO.@...@@@@.@#$$$$$#OO#@@@@@@@@@@@@.@@oooo o  #o ooo  ...@..OO.@@@@@@@O@@@@@@@@@@@OOO@+O@O",
"%o +@.OOOO..@...@@@@@@.@#$$$$#@@@@@@@..@@@@@@.@ooooooo##oo  oo  ...#OOOO@O@@@@@@O@@@@@@@@@@@@OX++O@.",
"%% +o...........@@@@@@.@.@@#O@@@@@@@@...@@@..@@oooo o##ooo ooooOO##@OOOO@.@@O@O@@@@@@@@@@@@@@@X+OO@%",
"%%  o..........@.@..@@@@..@@@@@@@@@@@@.......@@ooo o#$#oooooOOO##O@OOOOOO@@OO@@@@@@.@@@@@@@@@@X+OO@%",
"%%  o@.......@@.@@..@@@.@..@@O@@@@@@@.......@@ooo o#$#ooooooo##OO@@OOOOOOO@OO@@@@@@@@@@@@@@@@@+XXX@%",
"%%   @.......@@.......@@.@OO@@@@@@.........@@@ooooo####ooo#$#OO@OOOOOO@@@OOO@@@@.@@@@@@@@@@@@@+.OXO%",
"%%+  o@...........@...@@@.@@..@@.......@@@@@@@oo oo########@OOOOOOOO@@@@@@@@@@@@@@@@@@@@@@@@@+@..@%%",
"%%%  @@.......  oo @...@@..@@@@@......@@@@@@oooooooo###   oOOO@OO@@@@@@@@@O@@@@@@@.@@@@@@@@@@@@.X@%%",
"%%%  @@@.....  oooo  ..@@@.@@@@.......@@@@ooooooooo       oOOO@OO@@@@@@@@@@@@@@@@@@@@@.@@@@@@@..X@%%",
"%%%+ .@@.....  oooo o...@@@...@.....@@@@@ooooooooooo      .OO@@O@@@@@@@@@@@@@@@@@@@@@.@.@@@@@@.O@.%%",
"%%%% .@@.....   oo    ..@@@@@....@@@@@@ooooooooooooooooo@OOOO@@O@@@@OOOOOOO@@@OO@@@@@@@@@@@@@.OOO%%%",
"%%%%O@@@@....    o     ..@@@@@..@@@@@oooooooo  o ooooooo@@OO@@@O@@@@OOOOOOOO@OOO@@@@@@@@@@@@@@OO@%%%",
"%%%%%@@@OX....      o o...@@@@@@@@@oooooooooo   ooooooo@@@OO@@@O@@@OO@OOOOOOOOOO@@@@@@@@@@@.@XOO%%%%",
"%%%%%@@@OO....      oo.@.....@@@@@@ooooooooo   oo oooo@@@..@@@@O@@OOOOOOOOOOOOOOOO@@@@@@@@@@OOO@%%%%",
"%%%%%%@@OOO....    ooo@......@@@@@@ooooooooo   oo  o @@@@..@@@@O@@@OOOOOOOOOOOOOOOX@@@@@@@@XOOO%%%%%",
"%%%%%%O@OOOO.....  ooo@@......@@@@@@ooooooooooooo  oo@@@@@@@@@@O@@@OOOOOOOOOOOOOOXXX@@@@@XOXXOX%%%%%",
"%%%%%%%XOOXOO......O@@@@........@@@@oooooooooo  .....@@@@@@@@@OO@@@@OOO@OOOOO@@OOXXX.@@@.@O@XX%%%%%%",
"%%%%%%%OOOXXOO......O@@@........@@@@@@oooo@@@@@@@@@@@@@@@@@@@@OO@@@@OOOOOO@@@@@OOXX..@@@.@@.XX%%%%%%",
"%%%%%%%%OOO#OX........@@@........@@@@@@oo@@@@@@@@@@@@@@@@@@@@OO@@@@@@OO@O@@@@@@OOX....@@X@@XX%%%%%%%",
"%%%%%%%%+OOO#X........O@@@.......@.@@@@@@@@@@@@@@@@@@@@@@@@@@O@@@@@@@@O@OO@@OO@OX...@...@@.OO%%%%%%%",
"%%%%%%%%%X+OX#XX......OX@@@@........@@@@@@@@@@@@@@@@@@@@@@@@@@@@@@@@@@OOO@@OOO@X...@@...@..O%%%%%%%%",
"%%%%%%%%%%.OOXOXX.......X@XO.@@@@....@@@@@@@@@@@@@@@@@@@@@.@@@@@@@@@@OOO@@OOOO@........@..O%%%%%%%%%",
"%%%%%%%%%%%.XOXOOXXOO.OX.XXXX@..@....@@@@@@@@@@@@@@@@@@@....@@@@@@@@@OO@@OOOO@@.......@@XO%%%%%%%%%%",
"%%%%%%%%%%%+XXOOOOOOOOOOOOXXX..@@.....@@@@@@@@@@@@@@@@@@.@@.@@@@@@@@@OO@@@@@@........@.OOO%%%%%%%%%%",
"%%%%%%%%%%%%.XXOOOOOOOOOOOOOOO.@@@@@O..@.@@@@@@@@@@@@@@@@o..@@@@@@@@@OO@@@@@......@@..OXX%%%%%%%%%%%",
"%%%%%%%%%%%%%.XOO##OOOOOOOOOOOOOO@@@@....@@@@@@@@@@@@@@@@.@@@@@@@@@@@OOO@@@@.@@.@@@...XX%%%%%%%%%%%%",
"%%%%%%%%%%%%%%OXOOOOOOOOOOOOOOOOOOO@@@@..@@@@@@@@@@@@@@@@@@@@@@@@@@@@OO@@@@@@..@@@.....%%%%%%%%%%%%%",
"%%%%%%%%%%%%%%%OOOOOOOOOOOOOOOOOOOOOOO@@@@@@@@@@@@@@@@@@@@@@@@@@@@@@@OOO@@.@@@@@@.@.X.%%%%%%%%%%%%%%",
"%%%%%%%%%%%%%%%%.OOOOOOOOOOOOOOOOOOOOOOOOO@@@@@@@@@@@@@@@@@@@@@@@@@@OOOO@@@@.@oo@@.X.%%%%%%%%%%%%%%%",
"%%%%%%%%%%%%%%%%%.+OOOOOOOOOOOOOOOOOOOOOOOO@OO@@X@@@@@@@@@@@@@@@OOOOOOXX.... o@@.XX.%%%%%%%%%%%%%%%%",
"%%%%%%%%%%%%%%%%%%.OOOOOOOOOOOOOOOOOOOOOOOOOOOOOOO@OOOO@@@@@@@@@XXXXXXO..@. @@@.OO.%%%%%%%%%%%%%%%%%",
"%%%%%%%%%%%%%%%%%%%.OOOO#OOOOOOOOOOOOOOOOO@@OOOOOOOO@@OOO@O@@@O@@@..........@@OOO.%%%%%%%%%%%%%%%%%%",
"%%%%%%%%%%%%%%%%%%%%+XOOOO##OOOOOOOOOOOOO@@@@@OOOOOOOO@OOOOOOOO@@...@.....@@@OOX%%%%%%%%%%%%%%%%%%%%",
"%%%%%%%%%%%%%%%%%%%%%%XXOOOOOOOOOOOOOOOOOOOOO@@OOOOOOO@@@OO@OO@@@@@@@...@@@@O@.%%%%%%%%%%%%%%%%%%%%%",
"%%%%%%%%%%%%%%%%%%%%%%%+.XXXXOOOOOOOOOOOOOOOOOOOOOOOOXXXXXXOO@O@@@@@@@@@@@@@X.%%%%%%%%%%%%%%%%%%%%%%",
"%%%%%%%%%%%%%%%%%%%%%%%%%X.X.XXOOOOOOOOOOOOOOOOO@@@XXX......OXXOX@@@@@@@@@..%%%%%%%%%%%%%%%%%%%%%%%%",
"%%%%%%%%%%%%%%%%%%%%%%%%%%%....XXXXXXXXXXXXOOXXXX@@...@.......@X..@@@@@@@@%%%%%%%%%%%%%%%%%%%%%%%%%%",
"%%%%%%%%%%%%%%%%%%%%%%%%%%%%%O....XX......OOOXX.......@ .@........@@.@@.%%%%%%%%%%%%%%%%%%%%%%%%%%%%",
"%%%%%%%%%%%%%%%%%%%%%%%%%%%%%%%O......................@...@@@@@.......%%%%%%%%%%%%%%%%%%%%%%%%%%%%%%",
"%%%%%%%%%%%%%%%%%%%%%%%%%%%%%%%%%....................  ..@OOOOO...@o%%%%%%%%%%%%%%%%%%%%%%%%%%%%%%%%",
"%%%%%%%%%%%%%%%%%%%%%%%%%%%%%%%%%%%%+O............  .    ...X@..%%%%%%%%%%%%%%%%%%%%%%%%%%%%%%%%%%%%",
"%%%%%%%%%%%%%%%%%%%%%%%%%%%%%%%%%%%%%%%%%...........    ... %%%%%%%%%%%%%%%%%%%%%%%%%%%%%%%%%%%%%%%%"
};
