/* XPM */
static char *result[] = {
/* columns rows colors chars-per-pixel */
"100 100 10 1 ",
"  c #283540",
". c #2F5753",
"X c #3B7D4F",
"o c #404973",
"O c #63AB3F",
"+ c #686F99",
"@ c #62C8E0",
"# c #DFE0E8",
"$ c #F5FFE8",
"% c None",
/* pixels */
"%%%%%%%%%%%%%%%%%%%%%%%%%%%%%%%%%%%%%%%%%%%%%%%%%%%%%%%%%%%%%%%%%%%%%%%%%%%%%%%%%%%%%%%%%%%%%%%%%%%%",
"%%%%%%%%%%%%%%%%%%%%%%%%%%%%%%%%%%%%%%%%%. .o@@@@@@@@@@@o@o@%%%%%%%%%%%%%%%%%%%%%%%%%%%%%%%%%%%%%%%%",
"%%%%%%%%%%%%%%%%%%%%%%%%%%%%%%%%%%%%%o@@....@@@@@@@@@@@@@@@@@o@o%%%%%%%%%%%%%%%%%%%%%%%%%%%%%%%%%%%%",
"%%%%%%%%%%%%%%%%%%%%%%%%%%%%%%%%%  ooo.......@.X@@@@@@@@@oooooooo@o@%%%%%%%%%%%%%%%%%%%%%%%%%%%%%%%%",
"%%%%%%%%%%%%%%%%%%%%%%%%%%%%%%%   @@@@@@....@@@@@@.@@@@@@@oooooooooooo%%%%%%%%%%%%%%%%%%%%%%%%%%%%%%",
"%%%%%%%%%%%%%%%%%%%%%%%%%%%%%  ..@@@@@XX@@@XX@@@@@....@@@@@@@@oooooooooo%%%%%%%%%%%%%%%%%%%%%%%%%%%%",
"%%%%%%%%%%%%%%%%%%%%%%%%%%%  ..@@@@@@@@@@@@@@@@@@@@....@@@@@@@@@@ooooooo@o%%%%%%%%%%%%%%%%%%%%%%%%%%",
"%%%%%%%%%%%%%%%%%%%%%%%%%. .@@@@@@@@@@@@@@@........@@...@@@@@@@@@@@@@@@@oooo%%%%%%%%%%%%%%%%%%%%%%%%",
"%%%%%%%%%%%%%%%%%%%%%%% ..@@@@@@@@@@@@@@@@@@@@@@@@.@.....@@@@@@@@@@@@ooo@ooooo%%%%%%%%%%%%%%%%%%%%%%",
"%%%%%%%%%%%%%%%%%%%%%%o@@@@@@@@@@@@@@@@@@@@@@@@@@@...@.@@@@@@@@@@@@@@@@@@@@oooo%%%%%%%%%%%%%%%%%%%%%",
"%%%%%%%%%%%%%%%%%%%%%@@@@@@@@@@@@@@@@@@@@@@@@@@@@....@@@@@@@@@@@@@@@@@@@@@@@oooo%%%%%%%%%%%%%%%%%%%%",
"%%%%%%%%%%%%%%%%%%%@@@@@@@@@@@@@@@@@@@@@@@@@@@...++++@@@@@@@@@@@@@@@@@@@@@@@@@@ooo%%%%%%%%%%%%%%%%%%",
"%%%%%%%%%%%%%%%%%%@@@@@@@@@@@@@@@@@@@@@@@@@@.OOO++++++@@@@O@@@++@@@@@@++@@@@@@@@ooo%%%%%%%%%%%%%%%%%",
"%%%%%%%%%%%%%%%%%@@@@@@@@@@@@@@@@@@@@@@@@@@@OOOO+++++++++++++++@@@@@@@@@@@@@@@@@@@o %%%%%%%%%%%%%%%%",
"%%%%%%%%%%%%%%%%@@@@@@@@@@@@@@@@@@@@@@@@@@@@@O..#++++++++++++++++@@+++@@@@+@@@@@@@o@ %%%%%%%%%%%%%%%",
"%%%%%%%%%%%%%%%@@@@@.@@@@@@@@@@@@@@@@@@@@@@@@@.##$$$$+++++++++@@@@@@@+++++@@@@@@o@o@@ %%%%%%%%%%%%%%",
"%%%%%%%%%%%%%%.@@@@@oo@@@@@@@@@@@@@@@@@@@@@@@@@@$$$$$$$+++++#X@@@@@+++++++@@@@@++o@@o@ %%%%%%%%%%%%%",
"%%%%%%%%%%%%%.@@@@.o o@@@@@@@@@@@@@@@@@@@@@@@@@@$$$$$$$$$$$$#..@@+++++++++++++++o@ooooo %%%%%%%%%%%%",
"%%%%%%%%%%%%@@@@@.o @@@@@@@@@@@@@@@@@@@@@@@@@@@$$$$$$$$$$$$$$$$+++++++++++++++++++ooo@@oo%%%%%%%%%%%",
"%%%%%%%%%%%@@@@@@  o@@@@@@@@@@@@@@@@@@@@@@@@@@$$$$$$$$$$$$$$$$$++++++++++++++++++oooo@@@oo%%%%%%%%%%",
"%%%%%%%%%%%@@@@@@@@@@@@@@@@@@@@@@@@@@@@@@@@@#$$$$$$$$$$$$$$$$$$##...##+++++++@@@++++@@@ooo%%%%%%%%%%",
"%%%%%%%%%%@@@@@@@@@@@@@@@@@@@@@@@@@@@@@@@@#########OOX.O..........@@@@@@@@@@@@@++++@@@@@ooo%%%%%%%%%",
"%%%%%%%%%.@@@@@@@@@@@@@@@@@@@@@@@@@@@@@@@@@@@@@OOOOOOX.O.........@@@@@@@@@@@@@@++@@@@@@@oooo%%%%%%%%",
"%%%%%%%% @@@@@@@@@@@@@@@@@@@@@@@@@@@@@@@@@@@OOOOOOOOOOO@@OOO@@@@@@@@@@@@@@@@@.@@@@@@@@@@oooo %%%%%%%",
"%%%%%%%%.@@@@@@@@@@@@@@@@@@@@@@@@@@@@@@@@@@@@@OOO@@@@@@@@@@@@@@@@@@@@@@@@@@O@@@@@@@@@@@@ooooo%%%%%%%",
"%%%%%%%.o..@@@@@@@@@@@@@@@@@@@@@@@@@@@@@@@@@@@@@@@@@@OO@@@@@@@@@@@@@OO@@@@OO@@O@@@@@@@@@@ooooo%%%%%%",
"%%%%%%%.....X@@@@@@@@@@@@@@@@@@@@@@@@@@@@@@@@@@@@@@@OOOOOOO@@@@OOOOOOOOOOOOOOOOO@@@@@@@@@@ooo@%%%%%%",
"%%%%%%.....OXX@@@@@@@@@@@@@@@@@@@@@@@@@@@@@@@@@@@@@@OOOOOOOOOOOOOOOOOOOOOOOOOOOOOX.@@@@@@@@@o@o%%%%%",
"%%%%%%....O@@@@@@@@@@@@@@@@@@@@@@@@@@@@@@@@@@@@@@@@OOOOOOOOOOOOOOOOOOOOOOOOOOOOOOOOX.@@@@@@@@@@%%%%%",
"%%%%%....O@@@@@@@@@@@@@@@@@@@OOOOOOOO@@@@@@@@@@@@@@OOOOOOOOOOOOOOOOOOOOOOOOOOOOOOO@@@@@@@@@@@@@@%%%%",
"%%%%%...@@@@@@@@@@@@@@@@@@@@@OOOOOOOOO@@@OOOOO@@@@@@OOOOOOOOOOOOOOOOOOOOOOOOOOOO@@@@@@@@@@@@@@@@%%%%",
"%%%%o..@@@@@@@@@@@@@@@@@@@@@OOOOOOOOOO@@OOOOOOO@@@@OOOOOOOOOOOOOOOOOOOOOOOOOOOOO@@@@@@@@@@@@@@@@o%%%",
"%%%%..@@@@@@@@@@@@@@@@@@@@OOOOOOOOOOOOOOOOOOOOO@@@OOOOOOOOO@OOOOOOOOOOOOOOOOOOO@@@@@@@@@@@@@@@@@@%%%",
"%%% ..@@@@@@@@@@@@@@@@@@@@OOOOOOOOOOOOOOOOOOOOO@@@@OOOOOOO@@OOOOOOOOOOOOOOOOOO@@@@@@@@@@@@@@@@@@@@%%",
"%%%..@O@@@@@@@X@@@@@@@@@@@OOOOOOOOOOOOOOOOOOOO@@@@@@@@@O@@@@OOOOOOOOOOOOOOOO@@@@@@@@@@@@@@@@@@@@@@%%",
"%%% O@@@@@@@@@@@@@@@@@@@@@OOOOOOOOOOOOOOOOOOO@@@@@@@@@@@@@@@XOOOOOOOOOOOOOOO@@@@@@@@@@@@@@@@O@@@@@%%",
"%%%..X@O@@@@@@@@@@@@@@@@@@@OOOOOO@OOOOXXXXOOO@@@@@@@@@@@@@@@XXOOOOOOOOOOXOOOOO@@@@@@@@@@@@@@O@@@@@%%",
"%% ...@@@@@@@@@@@@@@@@@@@@@OOOOOO@@@XXXXXXXOOX@@@@@@@@@@@XXXXXXXXXXXXXXXXXOOOO@@@@@@@@@@@@@@OO@@@@X%",
"%% .X.@@@@@@@@@@@@@@@@@@@@OOOOOOO@@@XOOXXXXXX@@@@@@@@@@@@XXXXXXXXXXXXXXXXXXXOOO@@@@@@@@@@@@@OO@@@@.%",
"%%+...@@@@@@@@@@@@@@@@@@@@OOOOOO@@@@@OOXXXXXX@@@@@@@@@@@@X@@XXXXOXXXXXXXXXXXXO@@@@@@@@@@@@@@@@@@@@O%",
"%%....@@@@@@@@@@@@@@@@@@@@@OOOOOOOOOOOOXXXXX.@@@@@@@@@@.@@@@..XXXXXXXXXXXXXXXX@@@@@@@@@@@@@@@@@@OOO%",
"% ...@@@@@@@@@@@@@@@@@@@@@@@OOOOOOOOOOXXXXXX....XXX...XXXX.....XXXXXXXXXXXXXXXO@@@@@@@@@@@@@@@@@OOOX",
"%...@@@OOX@@@@@@@@@@@@@@@@@@OOOOOOOOXXXXXX......XXX...XXOO.........XXOOXXXXXXXO@@@@@@@@@@@@@@@@@OOX.",
"%..@@@.OOXXX@@@@@@@@@@@@@@@@@OOOOOXXXXXXX.......XXX....XXOO.........OOO.XXXXXO@@@@@@@@@@@@@@@@@@XXXO",
"%.@@@XOOOOXX@@@@@@@@@@@@@@@@@@OO@@@@XXXXXX........XX...XOOO........OOOOO.XXXXO@@@@@@@@@@@@@@@X@@XXXO",
"%O@@OOOOOOOX.@@@@@@@@@@@@@@@@@@@@@@@@@XX.XXX......OOX..XOOO.......OOOOOO...XXXO@@@@@@@@@@@@@@@@@@XXO",
"%O@O.OOOOOOX@@@@@@@@@@@@@@@@@@@@@@@@@@@@@.........OO...OOOO.......OOOOO....OOXO@@@@@@@@@@@@@@@.@@.Xo",
"%O@OXOOOOOOX@@X@@@@@@@@@@@@@@@@@@@@@@@@@...........X...OOOOOOOOOO..OOO......OOO@@@@@@@@@@@@@@@@@@@.o",
"%@@OOOOOOOOX.@.@@@@@@@@@@@@@@@@@@@@@@@..........OOOOOOOOOOOOOOOO...OOO......O..OO@@@@@@@@@@@@@@@@++X",
"%@OOOOOOOOOOOO@@@@@@@@@@@@@@@@@@@@@@XX......OOOOOOOOOOOOOOOOOOOO....OO..X......OO@@@@@@@@@@@@@@@@+..",
"%@OOOOOOOOOOOO@@@@@@@@@@@@@@@@@@@@@@XXXX...OOOOOOOOOOOOOOOOOOOOO...OO..X........O@@@@@@@@@@@@@@@++@.",
"%@OOOOOOOOOO.O@@.@@@@@@@@@@@@@@@@@@@@XXX..OOOOOOOOOOOOOOOOOOOOOO......X........OO@@@@@@@@#@@@@@ o+@.",
"%@OOOOOOOOOO..@@@@@@@@@@@@@@@@@@@@@@XXXX.OOOOOOOOOOOOOOOOOOOOOXXX.............OOO@@@@@@###@@@@   o@.",
"%@OOOOOOOOOO..@@..@@@@@@@@@@@@@@@@@@@XXXOOOOOOOOOOOOOOOOOOOOOXXXX..............OO@@@@@#$$#@@@.  + o@",
"%@OOOOOOOOOX.@@@@@@@@@@@@@@@@@@@@@@@XXOOOOOOOOOOOOOOOOOOOOOOOXXX.....@.........OO@@@@#$$$#@@.  +o oo",
"%@OOOOOOOOOX@@@@@@@@@@@@@@@@@@@@@@@@XXXOOOOOOO@@@@@@@@@OOOOOOXXX...@@@........O@@@@@#$$$$@@@   oo oo",
"%@OOOOOOOOOX@@@.@@@@@@@@@@@@@@@@@@@@XOOOOOOOOO@OO@@@@@@OOOOOXXX..@@@@@@......O@@@@@#$$$$#@@.  ooo oo",
"%OOOOOOOOOX.@@..@@.@@@@@@@@@@@@@@@@@@OOOOOOOOOOOOOOOO@@OOOOOXX...@@@@@@....XO@@@@@@$$$$$@@..  ooo  o",
"%XOOOOOOOXX......@.@@@@@@@@@@@@@@@@@OOOOOOOOOOOOOOOOO@@OOOOXX....@@@@@@...OO@@@@@@#$$$$#@@.  oooo  o",
"%.@OOOOOXXX.......@@@@@.@@@@@@@@@@@@@OOOOOOOOOOOOOOOO@@OOO.......@@@@@@...OO@@@@@@$$$$$@@@.  oooo  o",
"%%@OOOOXXX........@.@@@.@@@@@@@@@@@OOOOOOOOOOOOOOOOO@OOOOO.......@@@@@@@...OO@@@@#$$$$#@@..   ooo  %",
"%%@OOXXX...........@.@@@..@@@@@@@@@OOOOOOOOOOOOOOOO@OOOOOX.......@@@@@@@...OOOOOO$$$$#....  oooo   %",
"%%OOXXXX............@@@@...@@@@@@@@@@@OOOOOOOOO@@OOOOOOO........@@@@@@@@@..OOOOO#$$$#..... oooooO.@%",
"%%O@XXXXX....@......@@@@...@@@@@@@@@@OOOOOOOOOOOOOOOOO..........@@@@@@@@@..OOOOO#$$#......ooooooOO@%",
"%%%@XXXX.....@@......@@@....@@@@@@@@@OOOOOOOOOOOOOOOOX.....@@...@@@@@@@@@..OOOO.###...... ooooooOX%%",
"%%%@@X..@....@@@@....@@@@....@@@@@@@@OOOOOOOOOOOOOOXXX....@@@@@@@@@oo@@@@@OOOOO........  oooooooO+%%",
"%%%OOX..@@@@@@@@@@....@@@@...@@@@@@@@@@OOOOOOOOOXXXX....@@@@@@@@@oooooo@@@@............ oooooooOX@%%",
"%%%OOXX.@@@@@@@@@@....@@@....@@@@@@@@@@OOOOOOOOOXXX.....@@@@@oooooooooo@@@@..........ooooooooooX+@%%",
"%%%%@OX...@@@@@@@@@...@@@@...@@@@@@@@@@@OOOOOOOOXXX.....@@@oooooooooooo@@@@@.....@@@oooooooooo@X@%%%",
"%%%%OOX....@@@@@@@@@@@@@@@@...@@@@@@@@@@@@OOOOOOXX..@@.@@@ooooooooooooo@@@@@@@..@@ooooooo oooo@++%%%",
"%%%%%OXX....@@o@. .@@@@@.@@....@.@@@@@@@@@OOOXXXXX..@@@@@@ooooooooooooo@@@@@@@@@@oooooo  oooo@..%%%%",
"%%%%%@OX...@@@@oo  .@@..@@@......@@@@@@@@@@XXXXX....@@@@@oooooooooooooo@@@@@@@@@@ooooooooo  @@++%%%%",
"%%%%%%@XX...@@oooo  ....@@@@.....@@@@@@@@@@@@@.@@..@@@@@ooooooooooooooo@@@@@@@@@@@oooo@oo  @@@+%%%%%",
"%%%%%%@X....@@@oooo  ...@@@@@@@@@@@@@@@@@@@@@@@@@@@@@@@oooooooooooooooo@@@@@@@@@@@ooo@@oo..@@+.%%%%%",
"%%%%%%%X....@@@oooo   ...@@@@@@@@@@@@@@@@@@@@@@@@@@@@@@oooooooooooooo@@@@@@@@@@@@@@@@@@o.O.o++%%%%%%",
"%%%%%%%OX....@@ooooo .....@@@@@@@@@@@@@@@@@@@@@@.@@@@@@@oooooooooooo@@@@@@@@@@@@@@@@@@@@..@++.%%%%%%",
"%%%%%%%%OX...@@ooo@@.....@@@@@@@@@@@@@@@@@@@@@@@@...@@@@ooooooooooo@@@@@@@@@@@@@@@@@@@@@..o+.%%%%%%%",
"%%%%%%%%XX...@@@@@@@@@...@@@@@@@@@@@@O@O@@@@@@@@@.@.@@@@oooooooooo@@@@@@@@#@@@@@@@@@..@+@o++.%%%%%%%",
"%%%%%%%%%X....@@@@@@@@@..@@@.....@@OOO@@@@@@@@@@@@@@@@@@oooooooo@@@@@@@@@#@###@@@@@O..+@@+ +%%%%%%%%",
"%%%%%%%%%%.X...@@@@@@@@@@@@.....OO@OOO@O@@@@@@@@@@@@.@@@@ooooooo@@@@@@@####@@@@@@@@..++@@+.%%%%%%%%%",
"%%%%%%%%%%%.....@@@@@@@@@@@O...OOOOOOOO@@OOOO@@@@@@@@@@@@oooooo@@@@@@@@#@@@@@@@@@@@.++.@+.%%%%%%%%%%",
"%%%%%%%%%%%@.....@@.@@@@@@@OOOOOOOOOO@@OOOOOOO@@@@@@@@@@@ooooo@@@@@@@@@@@@@@@@@@@@.++...+.%%%%%%%%%%",
"%%%%%%%%%%%%@.....@@@@@@@@OOOOOOOOOOOO@@OOOOO@@@@@@@@@@@o oooo@@@@@@@@@@@@@@@@@@@.++O..+.%%%%%%%%%%%",
"%%%%%%%%%%%%%@......@.O@@OOOOOOOOOOOOO.OOOOO@@@@@@@@@@@@@@@@@@@@@@@@@@@@@@@@@@@X+++OO.+.%%%%%%%%%%%%",
"%%%%%%%%%%%%%%........OOOOOOOOOOOOOOOOX.XOOO@@@@@@@@@@@@@@@@@@@@@@@@@@@@@@@@@@O++++OX. %%%%%%%%%%%%%",
"%%%%%%%%%%%%%%%......@OOOOOOOOOOOOOOOOOOOOOX@@@@@@@@@@@@@@@@@@@@@@@@@@@@@@@OOO+++OOX. %%%%%%%%%%%%%%",
"%%%%%%%%%%%%%%%%o......OOOOOOOOOOOOOOOOOXXX.@@@@@@@@@@@@@@@@@@@@@@@@@@#@OOOO#+++OXX. %%%%%%%%%%%%%%%",
"%%%%%%%%%%%%%%%%% ooo@..OOOOOOOOOOOOOOOOXX..@@@@@@@@@@@@@@@@@@@@@@@@#@@@@OO++++XXX.o%%%%%%%%%%%%%%%%",
"%%%%%%%%%%%%%%%%%%  oo@@..XXOOOOOOOOXXXXX..@@@.@@@@@@@@@@@@@@@@@OO$#@OO@##++++X...o%%%%%%%%%%%%%%%%%",
"%%%%%%%%%%%%%%%%%%%    o@@@XXXOOOOOXXXXX....@@@@@#@@@@@@@@@@##$$$$OOOO$$$++++....o%%%%%%%%%%%%%%%%%%",
"%%%%%%%%%%%%%%%%%%%%% o o@@@@@.XXXXXXX..@@@@@@#######@####@#$$$$$#O#$$##+++.@.. %%%%%%%%%%%%%%%%%%%%",
"%%%%%%%%%%%%%%%%%%%%%% oooo@@@@@@.XX.....@@@@....@@@@@@@@#$$$$$$$$$$$..++.@@..o%%%%%%%%%%%%%%%%%%%%%",
"%%%%%%%%%%%%%%%%%%%%%%%  oooo@@@@@@@@@...@@@@@@@@@@@@@@@$$$$$$$$$$#@......@@o@%%%%%%%%%%%%%%%%%%%%%%",
"%%%%%%%%%%%%%%%%%%%%%%%%%  oooo@@@@@@@@@@@@@@@@@@@@@@@$$$$$$$$##@@@.X...ooo %%%%%%%%%%%%%%%%%%%%%%%%",
"%%%%%%%%%%%%%%%%%%%%%%%%%%% ooooooo@@@@@@@@@@@@@@@@#$$$$$$#@....@@@@@@oooo%%%%%%%%%%%%%%%%%%%%%%%%%%",
"%%%%%%%%%%%%%%%%%%%%%%%%%%%%%.@@oooo ooooo###$$$$$###@.......     oo@@o.%%%%%%%%%%%%%%%%%%%%%%%%%%%%",
"%%%%%%%%%%%%%%%%%%%%%%%%%%%%%%%.@@ooo    ooooooo.........         .@@O%%%%%%%%%%%%%%%%%%%%%%%%%%%%%%",
"%%%%%%%%%%%%%%%%%%%%%%%%%%%%%%%%%@@@@oo                         .@OO%%%%%%%%%%%%%%%%%%%%%%%%%%%%%%%%",
"%%%%%%%%%%%%%%%%%%%%%%%%%%%%%%%%%%%%%.@@@@  o              O@@OO%%%%%%%%%%%%%%%%%%%%%%%%%%%%%%%%%%%%",
"%%%%%%%%%%%%%%%%%%%%%%%%%%%%%%%%%%%%%%%%%@@@@@@@@@@@@@@@@OOO%%%%%%%%%%%%%%%%%%%%%%%%%%%%%%%%%%%%%%%%"
};
