/* XPM */
static char *result[] = {
/* columns rows colors chars-per-pixel */
"100 100 10 1 ",
"  c #283540",
". c #2F5753",
"X c #3B7D4F",
"o c #404973",
"O c #63AB3F",
"+ c #686F99",
"@ c #62C8E0",
"# c #DFE0E8",
"$ c #F5FFE8",
"% c None",
/* pixels */
"%%%%%%%%%%%%%%%%%%%%%%%%%%%%%%%%%%%%%%%%%%%%%%%%%%%%%%%%%%%%%%%%%%%%%%%%%%%%%%%%%%%%%%%%%%%%%%%%%%%%",
"%%%%%%%%%%%%%%%%%%%%%%%%%%%%%%%%%%%%%%%%%@ . .  ...... . .  %%%%%%%%%%%%%%%%%%%%%%%%%%%%%%%%%%%%%%%%",
"%%%%%%%%%%%%%%%%%%%%%%%%%%%%%%%%%%%%% ...@@@o      .........X @@o%%%%%%%%%%%%%%%%%%%%%%%%%%%%%%%%%%%",
"%%%%%%%%%%%%%%%%%%%%%%%%%%%%%%%%%  X....@oo  ooo   ...........OOO..@%%%%%%%%%%%%%%%%%%%%%%%%%%%%%%%%",
"%%%%%%%%%%%%%%%%%%%%%%%%%%%%%%%o@@@..@oo    ooooo  o@@@.@.......@@O..@%%%%%%%%%%%%%%%%%%%%%%%%%%%%%%",
"%%%%%%%%%%%%%%%%%%%%%%%%%%%%%ooo@@@@ooo oooooo+ooo+++@@@@@@@......@XX..@%%%%%%%%%%%%%%%%%%%%%%%%%%%%",
"%%%%%%%%%%%%%%%%%%%%%%%%%%%o       ooo   o++++++++++.O@OOO@@@OOOO....XX@.@%%%%%%%%%%%%%%%%%%%%%%%%%%",
"%%%%%%%%%%%%%%%%%%%%%%%%%o                +++++++@@@@@@.@@@OOOOOOOOOX....@ @%%%%%%%%%%%%%%%%%%%%%%%%",
"%%%%%%%%%%%%%%%%%%%%%%%o                  oo@@@@@@@@@...XXX@OOXO++++OOX.....@o%%%%%%%%%%%%%%%%%%%%%%",
"%%%%%%%%%%%%%%%%%%%%%%o    .            .@@@@@@@XX.OOOOOXXXXXX++++++OOOOX....@o%%%%%%%%%%%%%%%%%%%%%",
"%%%%%%%%%%%%%%%%%%%%%      .  .      ..O@@@@@OOOOOOOOOOOOXXXXXX++++OOXOOOOo.@@@o%%%%%%%%%%%%%%%%%%%%",
"%%%%%%%%%%%%%%%%%%%o     .....    ....@@@@@OOOOOOOOOOOOOOOXXXXXXXXXOOOOOOXooo@..oo%%%%%%%%%%%%%%%%%%",
"%%%%%%%%%%%%%%%%%%ooo  ............@@@@@@@OOOOOOOOOOOOOOOOOOOOX...XXOOOOOOOX..@..oo%%%%%%%%%%%%%%%%%",
"%%%%%%%%%%%%%%%%%o@oo    ........@+++@@@@@O@OOOOOOOOOOOOOOOOOOOO....XOOOOXXOOX...o@o%%%%%%%%%%%%%%%%",
"%%%%%%%%%%%%%%%%@@@+    .@@...@@@+++@@@@@O@OOOOOOOOOOOOOOOOOOOOO..O.XOOOOOOOOXXX@.@@o%%%%%%%%%%%%%%%",
"%%%%%%%%%%%%%%%@@@++   @@@@@@@@@@@@@@@@@OO@@OOOOOOOOOOOOOOOOOOOOXX..XOOO@@@@@XX.@@.@@o%%%%%%%%%%%%%%",
"%%%%%%%%%%%%%%@@@+++  @@@@@@@@@@@@@@@@@@@@@OOOOOOOOOOOOOOOOOOOOOOXXXXXOOO@@@@@XX..@@@@o%%%%%%%%%%%%%",
"%%%%%%%%%%%%%@@@o++++@@@@@@@@@@@@@@@@@O@@@@OOOOOOOOOOOOO#OXXXXOOOOOXXOXOOO@@@@X.....@@.o%%%%%%%%%%%%",
"%%%%%%%%%%%%@@@@+++++++++++++#@@@@@@@@@@@OOOOOOOOOOO#OOOOOXXXXXXXXOO+XOOOOO@@O.....@@@@oo%%%%%%%%%%%",
"%%%%%%%%%%%@@@@+++++++++@@++###@@@@@@@@@OOOOOOOOOOOOOOOOOOXXXXXXXXOO+OOOOOOO@X.....@@@..oo%%%%%%%%%%",
"%%%%%%%%%%%@@@@oooo@@@@@@+@@#$#@@@@@@@@OOOOOOOOOOOOOOOOOOOOXXXXXXXO#OOOOOOOOOX......@@@..o%%%%%%%%%%",
"%%%%%%%%%%@@@@oooo@@@@@@@@@#@#$#@@@@@@@OOOOOOOOOOOOOOOOOOOXXXXXXXXOOOOOOOOOOOX.......@@@@ o%%%%%%%%%",
"%%%%%%%%%@@@@oo@@@@@@@@@@@@@##$#@@@@@@OOOOOOOOOOOOOOOOOOOOOXXXXXXOOOOOOOOOOOOOX.........@ oo%%%%%%%%",
"%%%%%%%%o@@@@o@@@@@@@@@@@@@@#$$#@@@@@OOOO##OOOOOOOO@@@OOOOOOOOOOOOOO@@OOOO@OOOX.......... ooo%%%%%%%",
"%%%%%%%%@@@@@@@@@@@@@@@@@@@@$$$#@@O@OOOO###OOOOO@@@@@@@@@OOOOOOOOOO@@@@@OO@@OOXX.........  oo%%%%%%%",
"%%%%%%%@o@@@@@@@@@@@@@@@@@@$$$$@@OOOOOO#$$#OO@@@@@@@@@@@@@@@O@@@@@@@@@@@@@@OOOXX.........  oo@%%%%%%",
"%%%%%%%@@@@@@@@@@@@@@@@@@@$$$$$$$##OOO#$$$$#@@@@@@@@@@@@@@##@@@@@@@@@@@@@@@@OOX.......+++.   o%%%%%%",
"%%%%%%@@@@@@@@@@@@@@@@@@@$$$$$$$$$$#OO#$$$$$##@@@@@@@@@###@@@@@@@@@@@@@@@@@@OOXX.....++++.   oo%%%%%",
"%%%%%%@@@@@@@@@@@@@@@#$$$$$##$$$$$$$###$$$$$$$######$$$#@@@@@@@@@###@@@@@@@@@O#++....++++..+o  %%%%%",
"%%%%%@@@@@@@@@@@@@@@@@@@@@OO####$$$$$$##$$$$$$$$$$$$$#@@O@@@@@#$$$@@@@@@@@@@####+X...+++..+.  O@%%%%",
"%%%%%@.@@@@@@@@@@@@@@@@@@OOOOOOOO##$$$$$$$$$$$$$$$#@@@@@@@@@$$$$$@@@@@@@@#######XX..@+++...+o o.%%%%",
"%%%%@O@@@@@@@@@@@@@@@@@@@OOOOOOOOOO##$$$$$$$##########@@@#$$$$$#@@@@@@####$$$##XX...@@@@@@+.. o@o%%%",
"%%%%OO@@@@@O@@@@@@@@@@@OOOOOOO@OOOOOOO##$$$$$$$$$$$$###$$$$$$$#@@@@@####$$$$$#X@@...@@@@@+@o@.@@@%%%",
"%%%@O@@@@@@O@@@@@@@@@@@OOOOOOOOOOOOOOOOO@####$$$$$$$$$$$$$$$#@@@@@####$$$$$$##X@@....@@@@@++@@@@@o%%",
"%%%OO@@@@@OOO@@@@O@@@@OOOOOOOOOOOOO@@OO@@@@O###$$$$$$$$$$$$X@@@@@###$$$$$$$$#@X@@.....@@++++@@@@@o%%",
"%%%O@@@@@@@@@@@OOOOOOOOOOOOOOOOOOOOO@OO@@###$$$$$$$$$$$$$@@X@@@@###$$$$$$$$$#XX........+@+@++@@@@@%%",
"%%%O@@@@@@@@@@@OOOOOOOOOOOOOOOOOOOOOOO@@##$$$$$$$$$$$$#@@@@XX@@####$$$$$$$$#X..........+@@@@+@@@@@%%",
"%%O@@@@@@@@@@@OOOOOOOOOOOOOOOOOOOOOOOO@@##$$$$$$$$$#@@@@@@@X.@@###$$$$$$$$$#..........+@+@+@@@@@@@ %",
"%%O@@@@@@@@@@@@OOOOOOOOOOOOOOOOOOOOOO@@@@@@####@@@@@@@@@@@@@.@@###$$$$$$$$$#..........+.+@@+@@@@@@.%",
"%%X@@@@@@O@@@@@XOOOOOOOOOOOOOOOOOOOOO@@@@@@@@@@@@@@@@@@@@@@...@##$$$$$$$$$$#.........+...@@@@@@@@@@%",
"%%X@@@@@@@@@@@@XXXOOOOOOOOOOOOOOOOOO@@@@@@@@@@@@@@@@@@@@@@..@..#$$$$$$$$$$#..........+...@+@@@@@@O@%",
"%.X@@@@@@@X@@@@@XXXOOOOOOOOOOO@@OOO@@@@@@@@@@@@@@@@@@@@@@@@...##$$$$$$$$$$#.........$#...+@@@@@@@O@X",
"%.X@@@@@@@@@@@@@@@XOOOOOOOOOOO@@OOO@@@@@@@@@@@@@@@@@@@@@@@@@..#$$$$$$$$$$#..........$....+@@@@@@XOOX",
"%.@@@@@@@@@X@@@@@@.OOXXXOOOOOOO@OOOO@@@@@@@@@@@@@@@@@@@@@@@@..#$$$$$$$$$$#.........#$#.#+@@@@@@@XXOO",
"%.@@@@@@@@@@@@@@@@@OOXXXXOOOOOOOOXXXXXX@@@@@@@@@@@@@@@@@@@@...#$$$$$$$$$$#.........#$###@@@@@@@@@XOO",
"%.@@@@@@@@@@@@@@@@@.....XOOOOOOOXXXXXXXXXXXXXXXX.X@@@@@@@@....##$$$$$$$$$$.........####.@@@O..X@@XXO",
"%.@@@@@@@@@@@@@@@@@@@@...XXXXOXXXXXXXX.............@...@.......##$#@@@@@$$............@@@@OOO..@@.OO",
"%..@@@@@@@@@@@@@@@@@@@@......XXXXXXXX..........................#....@@@@##...........@@@@@OOO.....OO",
"%..@@@@@@@@@..@@@@@@@@@............X................................@@..##............O@@@OOO.....OX",
"%.@@@@@@@@@.....@@@@@@@@.............................................@..##..........@@@@@@OOOOO....X",
"%..@@@@@@@..   ...@@@@@@@@..............................................##..........@@@@@@OOOOO.....",
"%.@@@@@@...    ...@@@@@@@@@@............................................#...........@@@@@OOOOOO.....",
"%.@@@@@@... ooo  ...@@@@@@@@@...................................................@@@@@@@@@OOOOOO.....",
"%.@@@@@...  oooo ...@@@@@@@@@@.................................................@@@@@@@@@@OOOOOO....@",
"%.@@.@@... oooooo ...@@@@@@@@@................................................@@@@@@@@@@@@OOOOX...@o",
"%.@..@@.. ooooooo ....@@@@@@@@..............................................@@@@@@@@@@@@@OOOOOX@..@o",
"%....@@.. oo ooooo ...@@@@@@@@.............................................@@@@@@@@@@@@@@OOOOX.@@@@o",
"%o......  oo ooooo ....@@@@@@@@@@@@@@@@....................................@@@@OO@@@@@@@OOOOXX@@@@@o",
"%o...... ooooooooo  ....@@@@@@@@@@@@@@@...................................@@@@@OO@@@@@@OOOOOX@@@@@oo",
"%o...... oooooooo  ......@@@@@@@@@@@@@@@..................................@O@@@@@@@@@@@@OO@@@@@@@@oo",
"%%o.... oooooooo O.......@@@@@@@@@@@@@@@@..................................@@@@@@@@@@@@@@@@@@@@@@oo%",
"%%o..   ooooooooOOOOO.....@@@@@@@@@@@@@@@@.................................@@@@@@@@@..@@@@@@@@oo@o %",
"%%o@ooooooooooooOOOOOOO...@@@@@@@@@@@@@@@@@@@@@@@...........................@@@@@......@@@@... ooo %",
"%%o@ooooooooooooOOOOOOOOO..@@@@@@@@@@@@@@@@@@@@@@@@@@@@@@@@.........@........@@@........@...   ooo %",
"%%%@ooooooooooo@OOOOOOOOO...@@@@@@@@@@@@@@@@@@@@@@@@@@@@@@@@@......@@.....................      o %%",
"%%%oooooooooooo@@OOOOOOOOO..@@@@@@@@@@@@@@@@@@@@@@@@@@@@@@@@@@....@@@@@@..................      o %%",
"%%%@@ooo oooooo@@OOOOOOO@OO@@@@@@@@@@@@@@@@@@@@@@@@@@@@@@@@@@@@@@@oooo@@@.................        %%",
"%%%o@ooooooooo@@@OOOOOOOOOOO@@@@@@@@@@@@@@@@@@@@@@@@@@@@@oooooo@oooo@o@@@............            .%%",
"%%%%@ooo@@ooo@@@@OOOOOOOO@@@@@@@@@@@@@@@@@@@@@@@@@@@@@@@@ooooooooooo@@@@@...........        +    %%%",
"%%%%@@oo@@..@@@@@@OOOOOOO@@@@@@@@@@@@@@@@@@@@@@@@@@@@@@@oooooooooooo@@@@@@@.......               %%%",
"%%%%%@@oo@.O.@@@@@OOOOOOO@@@@@@@..@@@@@@@@@@@@@@@@@@@ooooooooooooo@@@@@@@@..@...o               %%%%",
"%%%%%@@@@@OOO@@@@@OOOOOOO@@@@@@@@.@..@@@@@@@@@@@@@@@ooooooooooooo@@@@@@@@@.@@@@@oo        +    .%%%%",
"%%%%%%@@.@@OO.@@@@OOOOOOO@@@@@@@@@@@..@@@@@@@@@@@@@@@@@@@oooooooo@@@@o@@@@@@@@..@.    .       .%%%%%",
"%%%%%%@@@.@XXX@@@@@OOOOOO@@@@@@@@@@@@..@@@@@@@@@@@@@@@@@@@@@@@@@@@@@@@@@@@@@@@@.@@. ...      .O%%%%%",
"%%%%%%%@@.@XXX@@@@@XOOXOO@@@@@@@@@@@@@@.@@@@@@@@@@@@@@@@@@@@@@@@@@@@@@@@@@@@@@@@@...... ... ..%%%%%%",
"%%%%%%%O..@@..@@@@@XOOOOOX@@@@@@@@@@@@@@@@@@@@@@@@@@@@@@@@@@@@@@@@@@@@@@@@@@@@@@@.O....+..  .@%%%%%%",
"%%%%%%%%O...@@@.@@@O.XOOO@@@@@@@@@@@@@@@@@@@@@@@@@@@@@@@@@@@@@@@@@@@@@@@@@@@@@@@.OO...+... OX%%%%%%%",
"%%%%%%%%@OO.@@@@@@@XO.OOO@@@@@@@@@@@@@@@@########@@@@@@@@@@@@@@@@@@@@@@@@@@@@@@.O....+... .OO%%%%%%%",
"%%%%%%%%%XOO.@@@@....OOOOO@@@@@@@@@@@@@##$$$$$$$##@@@@@@@@@@@@@@@@@@@@@@@@@@@O...@.O+.....O@%%%%%%%%",
"%%%%%%%%%%XOO.#@@@OO.XXOOO@@@@@@@@@@@@#$$$$$$$$$$#@@@@@@@@@@@@@@@@@@@@@@@@@@OO@.@@........@%%%%%%%%%",
"%%%%%%%%%%%XOOO#@@OOO.X.XOO@@@@@@@@@@.#$$$$$$$$$$#@@@@@@@@@@@@@@@@@@@@@@@@@OO@O.@@.......O%%%%%%%%%%",
"%%%%%%%%%%%.XOO.#@@OOO.OOOO@@@@@@@@@@##$$$$$$$$$##@@@@@@@@@@@@@@@@@##@@@@@@#@@@@@@....O@@@%%%%%%%%%%",
"%%%%%%%%%%%%.XX.X#@OXX...OOO@@@@@@@@@.#$$$$$$$$##@@@@@@@@@@@@@@@@####@@@@@#@@@@@....O@@@+%%%%%%%%%%%",
"%%%%%%%%%%%%%.XX....@XX..XXOO@@@@......#$$$$$##.@@@@@@@@@@@@@@@##$##@@@@@#@@@@@...OO@@@@%%%%%%%%%%%%",
"%%%%%%%%%%%%%%............OOXXX@........@###@...@@@@@@@@@@@@@@#####@@@@@#@@@@.OOOO@@@@@%%%%%%%%%%%%%",
"%%%%%%%%%%%%%%%.......X...XOOXX.......@@@@@@@@@@@@@@@@@@@@@@@#####@@@@@@@@OOOOOOOO@@X %%%%%%%%%%%%%%",
"%%%%%%%%%%%%%%%%.....#.X..............@@@@@@@@@@@@@@@@@@@@@@@@@@@@@@@@OOOOOO#OOXXX@@ %%%%%%%%%%%%%%%",
"%%%%%%%%%%%%%%%%%    ##.O...........@@@@@@@@@@@@@@@@@@@@@@@@@@@OOOOOOOOOOOO.....X@@ %%%%%%%%%%%%%%%%",
"%%%%%%%%%%%%%%%%%%oo++$$#O......##....@@@@@@@@@@@@@@@@@@@@@@@@@OOOOOOOOXX........@ %%%%%%%%%%%%%%%%%",
"%%%%%%%%%%%%%%%%%%%ooo+++$#.....###....@@@@@@@@@@@@@@@@@@@@@@@@OOOOOOO.........+. %%%%%%%%%%%%%%%%%%",
"%%%%%%%%%%%%%%%%%%%%%o ++++$##.........@@@@@@@@@@@@@@@@@@@@@@@OOOOX.X....... .+ %%%%%%%%%%%%%%%%%%%%",
"%%%%%%%%%%%%%%%%%%%%%%  O+++$$#......#@@@@@@@@@@@@@@@@@O@@@@@@@@OO.........o++o%%%%%%%%%%%%%%%%%%%%%",
"%%%%%%%%%%%%%%%%%%%%%%%. OO++$$$....OO@@@@@@@@@@@@@@@@@@@@X@@@@@@@...@@@..o+o %%%%%%%%%%%%%%%%%%%%%%",
"%%%%%%%%%%%%%%%%%%%%%%%%%.XO.+$#$#OOOO@@@@@@@@@@@@@@##@@@@@@.@@@@@@@X.@.ooo@%%%%%%%%%%%%%%%%%%%%%%%%",
"%%%%%%%%%%%%%%%%%%%%%%%%%%%.OX.+#.#$OO@@@@@@@@@@@@@@@#@@@@@@@@@@@@@@@.++oo%%%%%%%%%%%%%%%%%%%%%%%%%%",
"%%%%%%%%%%%%%%%%%%%%%%%%%%%%%....++#.X$@@@@OOOO@OOOO@@@@@@@@@@@@@@@@++o+%%%%%%%%%%%%%%%%%%%%%%%%%%%%",
"%%%%%%%%%%%%%%%%%%%%%%%%%%%%%%%.....+$#@@@@@@@@@@@@@@@@@@@@@@ooo@+++o+%%%%%%%%%%%%%%%%%%%%%%%%%%%%%%",
"%%%%%%%%%%%%%%%%%%%%%%%%%%%%%%%%%.....++++$@@@@@@@@@@@@@@ooooo+++@++%%%%%%%%%%%%%%%%%%%%%%%%%%%%%%%%",
"%%%%%%%%%%%%%%%%%%%%%%%%%%%%%%%%%%%%%...+++++++++++++@oooo++++++%%%%%%%%%%%%%%%%%%%%%%%%%%%%%%%%%%%%",
"%%%%%%%%%%%%%%%%%%%%%%%%%%%%%%%%%%%%%%%%%.@@@@@XXX...@@@+++@%%%%%%%%%%%%%%%%%%%%%%%%%%%%%%%%%%%%%%%%"
};
